<?xml version="1.0" encoding="utf-8"?>
<!-- Generator: Adobe Illustrator 15.1.0, SVG Export Plug-In . SVG Version: 6.00 Build 0)  -->
<!DOCTYPE svg PUBLIC "-//W3C//DTD SVG 1.1//EN" "http://www.w3.org/Graphics/SVG/1.1/DTD/svg11.dtd">
<svg version="1.1" id="Layer_1" xmlns="http://www.w3.org/2000/svg" xmlns:xlink="http://www.w3.org/1999/xlink" x="0px" y="0px"
	 width="250px" height="250px" viewBox="0 0 250 250" enable-background="new 0 0 250 250" xml:space="preserve">
<g>
	<g>
		<g>
			<path fill="#FFFFFF" d="M54.51,166.93c-7.942-5.713-11.949-15.37-11.834-24.979c-2.795,0.757-5.59,1.514-8.386,2.271
				c-0.028,0.077-0.057,0.155-0.085,0.232c2.742-0.358,5.483-0.717,8.225-1.075c-3.108-5.232,1.554-14.418,4.363-19.016
				c2.946-4.82,8.971-6.914,13.636-9.613c3.277-1.896,2.773-7.335-1.075-8.225c-1.379-0.319-2.488-0.219-3.871,0
				c-5.72,0.906-3.283,9.578,2.393,8.679c-0.305,0-0.61,0-0.915,0c-0.358-2.742-0.717-5.483-1.075-8.225
				c-7.435,4.301-14.027,7.481-18.304,15.339c-3.966,7.289-7.488,17.921-2.925,25.604c2.098,3.531,6.946,2.502,8.225-1.075
				c0.945-2.643,0.744-4.826-0.822-7.168c-2.439-3.649-8.33-2.372-8.386,2.271c-0.155,12.985,5.734,25.156,16.292,32.75
				C54.689,178.098,59.175,170.285,54.51,166.93L54.51,166.93z"/>
		</g>
	</g>
	<g>
		<g>
			<path fill="#FFFFFF" d="M59.489,113.677c4.024-4.101,10.791-4.268,16.169-4.792c6.41-0.625,12.675-2.35,19.026-3.077
				c4.357-0.499,7.099-3.428,7.996-7.757c0.628-3.036,0.543-5.438,1.992-8.293c1.376-2.709,3.271-5.053,5.351-7.246
				c8.254-8.705,20.869-13.308,32.74-12.646c13.423,0.747,26.634,12.469,30.957,24.805c1.905,5.44,10.603,3.1,8.678-2.393
				c-4.916-14.031-16.769-24.934-30.709-29.761c-12.789-4.428-27.719-0.456-38.883,6.34c-5.531,3.367-10.178,7.896-13.938,13.136
				c-1.903,2.652-3.259,5.682-4.346,8.746c-0.526,1.484-0.467,3.382-0.567,4.935c0.015,0.668-0.214,1.256-0.687,1.763
				c1.733-0.6,1.905-0.775,0.515-0.524c-7.371,0.844-14.662,2.573-22.08,3.378c-6.711,0.729-13.668,2.019-18.579,7.024
				C49.059,111.457,55.419,117.824,59.489,113.677L59.489,113.677z"/>
		</g>
	</g>
	<ellipse fill="#FFFFFF" cx="87.293" cy="141.887" rx="61.069" ry="50.751"/>
	<ellipse fill="#FFFFFF" cx="138.38" cy="106.114" rx="51.548" ry="49.542"/>
	<path fill="#72CDE2" d="M146.001,131.637c6.22,23.993-13.534,49.87-44.121,57.797c-30.588,7.933-60.426-5.088-66.645-29.08
		c-6.221-23.993,13.535-49.873,44.121-57.802C109.942,94.623,139.782,107.644,146.001,131.637z"/>
	<ellipse fill="#72CDE2" cx="143.747" cy="110.272" rx="46.181" ry="44.382"/>
	
		<ellipse fill="none" stroke="#000000" stroke-width="2" stroke-miterlimit="10" cx="138.38" cy="105.112" rx="51.548" ry="49.542"/>
	<path fill="none" stroke="#000000" stroke-width="2" stroke-miterlimit="10" d="M147.441,142.269
		c0,27.818-27.136,50.369-60.609,50.369c-33.474,0-60.609-22.551-60.609-50.369c0-27.814,27.135-50.365,60.609-50.365
		C120.305,91.904,147.441,114.454,147.441,142.269z"/>
	
		<ellipse fill="#72CDE2" stroke="#000000" stroke-width="2" stroke-miterlimit="10" cx="173.602" cy="154.654" rx="51.192" ry="39.633"/>
	
		<rect x="78.918" y="153.778" fill="#72CDE2" stroke="#000000" stroke-width="2" stroke-miterlimit="10" width="94.681" height="37.98"/>
	<path fill="#72CDE2" d="M182.809,108.951c-12.214-1.832-24.808,0.29-36.142,5.116c-3.824-5.634-9.259-9.495-14.909-13.204
		c-3.48-2.284-6.64-4.814-10.321-6.811c-3.025-1.641-6.971-1.62-9.564-4.05c-2.181-2.049-6.045-2.422-8.175,0
		c-0.104,0.119-0.19,0.234-0.289,0.354c-0.942,0.667-1.741,1.596-2.228,2.814c-0.276,0.689-0.552,1.379-0.827,2.064
		c-2.151,5.383,4.111,8.356,8.296,6.222c3.659,1.782,7.663,2.849,11.239,5.065c2.864,1.77,5.464,3.947,8.28,5.796
		c1.865,1.156,3.617,2.459,5.266,3.911l1.452,1.546c-8.986,5.824-16.666,15.111-17.919,25.902c-4.95-2.927-9.479-6.5-13.552-10.711
		c-6.752-6.982-8.732-15.427-10-24.571c1.167-3.386-0.576-7.908-5.238-7.908c-0.689,0-1.29,0.126-1.85,0.303
		c-2.764,0.12-5.21,1.923-4.757,5.476c1.613,12.598,3.951,22.765,11.971,32.935c3.167,4.016,7.034,7.454,11.254,10.447
		c-4.91-0.337-9.797-0.878-14.658-1.746c-2.606-0.464-5.317-0.695-7.819-0.321c-0.993-0.008-2.012,0.196-2.977,0.692
		c-0.605,0.311-1.122,0.622-1.582,0.949c-1.316,0.838-2.471,1.997-3.382,3.603c-1.367,2.406-0.989,4.59,0.238,6.131
		c-0.423,0.401-0.75,0.904-0.909,1.496c-0.267,1.011-0.301,2.068-0.306,3.106c-0.002,1.987,1.422,3.044,2.954,3.191
		c-0.846,4.02-1.886,8.046-1.479,12.086c-3.76,2.325-3.825,9.848,1.439,10.689c8.392,1.341,16.264,1.841,24.544-0.412
		c6.62-1.804,4.725-10.794-1.538-11.354c-3.731-0.333-7.468-0.529-11.167-1.162c-3.643-0.624-1.392-3.911-0.737-6.687
		c0.786-3.312,1.348-6.961,1.372-10.554c1.812,0.327,3.602,0.731,5.44,0.923c7.606,0.795,15.196,1.311,22.845,1.378
		c0.06,0,0.115-0.009,0.176-0.009c0.035,0,0.063,0.009,0.098,0.009c0.124,0,0.229-0.028,0.347-0.035
		c0.122-0.008,0.243-0.017,0.359-0.033c1.954-0.214,3.338-1.246,4.117-2.648c0.472,0.194,0.945,0.401,1.417,0.584
		c1.493,0.575,2.785,0.491,3.853,0.018c5.875,1.173,13.403-0.111,18.579-0.203c4.247-0.075,8.502-0.021,12.752-0.021h8.469
		c-0.013,8.823,1.652,17.951,0.612,26.63c-0.014,0.104,0.001,0.19-0.005,0.294c-0.517-0.125-1.031-0.247-1.539-0.342
		c-2.944-0.551-5.819-1.312-8.634-2.343c-3.007-1.101-4.294,3.688-1.317,4.777c0.987,0.362,1.98,0.665,2.978,0.947
		c3.381,1.427,6.935,2.233,10.595,2.391c1.424,0.243,2.836,0.389,4.285,0.276c0.204,0.052,0.419,0.087,0.655,0.087h0.415
		c1.232,0,1.983-0.739,2.264-1.646c0.104-0.28,0.17-0.574,0.164-0.88c0.877-0.889,1.521-2.067,1.7-3.562
		c1.011-8.439-1.381-16.745-0.726-25.239c0.324-4.247,0.34-11.69-5.467-12.529c-8.846-1.279-18.272-0.469-27.201-0.398
		c-4.781,0.035-9.554,0.19-14.337,0.108c-1.03-0.236-1.745-0.341-2.217-0.344c-0.761-1.586-1.095-3.299-0.669-5.107
		c1.435-6.1,7.63-12.411,12.865-15.493c0.891-0.521,1.807-1.112,2.673-1.768c1.525,0.829,3.413,1.05,5.381,0.118
		c8.942-4.241,20.14-6.679,30.019-5.198C187.026,121.19,190.159,110.054,182.809,108.951z"/>
	<path fill="#73CEE4" d="M91.312,102.533c-0.378-1.379-1.721-1.978-3.048-1.729c-0.967,0.18-2.272,0.21-3.378,0.464
		c-1.317,0.301-2.078,1.789-1.731,3.047c0.369,1.343,1.733,2.033,3.049,1.73c1.025-0.235,2.227-0.247,3.378-0.464
		C90.911,105.334,91.646,103.751,91.312,102.533z"/>
	<path fill="#73CEE4" d="M105.215,90.655c-1.117-0.655-2.769-0.31-3.386,0.888c-0.575,1.115-1.052,2.275-1.462,3.457
		c-0.447,1.275,0.493,2.706,1.728,3.046c1.369,0.378,2.605-0.455,3.047-1.728c0.286-0.824,0.563-1.496,0.963-2.272
		C106.725,92.844,106.426,91.363,105.215,90.655z"/>
	<path fill="#1A98B5" d="M198.041,151.571c-1.96,21.83-22.667,22.834-40.191,20.474c-4.198-0.566-6.012,5.849-1.771,6.422
		c22.409,3.021,46.216-0.061,48.623-26.896C205.086,147.291,198.423,147.33,198.041,151.571z"/>
	<g>
		<g>
			<path fill="#FFFFFF" d="M89.25,96c-1.166,0.1-2.334,0.15-3.5,0.25c0.482,0.633,0.964,1.266,1.446,1.899
				c0.607-1.92,1.583-1.937,3.025-2.92c1.271-0.866,1.958-2.117,2.824-3.347c-0.932-0.252-1.864-0.504-2.795-0.757
				c0.061,0.635,0.149,1.232,0.125,1.875c-0.053,1.439,1.616,1.808,2.561,1.061c0.699-0.552,1.302-1.197,2-1.75
				c-0.835-0.221-1.671-0.441-2.507-0.662c0.098,0.47,0.257,0.91,0.375,1.375c0.304,1.202,1.664,1.317,2.507,0.662
				c0.327-0.197,0.642-0.411,0.946-0.64c-0.752-0.432-1.504-0.864-2.257-1.295c0.062,0.25,0.062,0.5,0,0.75
				c-0.113,0.907,1.057,1.792,1.899,1.446c0.771-0.316,1.422-0.667,2.108-1.151c-0.734-0.565-1.469-1.129-2.203-1.694
				c-0.116,0.256-0.232,0.511-0.349,0.767c-0.792,1.5,1.109,3.026,2.356,1.817c0.303-0.327,0.636-0.619,1-0.875
				c-0.854-0.354-1.707-0.707-2.561-1.061c-0.024,0.159-0.048,0.317-0.071,0.476c-0.523,1.867,2.372,2.658,2.893,0.798
				c0.123-0.439,0.164-0.817,0.179-1.274c0.046-1.443-1.61-1.803-2.561-1.061c-0.364,0.256-0.698,0.548-1,0.875
				c0.785,0.606,1.57,1.212,2.356,1.817c0.264-0.5,0.459-0.952,0.651-1.483c0.435-1.205-1.148-2.438-2.203-1.694
				c-0.431,0.336-0.895,0.619-1.392,0.849c0.633,0.482,1.266,0.964,1.899,1.446c0.062-0.25,0.062-0.5,0-0.75
				c-0.125-0.995-1.225-2.042-2.257-1.295c-0.519,0.376-1.046,0.716-1.554,1.11c0.835,0.221,1.671,0.441,2.507,0.662
				c-0.118-0.464-0.277-0.905-0.375-1.375c-0.253-1.218-1.698-1.301-2.507-0.662c-0.699,0.552-1.302,1.197-2,1.75
				c0.854,0.354,1.707,0.707,2.561,1.061c0.024-0.663-0.061-1.209-0.125-1.875c-0.146-1.509-1.909-2.016-2.795-0.757
				c-0.433,0.614-0.971,1.958-1.692,2.236c-0.758,0.292-1.442,0.609-2.117,1.073c-1.277,0.878-1.891,2.245-2.342,3.674
				c-0.277,0.877,0.486,1.981,1.446,1.899c1.166-0.1,2.334-0.15,3.5-0.25C91.163,98.835,91.178,95.834,89.25,96L89.25,96z"/>
		</g>
	</g>
	<g>
		<g>
			<path fill="#FFFFFF" d="M98.936,93.686c0.571-0.371,1.142-0.743,1.713-1.114c-0.615-0.615-1.23-1.23-1.845-1.845
				c-1.291,6.826-10.941,7.197-16.429,7.774c-1.904,0.2-1.923,3.202,0,3c6.89-0.725,17.719-1.5,19.321-9.976
				c0.2-1.057-0.675-2.221-1.845-1.845c-1.261,0.405-2.098,0.953-3.037,1.886C95.44,92.929,97.562,95.05,98.936,93.686
				L98.936,93.686z"/>
		</g>
	</g>
	<g>
		<g>
			<path fill="#72CDE2" d="M184.33,114.382c0.282,0.636,0.063,1.354-0.151,1.969c0.982,0.133,1.964,0.266,2.946,0.399
				c0.005-0.11,0.007-0.22,0.006-0.331c0.013-0.092,0.268-0.618,0.055-0.359c-0.854-0.354-1.707-0.707-2.561-1.061
				c-0.042,0.743-0.479,1.516-0.696,2.226c-0.567,1.855,2.329,2.642,2.893,0.798c0.31-1.014,0.743-1.95,0.804-3.024
				c0.07-1.247-1.731-2.071-2.561-1.061c-0.684,0.832-0.912,1.746-0.939,2.811c-0.045,1.769,2.407,1.939,2.946,0.399
				c0.511-1.46,0.476-2.87-0.151-4.281c-0.332-0.748-1.406-0.917-2.052-0.539C184.105,112.777,183.998,113.635,184.33,114.382
				L184.33,114.382z"/>
		</g>
	</g>
	<g>
		<g>
			<path fill="#72CDE2" d="M174.602,190.179c-5.044,0.982-10.683-0.323-15.22-2.599c-1.724-0.865-3.243,1.723-1.514,2.59
				c5.303,2.66,11.646,4.048,17.53,2.901C177.297,192.702,176.491,189.811,174.602,190.179L174.602,190.179z"/>
		</g>
	</g>
	<g>
		<g>
			<path fill="#72CDE2" d="M76.375,190.875c7.895,0.955,15.65,1.212,23.524-0.054c1.906-0.307,1.094-3.196-0.798-2.893
				c-7.592,1.22-15.124,0.866-22.726-0.054C74.457,187.643,74.479,190.646,76.375,190.875L76.375,190.875z"/>
		</g>
	</g>
</g>
</svg>
