<?xml version="1.0" encoding="utf-8"?>
<!-- Generator: Adobe Illustrator 15.1.0, SVG Export Plug-In . SVG Version: 6.00 Build 0)  -->
<!DOCTYPE svg PUBLIC "-//W3C//DTD SVG 1.1//EN" "http://www.w3.org/Graphics/SVG/1.1/DTD/svg11.dtd">
<svg version="1.1" id="Layer_1" xmlns="http://www.w3.org/2000/svg" xmlns:xlink="http://www.w3.org/1999/xlink" x="0px" y="0px"
	 width="250px" height="250px" viewBox="0 0 250 250" enable-background="new 0 0 250 250" xml:space="preserve">
<g>
	<g>
		<path fill="#FFFFFF" d="M219.043,172.225c-4.988,3.311-16.82,6.678-22.889,8.703c-38.416,12.819-82.496-2.469-102.676-44.599
			C73.294,94.197,84.813,42.24,121.337,24.743c1.608-0.769,4.389-1.937,6.031-2.564l-0.167-0.226
			c-9.461,1.334-18.878,4.122-27.949,8.467c-47.672,22.835-67.758,80.083-44.87,127.865c22.89,47.778,80.087,67.999,127.756,45.164
			c15.445-7.401,27.996-18.407,37.127-31.539L219.043,172.225z"/>
	</g>
	<path fill="#FDE145" d="M216.307,173.527c-4.841,3.241-16.371,6.464-22.278,8.415c-37.415,12.334-80.673-3.366-100.863-45.514
		c-20.193-42.151-9.502-93.731,26.011-110.745c1.563-0.748,4.27-1.879,5.868-2.486l-0.167-0.227
		c-9.233,1.224-16.197,10.447-24.672,15.332c-44.724,25.778-58.567,70.54-39.076,117.931c19.799,48.139,72.358,66.1,119.445,47.961
		c15.541-5.986,27.164-18.011,35.946-30.98L216.307,173.527z"/>
	<g>
		<path fill="none" stroke="#000000" stroke-width="2" stroke-miterlimit="10" d="M219.008,172.158
			c-5.018,3.331-16.92,6.72-23.023,8.756c-38.648,12.898-82.994-2.483-103.296-44.869C72.383,93.66,83.971,41.39,120.714,23.788
			c1.618-0.773,4.416-1.948,6.067-2.579l-0.168-0.228c-9.518,1.341-18.991,4.146-28.117,8.518
			c-47.958,22.972-68.166,80.564-45.139,128.632c23.027,48.067,80.567,68.412,128.523,45.438
			c15.541-7.443,28.166-18.517,37.35-31.728L219.008,172.158z"/>
	</g>
</g>
<g>
	<g>
		<g>
			<path fill="#FFFFFF" d="M80.69,148.155c-6.268-4.559-9.333-12.138-9.277-19.73c-2.795,0.757-5.59,1.515-8.386,2.271
				c-0.05-0.146-0.101-0.292-0.152-0.438c2.742-0.358,5.483-0.717,8.225-1.075c-2.37-4.18,1.603-11.669,3.908-15.237
				c2.239-3.465,7.109-5.099,10.525-7.067c3.282-1.892,2.769-7.336-1.075-8.225c-1.281-0.296-2.321-0.203-3.603,0
				c-5.72,0.906-3.283,9.577,2.393,8.679c-0.394,0-0.789,0-1.183,0c-0.358-2.742-0.717-5.483-1.075-8.225
				c-6.141,3.54-11.554,6.217-15.161,12.634c-3.553,6.322-6.301,15.284-2.502,21.985c2.005,3.537,7.039,2.511,8.225-1.075
				c0.8-2.418,0.598-4.329-0.755-6.498c-2.353-3.769-8.353-2.283-8.386,2.271c-0.08,10.99,4.85,21.039,13.735,27.502
				C80.851,159.347,85.334,151.533,80.69,148.155L80.69,148.155z"/>
		</g>
	</g>
	<g>
		<g>
			<path fill="#FFFFFF" d="M84.93,105.872c3.267-3.266,8.81-3.306,13.138-3.729c5.135-0.502,10.163-1.932,15.252-2.487
				c3.277-0.357,6.427-2.732,7.022-6.223c0.832-4.873,1.652-8.196,5.013-12.079c6.399-7.393,16.585-11.359,26.233-11.141
				c10.999,0.249,21.856,9.699,25.436,19.746c1.933,5.426,10.631,3.089,8.678-2.393c-4.284-12.029-14.456-21.37-26.586-25.192
				c-10.7-3.372-23.096,0.19-32.25,5.989c-4.689,2.97-8.594,6.962-11.647,11.574c-1.318,1.992-2.271,4.273-3.028,6.528
				c-0.358,1.066-0.342,2.472-0.424,3.584c-0.18,2.452-1.157,0.901,0.764,0.692c-6.093,0.665-12.121,2.123-18.249,2.787
				c-5.728,0.621-11.498,1.764-15.714,5.979C74.458,103.615,80.822,109.979,84.93,105.872L84.93,105.872z"/>
		</g>
	</g>
	<g>
		<path fill="#FFFFFF" stroke="#FFFFFF" stroke-miterlimit="10" d="M155.931,120.132c5.074,19.577-11.041,40.688-35.996,47.155
			c-24.955,6.472-49.298-4.152-54.371-23.726c-5.075-19.575,11.042-40.687,35.996-47.157
			C126.514,89.935,150.858,100.558,155.931,120.132z"/>
		<ellipse fill="#FFFFFF" stroke="#FFFFFF" stroke-miterlimit="10" cx="154.092" cy="102.702" rx="37.676" ry="36.211"/>
		<path fill="#FFFFFF" stroke="#FFFFFF" stroke-width="2" stroke-miterlimit="10" d="M191.768,98.494
			c0,22.321-18.829,40.419-42.056,40.419c-23.224,0-42.055-18.098-42.055-40.419s18.831-40.416,42.055-40.416
			C172.938,58.078,191.768,76.173,191.768,98.494z"/>
		
			<ellipse fill="#FFFFFF" stroke="#FFFFFF" stroke-width="2" stroke-miterlimit="10" cx="107.658" cy="128.809" rx="49.447" ry="41.09"/>
		
			<ellipse fill="#FFFFFF" stroke="#FFFFFF" stroke-width="2" stroke-miterlimit="10" cx="178.449" cy="138.913" rx="41.764" ry="32.333"/>
		
			<rect x="101.201" y="138.198" fill="#FFFFFF" stroke="#FFFFFF" stroke-width="2" stroke-miterlimit="10" width="77.246" height="30.985"/>
	</g>
	<g>
		<path fill="#72CDE2" d="M155.133,119.987c5.089,19.632-11.072,40.804-36.099,47.29c-25.026,6.489-49.439-4.165-54.526-23.793
			c-5.09-19.631,11.073-40.804,36.098-47.292C125.631,89.704,150.046,100.357,155.133,119.987z"/>
		<ellipse fill="#72CDE2" cx="153.288" cy="102.507" rx="37.784" ry="36.314"/>
		<path fill="none" stroke="#000000" stroke-width="2" stroke-miterlimit="10" d="M191.072,98.287
			c0,22.384-18.883,40.534-42.176,40.534c-23.29,0-42.174-18.15-42.174-40.534c0-22.385,18.885-40.532,42.174-40.532
			C172.189,57.755,191.072,75.902,191.072,98.287z"/>
		
			<ellipse fill="none" stroke="#000000" stroke-width="2" stroke-miterlimit="10" cx="106.723" cy="128.688" rx="49.589" ry="41.208"/>
		
			<ellipse fill="#72CDE2" stroke="#000000" stroke-width="2" stroke-miterlimit="10" cx="177.715" cy="138.821" rx="41.883" ry="32.426"/>
		
			<rect x="100.248" y="138.104" fill="#72CDE2" stroke="#000000" stroke-width="2" stroke-miterlimit="10" width="77.466" height="31.074"/>
	</g>
	<path fill="#72CDE2" d="M185.729,101.427c-10.045-1.499-20.403,0.238-29.728,4.187c-3.146-4.61-7.615-7.769-12.263-10.804
		c-2.861-1.868-5.462-3.938-8.489-5.572c-2.487-1.343-5.732-1.325-7.866-3.314c-1.794-1.677-4.972-1.981-6.725,0
		c-0.085,0.098-0.157,0.191-0.237,0.29c-0.775,0.546-1.432,1.305-1.833,2.302c-0.227,0.564-0.454,1.128-0.68,1.689
		c-1.77,4.405,3.381,6.837,6.824,5.091c3.007,1.458,6.304,2.332,9.242,4.144c2.357,1.448,4.495,3.229,6.813,4.742
		c1.533,0.946,2.975,2.012,4.33,3.2l1.195,1.265c-7.391,4.765-13.709,12.363-14.739,21.194c-4.073-2.396-7.797-5.32-11.148-8.765
		c-5.554-5.713-7.182-12.623-8.226-20.104c0.96-2.771-0.474-6.47-4.308-6.47c-0.568,0-1.062,0.103-1.521,0.249
		c-2.274,0.098-4.286,1.573-3.913,4.479c1.327,10.307,3.25,18.626,9.847,26.945c2.604,3.285,5.786,6.099,9.256,8.547
		c-4.038-0.273-8.059-0.717-12.057-1.427c-2.144-0.379-4.373-0.57-6.431-0.262c-0.817-0.008-1.655,0.16-2.449,0.564
		c-0.498,0.255-0.922,0.511-1.3,0.776c-1.083,0.686-2.033,1.636-2.782,2.949c-1.124,1.969-0.813,3.753,0.196,5.017
		c-0.348,0.326-0.617,0.738-0.747,1.224c-0.22,0.827-0.248,1.693-0.251,2.541c-0.002,1.625,1.169,2.49,2.429,2.611
		c-0.695,3.289-1.552,6.581-1.216,9.889c-3.092,1.901-3.146,8.057,1.185,8.745c6.902,1.097,13.377,1.506,20.188-0.337
		c5.445-1.476,3.887-8.831-1.265-9.289c-3.069-0.273-6.143-0.433-9.185-0.95c-2.996-0.511-1.145-3.201-0.606-5.472
		c0.647-2.71,1.109-5.694,1.129-8.636c1.491,0.27,2.962,0.6,4.475,0.756c6.256,0.649,12.5,1.071,18.792,1.129
		c0.05,0,0.093-0.008,0.143-0.008c0.029,0,0.054,0.008,0.082,0.008c0.101,0,0.189-0.025,0.286-0.029
		c0.1-0.007,0.199-0.014,0.296-0.028c1.604-0.174,2.742-1.018,3.385-2.168c0.389,0.16,0.777,0.33,1.166,0.479
		c1.228,0.472,2.291,0.4,3.167,0.015c4.835,0.957,11.026-0.093,15.282-0.168c3.494-0.06,6.995-0.017,10.49-0.017h6.966
		c-0.01,7.22,1.359,14.688,0.504,21.788c-0.012,0.085,0,0.155-0.004,0.241c-0.425-0.103-0.85-0.202-1.267-0.28
		c-2.422-0.451-4.787-1.074-7.103-1.915c-2.471-0.902-3.531,3.016-1.084,3.906c0.813,0.298,1.631,0.546,2.452,0.776
		c2.778,1.167,5.702,1.828,8.713,1.954c1.17,0.199,2.333,0.321,3.524,0.228c0.168,0.044,0.347,0.071,0.538,0.071h0.343
		c1.012,0,1.631-0.606,1.861-1.348c0.086-0.228,0.141-0.469,0.137-0.721c0.721-0.728,1.248-1.689,1.397-2.913
		c0.831-6.904-1.138-13.699-0.599-20.65c0.267-3.473,0.28-9.564-4.495-10.25c-7.276-1.046-15.03-0.383-22.375-0.326
		c-3.931,0.028-7.857,0.156-11.793,0.089c-0.845-0.195-1.434-0.28-1.823-0.28c-0.623-1.299-0.897-2.7-0.549-4.18
		c1.182-4.991,6.274-10.156,10.584-12.677c0.73-0.428,1.483-0.91,2.197-1.445c1.255,0.677,2.807,0.858,4.427,0.095
		c7.354-3.47,16.565-5.464,24.69-4.252C189.198,111.441,191.773,102.33,185.729,101.427z"/>
	<path fill="#FFFFFF" d="M116.202,83.564c-0.29,0.01-0.569,0.094-0.824,0.254c-0.59-0.294-1.3-0.298-1.95-0.008
		c-0.211,0.073-0.408,0.185-0.585,0.325c-1.114-0.522-2.132-0.358-2.684,1.146c-0.337,0.914-0.977,2.304-1.144,3.254
		c-0.94-0.057-2.477,0.055-3.437,0.061c-1.083,0.007-1.299,0.203-1.559,0.996c-0.871,0.43-1.532,1.037-1.71,1.931
		c-0.65,1.041-1.017,4.184,0.439,3.872c0.313-0.068,0.801-0.18,1.28-0.285c0.277-0.059-1.804,0.395,0.987-0.198
		c0.062-0.003,0.123-0.008,0.181-0.016c0.594-0.048,1.184-0.135,1.776-0.2c3.591-0.396,2.317-0.732,2.592-1.92
		c0.327-0.043,0.652-0.087,0.972-0.149c0.665-0.13,1.104-0.594,1.351-1.158c0.186-0.101,0.37-0.21,0.544-0.377
		c0.434-0.413,0.833-0.863,1.236-1.308c0.534,1.541,2.949,2.326,4.037,0.492c0.69-1.161,0.878-2.535,1.566-3.684
		C120.409,84.697,117.965,82.324,116.202,83.564z"/>
	<path fill="#73CEE4" d="M110.388,96.175c-0.311-1.128-1.409-1.618-2.494-1.414c-0.791,0.147-1.859,0.172-2.764,0.38
		c-1.077,0.246-1.699,1.463-1.416,2.492c0.301,1.1,1.417,1.664,2.494,1.416c0.839-0.192,1.822-0.202,2.764-0.379
		C110.06,98.468,110.661,97.173,110.388,96.175z"/>
	<path fill="#73CEE4" d="M121.764,86.458c-0.914-0.536-2.266-0.254-2.771,0.727c-0.47,0.912-0.861,1.861-1.196,2.828
		c-0.365,1.043,0.403,2.214,1.414,2.493c1.12,0.309,2.131-0.373,2.493-1.414c0.234-0.674,0.462-1.224,0.788-1.859
		C122.999,88.249,122.754,87.038,121.764,86.458z"/>
	<path fill="#1A98B5" d="M197.711,136.299c-1.604,17.861-18.547,18.68-32.884,16.75c-3.435-0.465-4.918,4.786-1.448,5.255
		c18.333,2.469,37.812-0.05,39.782-22.005C203.473,132.797,198.022,132.828,197.711,136.299z"/>
	<g>
		<g>
			<path fill="#72CDE2" d="M112.076,165.289c-1.57,1.064-3.613,0.727-5.41,0.711c-1.935-0.017-1.934,2.983,0,3
				c2.353,0.02,4.872,0.271,6.924-1.121C115.182,166.8,113.683,164.199,112.076,165.289L112.076,165.289z"/>
		</g>
	</g>
	<g>
		<g>
			<path fill="#72CDE2" d="M106.25,166c-2.259-0.012-4.505-0.172-6.75-0.416c-1.922-0.209-1.902,2.793,0,3
				c2.245,0.244,4.491,0.404,6.75,0.416C108.185,169.01,108.184,166.01,106.25,166L106.25,166z"/>
		</g>
	</g>
	<g>
		<g>
			<path fill="#72CDE2" d="M99.417,168.584c1.935,0,1.935-3,0-3S97.482,168.584,99.417,168.584L99.417,168.584z"/>
		</g>
	</g>
	<g>
		<g>
			<path fill="#72CDE2" d="M179.834,167.208c-1.932,0.185-3.809,0.408-5.75,0.25c-2.239-0.183-4.457-0.991-6.602-1.612
				c-1.862-0.54-2.651,2.355-0.797,2.893c4.569,1.324,8.391,1.925,13.148,1.47C181.742,170.025,181.76,167.023,179.834,167.208
				L179.834,167.208z"/>
		</g>
	</g>
</g>
</svg>
