<?xml version="1.0" encoding="utf-8"?>
<!-- Generator: Adobe Illustrator 15.1.0, SVG Export Plug-In . SVG Version: 6.00 Build 0)  -->
<!DOCTYPE svg PUBLIC "-//W3C//DTD SVG 1.1//EN" "http://www.w3.org/Graphics/SVG/1.1/DTD/svg11.dtd">
<svg version="1.1" id="Layer_1" xmlns="http://www.w3.org/2000/svg" xmlns:xlink="http://www.w3.org/1999/xlink" x="0px" y="0px"
	 width="500px" height="500px" viewBox="0 0 500 500" enable-background="new 0 0 500 500" xml:space="preserve">
<g>
	<path fill="#FFFFFF" d="M460.198,367.536c-11.55,7.669-38.952,15.466-53.01,20.154c-88.97,29.688-191.058-5.719-237.794-103.29
		c-46.746-97.577-21.509-220.119,63.078-260.643c3.724-1.781,9.863-5.048,13.664-6.501c-21.912,3.089-45.464,10.324-66.472,20.386
		C66.333,92.667,24.529,226.413,77.537,337.076c53.013,110.649,186.791,155.659,297.195,102.773
		c35.769-17.142,64.836-42.631,85.985-73.045L460.198,367.536z"/>
	<path fill="#FCE146" d="M456.334,370.667c-11.211,7.504-40.386,14.854-54.063,19.369c-86.65,28.565-186.835-7.793-233.595-105.412
		C121.91,187.006,145.14,66.181,227.384,26.777c3.62-1.732,11.202-5.064,14.9-6.47l-0.084-0.799
		c-21.38,2.834-37.594,26.548-57.219,37.861C81.398,117.073,49.339,220.741,94.479,330.499
		c45.855,111.489,167.579,153.086,276.632,111.076c35.993-13.863,64.883-39.871,85.224-69.908V370.667z"/>
	<path fill="#010101" d="M460.117,367.38l-0.83-1.25c-2.776,1.846-6.614,3.759-11.005,5.631c-6.588,2.812-14.426,5.548-21.936,8.019
		c-7.512,2.472-14.694,4.679-20.022,6.457c-20.365,6.796-41.416,10.176-62.33,10.176c-70.321-0.015-139.061-38.165-175.07-113.318
		c-15.414-32.167-22.843-66.819-22.843-100.254c0-33.967,7.669-66.67,22.384-94.233c14.718-27.566,36.459-49.986,64.655-63.496
		l-0.023,0.012l0.022-0.011c3.682-1.759,10.166-4.484,13.94-5.926l1.836-0.702l-2.079-2.837l-0.889,0.125
		c-22.192,3.127-44.282,9.667-65.556,19.86C99.903,74.176,52.94,154.522,52.942,238.309c0,32.645,7.129,65.816,22.179,97.233
		c38.698,80.775,119.201,127.978,203.011,127.976c32.466,0,65.433-7.084,96.649-22.038c36.23-17.346,65.671-43.175,87.086-73.978
		l-2.457-1.722l-0.519,0.734L460.117,367.38l-0.83-1.25L460.117,367.38l1.226,0.865l0.519-0.734l-2.457-1.722
		c-21.13,30.391-50.166,55.866-85.919,72.985c-30.807,14.757-63.323,21.743-95.354,21.743
		c-82.692-0.002-162.123-46.566-200.305-126.272c-14.853-31.007-21.884-63.728-21.884-95.937
		c0.002-82.674,46.332-161.945,125.724-199.972c20.996-10.06,42.787-16.51,64.679-19.595l-0.209-1.485l-1.21,0.887l0.387,0.528
		l1.21-0.887l-0.536-1.401c-3.873,1.481-10.348,4.201-14.162,6.021l-0.001,0.001c-28.831,13.81-51.035,36.739-66.005,64.789
		c-14.974,28.052-22.736,61.229-22.737,95.646c0,33.878,7.524,68.963,23.138,101.551c36.472,76.177,106.376,115.037,177.775,115.021
		c21.237,0,42.609-3.432,63.279-10.33c7.03-2.347,17.472-5.493,27.619-9.021c5.076-1.766,10.081-3.627,14.567-5.541
		c4.488-1.917,8.453-3.878,11.487-5.89l0.233-0.155l0.162-0.229L460.117,367.38z"/>
	<path fill="#FFFFFF" d="M139.777,311.785c-14.517-10.558-21.616-28.108-21.485-45.69c-6.474,1.755-12.947,3.511-19.423,5.26
		c-0.115-0.339-0.234-0.674-0.352-1.016c6.351-0.824,12.698-1.659,19.049-2.484c-5.489-9.686,3.713-27.023,9.051-35.293
		c5.186-8.022,16.465-11.807,24.375-16.365c7.602-4.382,6.413-16.99-2.488-19.049c-2.968-0.685-5.377-0.469-8.345,0
		c-13.248,2.1-7.604,22.181,5.542,20.101c-0.912,0-1.827,0-2.74,0c-0.829-6.351-1.66-12.699-2.49-19.049
		c-14.221,8.199-26.758,14.399-35.112,29.261c-8.229,14.643-14.593,35.396-5.794,50.915c4.643,8.192,16.301,5.816,19.048-2.487
		c1.853-5.6,1.385-10.026-1.749-15.05c-5.449-8.733-19.345-5.287-19.42,5.259c-0.186,25.454,11.231,48.727,31.809,63.693
		C140.152,337.713,150.535,319.613,139.777,311.785z"/>
	<path fill="#FFFFFF" d="M149.6,213.863c7.566-7.564,20.403-7.657,30.427-8.637c11.892-1.162,23.537-4.475,35.323-5.759
		c7.59-0.828,14.885-6.329,16.261-14.413c1.926-11.286,3.826-18.982,11.613-27.975c14.817-17.123,38.408-26.307,60.751-25.803
		c25.475,0.577,50.616,22.464,58.91,45.732c4.48,12.565,24.621,7.153,20.105-5.543c-9.925-27.858-33.483-49.493-61.573-58.344
		c-24.784-7.81-53.496,0.441-74.691,13.871c-10.861,6.878-19.905,16.125-26.973,26.806c-3.053,4.612-5.259,9.896-7.016,15.118
		c-0.827,2.47-0.792,5.726-0.981,8.3c-0.418,5.68-2.678,2.088,1.771,1.604c-14.112,1.541-28.072,4.916-42.265,6.454
		c-13.266,1.438-26.629,4.085-36.394,13.847C125.347,208.636,140.083,223.375,149.6,213.863z"/>
	<path fill="#FFFFFF" d="M314.036,246.888c11.749,45.34-25.57,94.231-83.366,109.211c-57.797,14.987-114.173-9.618-125.925-54.953
		c-11.754-45.339,25.573-94.232,83.367-109.217C245.905,176.952,302.285,201.556,314.036,246.888z"/>
	<path fill="#FFFFFF" d="M314.036,246.888l-0.484,0.125c1.449,5.591,2.146,11.234,2.146,16.863c0,19.839-8.666,39.5-23.651,55.844
		c-14.984,16.343-36.283,29.358-61.502,35.895c-11.442,2.968-22.827,4.377-33.815,4.377c-22.162,0-42.713-5.734-58.879-15.973
		c-16.167-10.24-27.947-24.971-32.621-42.998c-1.45-5.592-2.147-11.237-2.147-16.867c-0.001-19.838,8.667-39.499,23.653-55.843
		c14.986-16.343,36.285-29.36,61.502-35.898c11.437-2.964,22.816-4.372,33.8-4.372c22.164,0,42.719,5.733,58.888,15.972
		c16.17,10.24,27.952,24.972,32.626,43L314.036,246.888l0.484-0.125c-4.743-18.301-16.711-33.244-33.06-43.594
		c-16.352-10.353-37.087-16.126-59.423-16.127c-11.07,0-22.533,1.418-34.051,4.404c-25.396,6.585-46.862,19.694-61.988,36.19
		c-15.125,16.494-23.916,36.384-23.917,56.519c0,5.713,0.708,11.443,2.179,17.117c4.743,18.301,16.707,33.243,33.054,43.593
		c16.348,10.353,37.08,16.127,59.414,16.128c11.074,0,22.543-1.421,34.066-4.408c25.397-6.584,46.862-19.692,61.987-36.188
		c15.124-16.493,23.914-36.384,23.915-56.52c0-5.711-0.708-11.44-2.178-17.114L314.036,246.888z"/>
	<path fill="#FFFFFF" d="M309.772,122.657c48.192,0,85.253,35.756,85.253,82.074c0,46.315-37.061,85.654-85.253,85.654
		c-48.187,0-87.255-37.549-87.255-83.863C222.518,160.204,261.586,122.657,309.772,122.657z"/>
	<path fill="#FFFFFF" d="M309.772,122.657v0.5c47.941,0.01,84.747,35.536,84.753,81.574c0,23.023-9.211,44.312-24.412,59.845
		c-15.201,15.533-36.382,25.308-60.341,25.309c-23.963,0-45.651-9.336-61.351-24.424c-15.699-15.09-25.403-35.925-25.404-58.939
		c0-23.017,9.705-43.851,25.404-58.941c15.7-15.088,37.388-24.423,61.351-24.423V122.657v-0.5c-24.225,0-46.162,9.438-62.044,24.703
		c-15.882,15.263-25.711,36.36-25.711,59.662c0,23.3,9.829,44.397,25.711,59.66c15.882,15.264,37.819,24.703,62.044,24.703
		c24.233,0.001,45.679-9.894,61.056-25.609c15.378-15.714,24.697-37.252,24.697-60.544c0.001-23.293-9.323-43.948-24.707-58.766
		c-15.384-14.82-36.825-23.808-61.046-23.808V122.657z"/>
	<path fill="#FFFFFF" d="M395.025,198.194c0,51.691-41.6,92.191-95.394,92.191c-53.788,0-97.4-41.918-97.4-93.609
		c0-51.696,43.612-93.604,97.4-93.604C353.421,103.172,395.025,146.498,395.025,198.194z"/>
	<path fill="#FFFFFF" d="M395.025,198.194h-1c-0.002,25.575-10.283,48.354-27.22,64.761c-16.938,16.404-40.529,26.429-67.174,26.43
		c-26.632,0-50.733-10.376-68.178-27.142c-17.444-16.768-28.221-39.907-28.222-65.467c0.001-25.563,10.778-48.701,28.222-65.467
		c17.445-16.763,41.545-27.137,68.178-27.137c53.233,0,94.391,42.869,94.394,94.021H395.025h1c0-26.119-10.512-50.127-27.815-67.601
		c-17.302-17.475-41.412-28.422-68.578-28.421c-27.155,0-51.755,10.58-69.563,27.695c-17.809,17.112-28.837,40.775-28.836,66.909
		c-0.001,26.13,11.027,49.795,28.836,66.91c17.809,17.116,42.407,27.699,69.563,27.699c27.149,0.001,51.255-10.225,68.565-26.993
		c17.312-16.765,27.83-40.082,27.828-66.198H395.025z"/>
	<ellipse fill="#FFFFFF" cx="202.237" cy="266.984" rx="114.519" ry="95.164"/>
	<path fill="#FFFFFF" d="M202.237,171.82v1c31.399-0.001,59.808,10.58,80.338,27.643c20.534,17.069,33.18,40.578,33.181,66.523
		c-0.001,25.944-12.646,49.452-33.181,66.521c-20.53,17.062-48.939,27.643-80.338,27.642c-31.398,0.001-59.807-10.579-80.338-27.642
		c-20.534-17.068-33.18-40.576-33.181-66.521c0.001-25.945,12.647-49.454,33.181-66.523c20.531-17.063,48.939-27.644,80.338-27.643
		V171.82v-1c-31.849,0.001-60.7,10.724-81.616,28.104c-20.914,17.375-33.904,41.448-33.902,68.061
		c-0.001,26.612,12.989,50.686,33.902,68.059c20.917,17.38,49.768,28.103,81.616,28.104c31.849-0.001,60.701-10.724,81.617-28.104
		c20.914-17.373,33.903-41.446,33.902-68.059c0.001-26.613-12.988-50.687-33.902-68.061c-20.916-17.38-49.768-28.104-81.617-28.104
		V171.82z"/>
	<path fill="#FFFFFF" d="M366.188,215.502c53.418,0,95.298,33.312,95.298,74.669s-41.88,75.096-95.298,75.096
		c-53.421,0-96.725-33.525-96.725-74.883S312.768,215.502,366.188,215.502z"/>
	<path fill="#FFFFFF" d="M366.188,215.502v1c26.501-0.001,50.112,8.267,67.062,21.611c16.953,13.352,27.233,31.728,27.235,52.058
		c-0.001,20.33-10.284,38.816-27.238,52.273c-16.951,13.45-40.561,21.823-67.06,21.822c-26.501,0.002-50.475-8.321-67.783-21.723
		c-17.312-13.41-27.94-31.844-27.941-52.16c0.001-20.316,10.629-38.75,27.941-52.16c17.309-13.402,41.282-21.724,67.783-21.723
		V215.502v-1c-26.92,0.001-51.309,8.441-69.007,22.142c-17.694,13.692-28.719,32.7-28.718,53.741
		c-0.001,21.041,11.023,40.049,28.718,53.741c17.698,13.7,42.087,22.14,69.007,22.142c26.919-0.001,50.958-8.497,68.302-22.256
		c17.341-13.751,27.997-32.812,27.996-53.84c0.002-21.027-10.657-39.986-27.999-53.629c-17.345-13.651-41.382-22.039-68.299-22.04
		V215.502z"/>
	<rect x="187.283" y="288.729" fill="#FFFFFF" width="178.9" height="71.759"/>
	<polygon fill="#FFFFFF" points="187.283,288.729 187.283,289.729 365.184,289.729 365.184,359.488 188.283,359.488 
		188.283,288.729 187.283,288.729 187.283,289.729 187.283,288.729 186.283,288.729 186.283,361.488 367.184,361.488 
		367.184,287.729 186.283,287.729 186.283,288.729 	"/>
	<path fill="#72CEE2" d="M312.184,246.549c11.79,45.471-25.641,94.505-83.602,109.524c-57.96,15.027-114.501-9.647-126.282-55.104
		c-11.788-45.465,25.646-94.497,83.603-109.526C243.86,176.418,300.406,201.089,312.184,246.549z"/>
	<ellipse fill="#72CEE2" cx="307.914" cy="206.069" rx="87.508" ry="84.103"/>
	<path fill="#010101" d="M395.422,196.296h-1.5c-0.001,25.492-10.746,48.566-28.148,65.294
		c-17.403,16.725-41.449,27.077-68.03,27.077c-26.578,0-50.623-10.353-68.026-27.077c-17.401-16.729-28.147-39.802-28.148-65.294
		c0.001-25.495,10.748-48.568,28.15-65.296c17.403-16.724,41.448-27.076,68.024-27.076c26.581,0,50.627,10.352,68.03,27.076
		c17.402,16.728,28.147,39.802,28.148,65.296H395.422h1.5c0.001-26.35-11.119-50.212-29.069-67.459
		c-17.949-17.251-42.743-27.914-70.109-27.913c-27.361,0-52.153,10.662-70.103,27.913c-17.951,17.248-29.072,41.11-29.071,67.459
		c-0.001,26.347,11.12,50.209,29.069,67.458c17.949,17.251,42.741,27.914,70.104,27.914c27.366,0,52.16-10.663,70.109-27.914
		c17.95-17.248,29.07-41.11,29.069-67.458H395.422z"/>
	<path fill="#010101" d="M200.069,171.267v1.5c31.377-0.001,59.758,10.574,80.252,27.607c20.499,17.042,33.096,40.478,33.098,66.331
		c-0.002,25.852-12.599,49.287-33.098,66.328c-20.494,17.033-48.875,27.608-80.252,27.606
		c-31.378,0.002-59.758-10.573-80.252-27.606c-20.499-17.041-33.095-40.477-33.097-66.328c0.002-25.853,12.599-49.29,33.097-66.331
		c20.494-17.033,48.875-27.608,80.252-27.607V171.267v-1.5c-32.053,0.001-61.097,10.791-82.17,28.299
		c-21.069,17.5-34.182,41.783-34.18,68.639c-0.002,26.854,13.111,51.136,34.18,68.636c21.073,17.508,50.117,28.297,82.17,28.299
		c32.052-0.002,61.097-10.791,82.17-28.299c21.068-17.5,34.182-41.781,34.18-68.636c0.002-26.856-13.111-51.138-34.18-68.639
		c-21.073-17.508-50.118-28.298-82.17-28.299V171.267z"/>
	<path fill="#72CEE2" d="M364.483,215.073c53.573,0,97.003,33.625,97.003,75.099c0,41.477-43.43,75.099-97.003,75.099
		c-53.569,0-97-33.622-97-75.099C267.483,248.698,310.914,215.073,364.483,215.073z"/>
	<path fill="#010101" d="M364.483,215.073v1.5c26.473-0.002,50.412,8.315,67.673,21.683c8.632,6.683,15.593,14.622,20.391,23.404
		c4.798,8.784,7.438,18.406,7.439,28.512c-0.001,10.106-2.642,19.729-7.439,28.513c-7.194,13.173-19.266,24.452-34.523,32.432
		c-15.256,7.979-33.686,12.655-53.54,12.654c-26.471,0.002-50.41-8.314-67.67-21.682c-8.632-6.683-15.593-14.622-20.391-23.404
		c-4.798-8.784-7.438-18.406-7.439-28.513c0.001-10.105,2.642-19.728,7.439-28.512c7.194-13.173,19.266-24.452,34.523-32.432
		c15.255-7.98,33.685-12.656,53.537-12.655V215.073v-1.5c-27.099,0.002-51.66,8.497-69.507,22.311
		c-8.922,6.908-16.167,15.151-21.187,24.338c-5.02,9.185-7.808,19.318-7.807,29.95c-0.001,10.632,2.787,20.767,7.807,29.951
		c7.531,13.781,20.061,25.436,35.766,33.651c15.707,8.215,34.604,12.995,54.928,12.996c27.101-0.003,51.662-8.496,69.51-22.31
		c8.922-6.908,16.167-15.15,21.187-24.338c5.02-9.185,7.808-19.319,7.807-29.951c0.001-10.632-2.787-20.766-7.807-29.95
		c-7.531-13.781-20.061-25.436-35.766-33.651c-15.708-8.215-34.605-12.997-54.931-12.997V215.073z"/>
	<rect x="185.076" y="288.513" fill="#72CEE2" width="179.408" height="71.965"/>
	<polygon fill="#010101" points="185.076,288.513 185.076,290.013 362.983,290.013 362.983,358.978 186.576,358.978 
		186.576,288.513 185.076,288.513 185.076,290.013 185.076,288.513 183.576,288.513 183.576,361.978 365.983,361.978 
		365.983,287.013 183.576,287.013 183.576,288.513 	"/>
	<path fill="#72CEE2" d="M386.857,203.668c-23.263-3.472-51.062,0.451-72.66,9.599c-7.288-10.677-17.635-17.993-28.402-25.022
		c-6.627-4.327-12.652-9.12-19.658-12.904c-5.761-3.111-13.274-3.069-18.221-7.676c-4.154-3.883-11.513-4.588-15.573,0
		c-0.198,0.228-0.364,0.444-0.55,0.672c-1.792,1.264-3.316,3.022-4.245,5.331c-0.526,1.306-1.052,2.613-1.575,3.912
		c-4.099,10.202,7.83,15.834,15.804,11.791c6.964,3.376,14.603,5.401,21.405,9.598c5.455,3.354,10.408,7.479,15.776,10.982
		c3.55,2.19,6.891,4.66,10.027,7.411l2.769,2.93c-17.124,11.036-31.75,28.632-34.137,49.084
		c-9.432-5.548-18.06-12.319-25.818-20.299c-12.863-13.23-16.633-29.234-19.052-46.56c2.223-6.418-1.099-14.985-9.979-14.985
		c-1.314,0-2.46,0.239-3.523,0.577c-5.267,0.228-9.926,3.644-9.062,10.374c3.072,23.871,7.527,43.137,22.807,62.404
		c6.031,7.608,13.399,14.129,21.438,19.801c-9.354-0.633-18.667-1.666-27.926-3.311c-4.966-0.879-10.128-1.316-14.895-0.606
		c-1.892-0.022-3.832,0.366-5.671,1.303c-1.153,0.588-2.136,1.182-3.011,1.796c-2.508,1.588-4.708,3.788-6.443,6.83
		c-2.603,4.56-1.883,8.692,0.453,11.618c-0.806,0.757-1.428,1.71-1.73,2.834c-0.509,1.918-0.574,3.922-0.581,5.885
		c-0.004,3.764,2.707,5.768,5.626,6.049c-1.61,7.617-3.596,15.241-2.817,22.901c-7.161,4.403-7.285,18.665,2.745,20.256
		c15.985,2.537,30.979,3.488,46.755-0.783c12.609-3.417,9.002-20.449-2.929-21.513c-7.108-0.626-14.229-1.002-21.275-2.198
		c-6.938-1.186-2.652-7.41-1.401-12.675c1.496-6.275,2.566-13.186,2.615-19.999c3.45,0.626,6.858,1.39,10.364,1.749
		c14.489,1.505,28.95,2.481,43.523,2.615c0.113,0,0.213-0.018,0.332-0.018l0.19,0.018c0.235,0,0.437-0.057,0.658-0.065
		c0.233-0.019,0.461-0.035,0.689-0.062c3.715-0.41,6.349-2.363,7.839-5.021c0.903,0.364,1.799,0.759,2.701,1.111
		c2.848,1.089,5.306,0.922,7.332,0.031c11.2,2.217,25.537-0.212,35.396-0.39c8.09-0.139,16.196-0.039,24.294-0.039h16.13
		c-0.022,16.722,3.148,34.015,1.169,50.459c-0.029,0.196,0,0.36-0.012,0.56c-0.981-0.24-1.967-0.469-2.93-0.648
		c-5.614-1.044-11.088-2.487-16.452-4.435c-5.727-2.086-8.179,6.987-2.511,9.046c1.882,0.689,3.776,1.264,5.672,1.795
		c6.435,2.7,13.209,4.234,20.183,4.523c2.711,0.459,5.407,0.743,8.162,0.532c0.389,0.102,0.801,0.16,1.244,0.16h0.795
		c2.349,0,3.777-1.4,4.304-3.121c0.204-0.529,0.333-1.088,0.323-1.672c1.676-1.688,2.891-3.91,3.233-6.745
		c1.922-15.986-2.641-31.725-1.392-47.822c0.623-8.048,0.649-22.148-10.408-23.739c-16.853-2.424-34.811-0.886-51.82-0.755
		c-9.106,0.063-18.194,0.362-27.312,0.208c-1.958-0.452-3.321-0.648-4.223-0.648c-1.443-3.009-2.074-6.249-1.272-9.681
		c2.738-11.56,14.531-23.521,24.512-29.363c1.691-0.992,3.435-2.108,5.089-3.344c2.909,1.567,6.5,1.987,10.254,0.219
		c17.034-8.036,47.991-12.414,66.809-9.607C394.711,225.907,391.274,204.668,386.857,203.668z"/>
	<path fill="#FFFFFF" d="M222.025,162.198c-0.672,0.024-1.319,0.218-1.91,0.588c-1.366-0.681-3.01-0.69-4.515-0.018
		c-0.49,0.168-0.945,0.428-1.356,0.751c-2.58-1.208-5.725-0.919-7.002,2.564c-1.076,2.196-1.867,3.792-2.451,6.667
		c-2.177-0.132-4.985,0.153-7.208,0.167c-2.509,0.018-3.175,1.404-3.777,3.241c-2.018,0.997-3.548,2.402-3.96,4.473
		c-1.505,2.411-2.356,9.69,1.017,8.968c0.724-0.157,1.854-0.417,2.963-0.661c0.642-0.137-4.177,0.915,2.29-0.458
		c0.144-0.007,0.284-0.02,0.416-0.037c1.378-0.111,2.745-0.314,4.116-0.463c8.314-0.917,5.364-1.695,6.003-4.447
		c0.755-0.1,1.507-0.201,2.251-0.345c1.54-0.301,2.557-1.375,3.129-2.681c0.434-0.233,0.856-0.486,1.263-0.873
		c1.005-0.957,1.927-1.999,2.859-3.029c1.237,3.569,6.831,5.386,9.351,1.138c1.598-2.688,2.034-5.87,3.625-8.532
		C231.769,164.821,226.105,159.326,222.025,162.198z"/>
	<path fill="#74CFE4" d="M208.56,191.404c-0.722-2.613-3.266-3.746-5.776-3.275c-1.832,0.342-4.305,0.4-6.405,0.881
		c-2.494,0.569-3.934,3.388-3.279,5.771c0.698,2.548,3.283,3.854,5.777,3.279c1.942-0.444,4.216-0.467,6.404-0.878
		C207.8,196.714,209.192,193.716,208.56,191.404z"/>
	<path fill="#74CFE4" d="M234.904,168.9c-2.117-1.242-5.249-0.588-6.418,1.683c-1.088,2.113-1.994,4.31-2.77,6.55
		c-0.845,2.416,0.934,5.128,3.275,5.772c2.594,0.716,4.935-0.863,5.774-3.274c0.54-1.562,1.07-2.834,1.825-4.306
		C237.767,173.048,237.197,170.244,234.904,168.9z"/>
	<path fill="#1E99B5" d="M410.795,284.33c-3.714,41.367-42.955,43.264-76.157,38.793c-7.957-1.077-11.389,11.085-3.356,12.175
		c42.462,5.718,87.573-0.12,92.138-50.968C424.141,276.22,411.516,276.293,410.795,284.33z"/>
	<path fill="#72CEE2" d="M212.47,351.471c-3.637,2.464-8.369,1.685-12.53,1.647c-4.484-0.043-4.479,6.905,0,6.947
		c5.452,0.048,11.283,0.627,16.035-2.597C219.66,354.971,216.191,348.947,212.47,351.471z"/>
	<path fill="#72CEE2" d="M204.013,353.352c-6.638,0.101-13.244-0.139-19.852-0.575c-5.656-0.374-5.462,6.576,0.136,6.946
		c6.608,0.438,13.214,0.677,19.852,0.575C209.834,360.21,209.693,353.264,204.013,353.352z"/>
	<path fill="#72CEE2" d="M183.151,359.102c4.481,0,4.481-6.947,0-6.947C178.669,352.154,178.667,359.102,183.151,359.102z"/>
	<path fill="#72CEE2" d="M367.062,356.582c-4.477,0.43-8.823,0.945-13.317,0.58c-5.183-0.426-10.321-2.297-15.291-3.732
		c-4.312-1.249-6.141,5.453-1.845,6.703c10.577,3.062,19.434,4.459,30.442,3.404C371.481,363.104,371.518,356.152,367.062,356.582z"
		/>
</g>
</svg>
