<?xml version="1.0" encoding="utf-8"?>
<!-- Generator: Adobe Illustrator 15.1.0, SVG Export Plug-In . SVG Version: 6.00 Build 0)  -->
<!DOCTYPE svg PUBLIC "-//W3C//DTD SVG 1.1//EN" "http://www.w3.org/Graphics/SVG/1.1/DTD/svg11.dtd">
<svg version="1.1" id="Layer_1" xmlns="http://www.w3.org/2000/svg" xmlns:xlink="http://www.w3.org/1999/xlink" x="0px" y="0px"
	 width="250px" height="250px" viewBox="0 0 250 250" enable-background="new 0 0 250 250" xml:space="preserve">
<g>
	<g>
		<path fill="#FFFFFF" d="M225.549,171.547c-4.977,3.305-16.785,6.666-22.84,8.687c-38.338,12.793-82.328-2.464-102.467-44.505
			c-20.141-42.045-8.647-93.895,27.803-111.354c1.605-0.768,4.379-1.933,6.02-2.56l-0.17-0.225c-9.439,1.33-18.836,4.111-27.89,8.45
			c-47.572,22.786-67.618,79.915-44.776,127.593c22.842,47.683,79.921,67.864,127.492,45.072
			c15.414-7.384,27.938-18.368,37.051-31.472L225.549,171.547z"/>
	</g>
	<path fill="#FDE145" d="M225.594,171.635c-4.938,3.279-16.654,6.613-22.658,8.618c-38.035,12.692-81.673-2.445-101.653-44.152
		C81.3,94.388,92.703,42.953,128.865,25.63c1.59-0.764,4.342-1.918,5.969-2.538l-0.166-0.225
		c-9.366,1.32-16.523,10.576-25.16,15.528C63.921,64.542,49.4,109.229,68.614,156.158c19.517,47.675,72.552,64.955,120.445,46.389
		c15.807-6.128,27.715-18.224,36.754-31.223L225.594,171.635z"/>
	<g>
		<path fill="none" stroke="#000000" stroke-width="2" stroke-miterlimit="10" d="M225.549,171.547
			c-4.977,3.305-16.785,6.666-22.84,8.687c-38.338,12.793-82.328-2.464-102.467-44.505c-20.141-42.045-8.647-93.895,27.803-111.354
			c1.605-0.768,4.379-1.933,6.02-2.56l-0.17-0.225c-9.439,1.33-18.836,4.111-27.89,8.45
			c-47.572,22.786-67.618,79.915-44.776,127.593c22.842,47.683,79.921,67.864,127.492,45.072
			c15.414-7.384,27.938-18.368,37.051-31.472L225.549,171.547z"/>
	</g>
</g>
</svg>
