<?xml version="1.0" encoding="utf-8"?>
<!-- Generator: Adobe Illustrator 15.1.0, SVG Export Plug-In . SVG Version: 6.00 Build 0)  -->
<!DOCTYPE svg PUBLIC "-//W3C//DTD SVG 1.1//EN" "http://www.w3.org/Graphics/SVG/1.1/DTD/svg11.dtd">
<svg version="1.1" id="Layer_1" xmlns="http://www.w3.org/2000/svg" xmlns:xlink="http://www.w3.org/1999/xlink" x="0px" y="0px"
	 width="500px" height="500px" viewBox="0 0 500 500" enable-background="new 0 0 500 500" xml:space="preserve">
<g>
	<path fill="#FFFFFF" d="M458.019,380.3c-11.663,7.744-39.335,15.621-53.521,20.356c-89.84,29.978-192.925-5.774-240.117-104.289
		c-47.197-98.518-20.263-220.024,65.152-260.936c3.761-1.799,10.262-4.529,14.106-5.999l-0.397-0.527
		c-22.116,3.117-44.135,9.634-65.356,19.801C66.406,102.102,19.432,235.973,72.958,347.695
		c53.526,111.735,187.284,159.025,298.759,105.617c36.122-17.306,65.471-43.043,86.822-73.75L458.019,380.3z"/>
</g>
<path fill="#FCE146" d="M457.804,380.506c-11.665,7.686-39.354,15.496-53.539,20.194c-89.877,29.743-192.988-5.728-240.198-103.459
	c-47.225-97.748-22.721-219.861,62.729-260.455c3.757-1.789,11.509-5.318,15.353-6.771l0,0
	c-22.132,3.093-38.243,26.666-58.653,38.271C75.774,129.556,41.462,234.27,86.864,344.239
	c46.119,111.718,171.441,152.21,284.609,108.703c37.356-14.358,65.488-42.707,86.849-73.165L457.804,380.506z"/>
<g>
	<path fill="none" stroke="#010101" stroke-width="4" stroke-miterlimit="10" d="M458.019,380.3
		c-11.662,7.744-39.334,15.621-53.521,20.356c-89.837,29.978-192.919-5.774-240.11-104.289
		c-47.196-98.518-20.263-220.024,65.15-260.936c3.762-1.799,10.262-4.529,14.105-5.999l-0.397-0.527
		c-22.116,3.117-44.133,9.634-65.354,19.801C66.416,102.102,19.442,235.973,72.968,347.695
		c53.524,111.735,187.278,159.025,298.751,105.617c36.121-17.306,65.469-43.043,86.82-73.75L458.019,380.3z"/>
</g>
</svg>
