<?xml version="1.0" encoding="utf-8"?>
<!-- Generator: Adobe Illustrator 15.1.0, SVG Export Plug-In . SVG Version: 6.00 Build 0)  -->
<!DOCTYPE svg PUBLIC "-//W3C//DTD SVG 1.1//EN" "http://www.w3.org/Graphics/SVG/1.1/DTD/svg11.dtd">
<svg version="1.1" id="Layer_1" xmlns="http://www.w3.org/2000/svg" xmlns:xlink="http://www.w3.org/1999/xlink" x="0px" y="0px"
	 width="250px" height="250px" viewBox="0 0 250 250" enable-background="new 0 0 250 250" xml:space="preserve">
<g>
	<g>
		<g>
			<path fill="#FFFFFF" d="M54.228,140.21c-7.942-5.713-11.949-15.369-11.834-24.979c-2.795,0.757-5.59,1.514-8.386,2.271
				c-0.028,0.076-0.057,0.154-0.085,0.231c2.742-0.358,5.483-0.718,8.225-1.075c-3.108-5.232,1.554-14.418,4.363-19.016
				c2.946-4.82,8.971-6.914,13.636-9.613c3.277-1.896,2.773-7.335-1.075-8.225c-1.379-0.319-2.488-0.219-3.871,0
				c-5.72,0.906-3.283,9.578,2.393,8.679c-0.305,0-0.61,0-0.915,0c-0.358-2.742-0.717-5.483-1.075-8.225
				C48.169,84.56,41.577,87.74,37.3,95.598c-3.966,7.29-7.488,17.92-2.925,25.604c2.098,3.531,6.946,2.502,8.225-1.074
				c0.945-2.644,0.744-4.826-0.822-7.168c-2.439-3.65-8.33-2.373-8.386,2.271c-0.155,12.985,5.734,25.155,16.292,32.75
				C54.407,151.378,58.893,143.565,54.228,140.21L54.228,140.21z"/>
		</g>
	</g>
	<g>
		<g>
			<path fill="#FFFFFF" d="M59.207,86.957c4.025-4.101,10.791-4.268,16.169-4.792c6.41-0.625,12.675-2.35,19.025-3.077
				c4.357-0.499,7.1-3.428,7.996-7.757c0.629-3.036,0.543-5.438,1.992-8.293c1.376-2.709,3.271-5.053,5.352-7.246
				c8.254-8.705,20.869-13.308,32.74-12.646c13.422,0.747,26.633,12.469,30.957,24.805c1.904,5.44,10.603,3.1,8.678-2.393
				c-4.916-14.031-16.77-24.934-30.709-29.761c-12.789-4.428-27.719-0.456-38.883,6.34c-5.531,3.367-10.179,7.896-13.938,13.136
				c-1.903,2.652-3.259,5.682-4.347,8.746c-0.525,1.484-0.467,3.382-0.566,4.935c0.016,0.668-0.214,1.256-0.688,1.763
				c1.733-0.6,1.905-0.775,0.516-0.524c-7.371,0.844-14.662,2.573-22.08,3.378C64.71,74.3,57.753,75.59,52.842,80.595
				C48.777,84.737,55.137,91.104,59.207,86.957L59.207,86.957z"/>
		</g>
	</g>
	<ellipse fill="#FFFFFF" cx="87.011" cy="115.167" rx="61.068" ry="50.751"/>
	<ellipse fill="#FFFFFF" cx="138.098" cy="79.394" rx="51.548" ry="49.542"/>
	<path fill="#72CDE2" d="M145.719,104.917c6.22,23.993-13.534,49.87-44.121,57.797c-30.588,7.934-60.426-5.088-66.645-29.08
		c-6.221-23.992,13.535-49.873,44.121-57.802C109.659,67.903,139.5,80.924,145.719,104.917z"/>
	<ellipse fill="#72CDE2" cx="143.465" cy="83.552" rx="46.181" ry="44.382"/>
	
		<ellipse fill="none" stroke="#000000" stroke-width="2" stroke-miterlimit="10" cx="138.098" cy="78.392" rx="51.548" ry="49.542"/>
	<path fill="none" stroke="#000000" stroke-width="2" stroke-miterlimit="10" d="M147.159,115.55
		c0,27.817-27.137,50.369-60.609,50.369c-33.474,0-60.609-22.552-60.609-50.369c0-27.814,27.135-50.366,60.609-50.366
		C120.022,65.184,147.159,87.734,147.159,115.55z"/>
	
		<ellipse fill="#72CDE2" stroke="#000000" stroke-width="2" stroke-miterlimit="10" cx="173.319" cy="127.934" rx="51.192" ry="39.633"/>
	
		<rect x="78.636" y="127.058" fill="#72CDE2" stroke="#000000" stroke-width="2" stroke-miterlimit="10" width="94.682" height="37.98"/>
	<path fill="#72CDE2" d="M182.526,82.231c-12.213-1.832-24.808,0.29-36.142,5.116c-3.824-5.634-9.259-9.495-14.909-13.204
		c-3.48-2.284-6.64-4.814-10.32-6.811c-3.025-1.641-6.972-1.62-9.564-4.05c-2.182-2.049-6.045-2.422-8.175,0
		c-0.104,0.119-0.19,0.234-0.289,0.354c-0.942,0.667-1.741,1.596-2.228,2.814c-0.277,0.689-0.553,1.379-0.828,2.064
		c-2.15,5.383,4.111,8.356,8.297,6.222c3.658,1.782,7.662,2.849,11.238,5.065c2.864,1.77,5.465,3.947,8.28,5.796
		c1.865,1.156,3.617,2.459,5.267,3.911l1.451,1.546c-8.986,5.824-16.666,15.111-17.919,25.902c-4.95-2.927-9.479-6.5-13.552-10.711
		c-6.752-6.982-8.732-15.427-10-24.571c1.167-3.386-0.576-7.908-5.238-7.908c-0.689,0-1.289,0.126-1.85,0.303
		c-2.764,0.12-5.21,1.923-4.758,5.476c1.613,12.598,3.951,22.764,11.972,32.935c3.167,4.016,7.034,7.454,11.254,10.446
		c-4.909-0.336-9.797-0.877-14.657-1.746c-2.606-0.463-5.318-0.694-7.82-0.32c-0.992-0.008-2.012,0.195-2.977,0.691
		c-0.605,0.312-1.121,0.623-1.582,0.949c-1.316,0.838-2.471,1.997-3.382,3.604c-1.366,2.406-0.989,4.59,0.238,6.131
		c-0.423,0.4-0.75,0.904-0.909,1.496c-0.268,1.011-0.301,2.068-0.307,3.105c-0.002,1.987,1.423,3.045,2.955,3.191
		c-0.847,4.02-1.887,8.046-1.479,12.086c-3.76,2.325-3.825,9.848,1.438,10.689c8.393,1.341,16.265,1.841,24.545-0.412
		c6.619-1.805,4.725-10.795-1.539-11.354c-3.73-0.333-7.467-0.528-11.166-1.162c-3.643-0.624-1.393-3.911-0.737-6.687
		c0.786-3.312,1.349-6.961,1.372-10.555c1.812,0.328,3.602,0.731,5.439,0.924c7.606,0.795,15.196,1.311,22.846,1.377
		c0.06,0,0.115-0.008,0.176-0.008c0.035,0,0.062,0.008,0.098,0.008c0.125,0,0.229-0.027,0.348-0.034
		c0.121-0.009,0.242-0.017,0.359-0.033c1.953-0.214,3.338-1.246,4.116-2.647c0.472,0.193,0.945,0.4,1.417,0.584
		c1.493,0.574,2.785,0.49,3.854,0.018c5.875,1.173,13.402-0.111,18.578-0.203c4.248-0.074,8.502-0.021,12.752-0.021h8.47
		c-0.013,8.824,1.651,17.951,0.612,26.631c-0.015,0.104,0,0.189-0.006,0.294c-0.517-0.125-1.031-0.247-1.539-0.343
		c-2.943-0.551-5.818-1.312-8.634-2.342c-3.007-1.102-4.294,3.688-1.317,4.776c0.988,0.362,1.98,0.665,2.979,0.947
		c3.381,1.427,6.936,2.233,10.596,2.391c1.424,0.243,2.836,0.39,4.284,0.276c0.204,0.052,0.419,0.087,0.655,0.087h0.415
		c1.231,0,1.983-0.739,2.264-1.646c0.104-0.281,0.171-0.574,0.164-0.881c0.877-0.889,1.521-2.066,1.7-3.562
		c1.011-8.439-1.381-16.745-0.727-25.239c0.324-4.247,0.34-11.689-5.467-12.529c-8.846-1.279-18.271-0.469-27.201-0.397
		c-4.78,0.034-9.554,0.19-14.336,0.108c-1.031-0.236-1.746-0.342-2.218-0.345c-0.761-1.586-1.095-3.299-0.669-5.106
		c1.436-6.101,7.631-12.412,12.865-15.494c0.891-0.521,1.807-1.111,2.673-1.767c1.524,0.829,3.413,1.05,5.381,0.118
		c8.942-4.241,20.14-6.679,30.019-5.198C186.743,94.47,189.877,83.334,182.526,82.231z"/>
	<path fill="#73CEE4" d="M91.03,75.813c-0.379-1.379-1.722-1.978-3.049-1.729c-0.967,0.18-2.271,0.21-3.377,0.464
		c-1.318,0.301-2.078,1.789-1.732,3.047c0.369,1.343,1.734,2.033,3.05,1.73c1.024-0.235,2.228-0.247,3.378-0.464
		C90.629,78.614,91.364,77.031,91.03,75.813z"/>
	<path fill="#73CEE4" d="M104.933,63.935c-1.117-0.655-2.77-0.31-3.386,0.888c-0.575,1.115-1.052,2.275-1.462,3.457
		c-0.447,1.275,0.492,2.706,1.729,3.046c1.368,0.378,2.604-0.455,3.047-1.728c0.285-0.824,0.562-1.496,0.963-2.272
		C106.442,66.124,106.144,64.643,104.933,63.935z"/>
	<path fill="#1A98B5" d="M197.759,124.851c-1.96,21.83-22.667,22.834-40.191,20.475c-4.197-0.566-6.012,5.85-1.771,6.422
		c22.409,3.021,46.216-0.061,48.623-26.896C204.804,120.571,198.141,120.61,197.759,124.851z"/>
	<g>
		<g>
			<path fill="#FFFFFF" d="M88.968,69.28c-1.166,0.1-2.334,0.15-3.5,0.25c0.482,0.633,0.964,1.266,1.445,1.899
				c0.607-1.92,1.584-1.937,3.025-2.92c1.271-0.866,1.959-2.117,2.824-3.347c-0.932-0.252-1.863-0.504-2.795-0.757
				c0.061,0.635,0.148,1.232,0.125,1.875c-0.053,1.439,1.616,1.808,2.561,1.061c0.699-0.552,1.303-1.197,2-1.75
				c-0.834-0.221-1.67-0.441-2.506-0.662c0.098,0.47,0.256,0.91,0.375,1.375c0.303,1.202,1.663,1.317,2.506,0.662
				c0.328-0.197,0.643-0.411,0.946-0.64c-0.752-0.432-1.504-0.864-2.257-1.295c0.062,0.25,0.062,0.5,0,0.75
				c-0.113,0.907,1.057,1.792,1.898,1.446c0.771-0.316,1.422-0.667,2.108-1.151c-0.733-0.565-1.469-1.129-2.202-1.694
				c-0.117,0.256-0.232,0.511-0.35,0.767c-0.792,1.5,1.109,3.026,2.355,1.817c0.303-0.327,0.637-0.619,1-0.875
				c-0.854-0.354-1.707-0.707-2.561-1.061c-0.023,0.159-0.048,0.317-0.07,0.476c-0.523,1.867,2.371,2.658,2.893,0.798
				c0.123-0.439,0.164-0.817,0.179-1.274c0.046-1.443-1.61-1.803-2.562-1.061c-0.363,0.256-0.697,0.548-1,0.875
				c0.785,0.606,1.57,1.212,2.356,1.817c0.265-0.5,0.459-0.952,0.651-1.483c0.435-1.205-1.148-2.438-2.203-1.694
				c-0.432,0.336-0.895,0.619-1.393,0.849c0.633,0.482,1.267,0.964,1.899,1.446c0.062-0.25,0.062-0.5,0-0.75
				c-0.125-0.995-1.226-2.042-2.257-1.295c-0.52,0.376-1.046,0.716-1.555,1.11c0.836,0.221,1.672,0.441,2.508,0.662
				c-0.118-0.464-0.277-0.905-0.375-1.375c-0.254-1.218-1.698-1.301-2.508-0.662c-0.698,0.552-1.301,1.197-2,1.75
				c0.854,0.354,1.707,0.707,2.562,1.061c0.024-0.663-0.062-1.209-0.125-1.875c-0.146-1.509-1.909-2.016-2.795-0.757
				c-0.433,0.614-0.972,1.958-1.692,2.236c-0.758,0.292-1.441,0.609-2.117,1.073c-1.276,0.878-1.891,2.245-2.342,3.674
				c-0.277,0.877,0.486,1.981,1.446,1.899c1.166-0.1,2.334-0.15,3.5-0.25C90.881,72.115,90.896,69.114,88.968,69.28L88.968,69.28z"
				/>
		</g>
	</g>
	<g>
		<g>
			<path fill="#FFFFFF" d="M98.653,66.966c0.571-0.371,1.143-0.743,1.713-1.114c-0.614-0.615-1.229-1.23-1.844-1.845
				c-1.291,6.826-10.941,7.197-16.43,7.774c-1.904,0.2-1.923,3.202,0,3c6.891-0.725,17.719-1.5,19.32-9.976
				c0.201-1.057-0.674-2.221-1.844-1.845c-1.262,0.405-2.099,0.953-3.037,1.886C95.157,66.209,97.28,68.33,98.653,66.966
				L98.653,66.966z"/>
		</g>
	</g>
	<g>
		<g>
			<path fill="#72CDE2" d="M184.048,87.662c0.281,0.636,0.062,1.354-0.15,1.969c0.981,0.133,1.963,0.266,2.945,0.399
				c0.005-0.11,0.007-0.22,0.006-0.331c0.014-0.092,0.268-0.618,0.055-0.359c-0.854-0.354-1.707-0.707-2.561-1.061
				c-0.042,0.743-0.479,1.516-0.695,2.226c-0.568,1.855,2.328,2.642,2.893,0.798c0.31-1.014,0.742-1.95,0.804-3.024
				c0.069-1.247-1.731-2.071-2.562-1.061c-0.684,0.832-0.912,1.746-0.938,2.811c-0.045,1.769,2.407,1.939,2.946,0.399
				c0.511-1.46,0.476-2.87-0.151-4.281c-0.332-0.748-1.405-0.917-2.052-0.539C183.823,86.057,183.716,86.915,184.048,87.662
				L184.048,87.662z"/>
		</g>
	</g>
	<g>
		<g>
			<path fill="#72CDE2" d="M174.319,163.46c-5.043,0.981-10.683-0.324-15.22-2.6c-1.724-0.865-3.243,1.723-1.514,2.59
				c5.303,2.66,11.646,4.048,17.53,2.9C177.015,165.982,176.209,163.091,174.319,163.46L174.319,163.46z"/>
		</g>
	</g>
	<g>
		<g>
			<path fill="#72CDE2" d="M76.093,164.155c7.895,0.955,15.65,1.212,23.523-0.055c1.906-0.307,1.095-3.195-0.797-2.893
				c-7.593,1.221-15.125,0.866-22.727-0.054C74.175,160.923,74.196,163.927,76.093,164.155L76.093,164.155z"/>
		</g>
	</g>
</g>
<g>
	<path fill="#008EB4" d="M123.913,201.215c-11.599,4.494-33.046,14.901-26.34,31.075c2.353,5.48,8.029,9.347,14.374,8.708
		c9.044-1.046,11.916-13.398,12.433-20.222C125.069,214.08,125.499,207.725,123.913,201.215"/>
	<g>
		<path fill="#231F20" d="M123.714,200.491c-13.438,5.269-38.983,19.739-23.632,36.846c6.364,7.092,16.494,5.212,21.124-2.353
			c5.612-9.171,5.599-23.963,3.431-33.969c-0.205-0.945-1.65-0.545-1.446,0.398c1.907,8.803,1.385,18.898-1.088,27.581
			c-1.196,4.199-3.41,8.21-7.301,10.406c-5.876,3.316-12.987-1.336-15.979-6.255c-9.404-15.458,14.4-26.939,25.291-31.209
			C125.002,201.589,124.615,200.138,123.714,200.491L123.714,200.491z"/>
	</g>
</g>
<g>
	<path fill="#008EB4" d="M175.69,175.609c-11.6,4.494-33.047,14.902-26.34,31.076c2.35,5.479,8.025,9.346,14.371,8.707
		c9.047-1.046,11.918-13.394,12.436-20.221C176.843,188.475,177.272,182.12,175.69,175.609"/>
	<g>
		<path fill="#231F20" d="M175.491,174.887c-13.438,5.268-38.981,19.736-23.635,36.845c6.363,7.093,16.494,5.212,21.125-2.351
			c5.615-9.172,5.596-23.963,3.432-33.971c-0.205-0.945-1.65-0.545-1.447,0.398c1.904,8.803,1.387,18.9-1.088,27.584
			c-1.195,4.199-3.41,8.209-7.301,10.404c-5.877,3.314-12.986-1.334-15.979-6.256c-9.4-15.459,14.398-26.938,25.291-31.209
			C176.778,175.983,176.392,174.533,175.491,174.887L175.491,174.887z"/>
	</g>
</g>
<g>
	<path fill="#008EB4" d="M81.703,171.656c-11.601,4.494-33.049,14.902-26.342,31.076c2.353,5.479,8.029,9.346,14.374,8.707
		c9.047-1.046,11.918-13.394,12.434-20.221C82.857,184.521,83.29,178.167,81.703,171.656"/>
	<g>
		<path fill="#231F20" d="M81.504,170.934c-13.438,5.268-38.986,19.738-23.635,36.845c6.364,7.091,16.495,5.213,21.125-2.351
			c5.612-9.168,5.599-23.968,3.432-33.971c-0.205-0.945-1.651-0.545-1.446,0.398c1.907,8.801,1.383,18.902-1.088,27.584
			c-1.195,4.199-3.411,8.209-7.302,10.404c-5.877,3.314-12.987-1.335-15.98-6.256c-9.404-15.459,14.402-26.939,25.293-31.209
			C82.792,172.031,82.405,170.58,81.504,170.934L81.504,170.934z"/>
	</g>
</g>
<g>
	<g>
		<path fill="#C2E6EE" d="M160.881,203.801c-5.209-3.954-2.632-9.917,2.574-12.211c1.768-0.778,0.239-3.362-1.514-2.59
			c-7.611,3.353-9.377,12.228-2.574,17.391C160.909,207.562,162.4,204.954,160.881,203.801L160.881,203.801z"/>
	</g>
</g>
<g>
	<g>
		<path fill="#C2E6EE" d="M102.618,220.267c-1.91,3.412-1.625,6.728,0.644,9.879c1.119,1.555,3.723,0.06,2.591-1.514
			c-1.64-2.278-2.059-4.323-0.644-6.852C106.154,220.091,103.563,218.578,102.618,220.267L102.618,220.267z"/>
	</g>
</g>
<g>
	<g>
		<path fill="#C2E6EE" d="M64.143,198.17c-0.912-4.333,2.522-7.07,5.747-9.246c1.594-1.075,0.094-3.676-1.515-2.59
			c-4.478,3.021-8.353,6.8-7.125,12.633C61.648,200.859,64.54,200.057,64.143,198.17L64.143,198.17z"/>
	</g>
</g>
<path fill="#1B98B5" d="M54.945,133.936c-9.01-17.974,6.662-28.752,21.469-35.366c3.552-1.587,1.869-7.467-1.715-5.868
	c-18.938,8.459-36.024,22.355-24.949,44.449C51.514,140.679,56.695,137.431,54.945,133.936z"/>
</svg>
