<?xml version="1.0" encoding="utf-8"?>
<!-- Generator: Adobe Illustrator 15.1.0, SVG Export Plug-In . SVG Version: 6.00 Build 0)  -->
<!DOCTYPE svg PUBLIC "-//W3C//DTD SVG 1.1//EN" "http://www.w3.org/Graphics/SVG/1.1/DTD/svg11.dtd">
<svg version="1.1" id="Layer_1" xmlns="http://www.w3.org/2000/svg" xmlns:xlink="http://www.w3.org/1999/xlink" x="0px" y="0px"
	 width="500px" height="500px" viewBox="0 0 500 500" enable-background="new 0 0 500 500" xml:space="preserve">
<g id="Layer_3">
</g>
<g id="Layer_2">
</g>
<g>
	<path fill="#FFFFFF" d="M93.22,258.766c-17.311-12.453-26.043-33.497-25.792-54.441c-6.093,1.65-12.184,3.3-18.278,4.95
		c-0.061,0.165-0.125,0.334-0.185,0.504c5.976-0.783,11.949-1.566,17.926-2.344c-6.773-11.403,3.387-31.424,9.509-41.446
		c6.421-10.505,19.553-15.067,29.72-20.951c7.142-4.132,6.043-15.986-2.344-17.927c-3.005-0.694-5.422-0.476-8.437,0
		c-12.466,1.976-7.154,20.876,5.215,18.917c-0.665,0-1.329,0-1.994,0c-0.779-5.976-1.562-11.95-2.342-17.926
		c-16.205,9.376-30.572,16.307-39.894,33.433c-8.644,15.889-16.319,39.057-6.374,55.803c4.572,7.695,15.138,5.453,17.925-2.34
		c2.061-5.763,1.622-10.519-1.792-15.622c-5.315-7.956-18.155-5.172-18.277,4.949c-0.338,28.301,12.498,54.824,35.508,71.379
		C93.609,283.104,103.387,266.074,93.22,258.766z"/>
	<path fill="#FFFFFF" d="M104.072,142.701c8.772-8.938,23.518-9.302,35.239-10.444c13.97-1.362,27.625-5.121,41.464-6.706
		c9.497-1.087,15.474-7.473,17.428-16.907c1.37-6.616,1.183-11.852,4.341-18.075c2.998-5.904,7.128-11.011,11.664-15.791
		c17.99-18.972,45.481-29.005,71.354-27.562c29.254,1.627,58.047,27.176,67.471,54.061c4.148,11.856,23.113,6.757,18.915-5.215
		c-10.714-30.58-36.554-54.343-66.931-64.863c-27.871-9.651-60.416-0.995-84.745,13.818c-12.055,7.338-22.185,17.209-30.377,28.63
		c-4.149,5.78-7.104,12.382-9.475,19.062c-1.144,3.234-1.018,7.371-1.233,10.754c0.036,1.457-0.466,2.739-1.499,3.843
		c3.777-1.308,4.151-1.689,1.124-1.142c-16.065,1.839-31.956,5.607-48.123,7.362c-14.626,1.589-29.789,4.4-40.493,15.308
		C81.34,137.863,95.2,151.739,104.072,142.701z"/>
	<ellipse fill="#FFFFFF" cx="164.669" cy="204.44" rx="133.097" ry="110.357"/>
	<ellipse fill="#FFFFFF" cx="276.01" cy="124.472" rx="112.353" ry="109.722"/>
	<path fill="#72CEE2" d="M292.62,181.845c13.56,52.292-29.495,108.69-96.161,125.967c-66.666,17.295-131.697-11.09-145.252-63.38
		c-13.558-52.29,29.5-108.697,96.161-125.979C214.03,101.173,279.068,129.552,292.62,181.845z"/>
	<path fill="#72CEE2" d="M287.711,38.547c55.588,0,99.289,43.308,99.289,96.73c0,53.421-43.701,96.729-99.289,96.729
		c-55.591,0-100.653-43.308-100.653-96.729C187.058,81.855,232.12,38.547,287.711,38.547z"/>
	<path fill="#010101" d="M276.01,16.057v1.5c30.633,0,58.348,11.931,78.405,31.208c20.058,19.28,32.445,45.879,32.446,75.268
		c-0.001,29.39-12.39,55.989-32.446,75.27c-20.059,19.277-47.772,31.207-78.405,31.208c-30.632,0-58.345-11.931-78.403-31.208
		c-20.057-19.28-32.445-45.88-32.446-75.27c0.001-29.389,12.389-55.988,32.446-75.268c20.058-19.277,47.771-31.208,78.403-31.208
		V16.057v-1.5c-31.417,0-59.878,12.241-80.482,32.044c-20.605,19.8-33.368,47.188-33.367,77.431
		c-0.001,30.244,12.762,57.633,33.367,77.433c20.604,19.804,49.065,32.044,80.482,32.044c31.418,0,59.88-12.241,80.484-32.044
		c20.604-19.8,33.368-47.188,33.367-77.433c0.001-30.243-12.763-57.631-33.367-77.431c-20.604-19.803-49.066-32.045-80.484-32.044
		V16.057L276.01,16.057z"/>
	<path fill="#424143" d="M276.01,16.057h-1.5v3h1.5c30.24,0,57.58,11.775,77.366,30.789c19.783,19.02,31.983,45.225,31.985,74.187
		c-0.002,28.962-12.202,55.167-31.985,74.188c-19.786,19.014-47.126,30.788-77.366,30.789
		c-30.239-0.001-57.578-11.775-77.363-30.789c-19.783-19.021-31.983-45.226-31.985-74.188c0.002-28.961,12.202-55.167,31.985-74.187
		c19.785-19.014,47.124-30.789,77.363-30.789h1.5v-3v-2.998l-1.498-0.002h-0.004c-31.809,0-60.643,12.396-81.52,32.463
		c-20.878,20.059-33.828,47.839-33.827,78.507v0.003v0.028l1.5-0.026l-1.5-0.02v0.023c-0.001,30.67,12.949,58.452,33.827,78.511
		c20.877,20.067,49.712,32.463,81.521,32.463c31.811,0,60.646-12.396,81.522-32.463c20.879-20.059,33.829-47.84,33.828-78.511
		v-0.001h-1.468l1.466,0.079l0.002-0.079h-1.468l1.466,0.079l0.002-0.04v-0.041v-0.021l-1.367,0.018h1.367v-0.018l-1.367,0.018
		h1.367c0.001-30.669-12.949-58.45-33.828-78.509c-20.877-20.066-49.712-32.463-81.521-32.463h-0.018l-1.484,0.015v2.985H276.01h1.5
		v-1.5h-1.5l0.016,1.5l-0.014-1.312v1.312h0.014l-0.014-1.312v1.312c31.024,0,59.112,12.086,79.443,31.626
		c20.33,19.539,32.905,46.532,32.906,76.346v0.021l1.365-0.018h-1.365v0.018l1.365-0.018h-1.365h1.5l-1.498-0.081l-0.002,0.083
		v0.001c-0.001,29.815-12.576,56.809-32.906,76.348c-20.332,19.54-48.42,31.625-79.445,31.626
		c-31.024,0-59.111-12.085-79.442-31.626c-20.33-19.539-32.905-46.532-32.906-76.348h-1.236l1.236,0.016v-0.016h-1.236l1.236,0.016
		v-0.023v-0.022l-1.348,0.023h1.348v-0.023l-1.348,0.023h1.348v-0.003c0.001-29.813,12.577-56.806,32.906-76.344
		c20.331-19.54,48.417-31.626,79.44-31.626v-0.229v0.229l0,0v-0.229v0.229l0.002-1.5h-1.5v1.5v1.5h1.5V16.057
		c-31.024,0-59.111,12.086-79.442,31.626s-32.907,46.534-32.906,76.35c0,29.817,12.575,56.811,32.906,76.351
		s48.418,31.626,79.442,31.626c31.025,0,59.113-12.086,79.444-31.626c20.332-19.54,32.907-46.534,32.907-76.351
		c0-29.816-12.575-56.81-32.907-76.35C335.123,28.143,307.035,16.056,276.01,16.057v1.5h1.5v-1.5H276.01z"/>
	<path fill="#010101" d="M295.762,205.019h-1.5c-0.002,29.812-14.529,56.834-38.15,76.471
		c-23.616,19.628-56.308,31.81-92.445,31.808c-36.141,0.002-68.833-12.18-92.448-31.808c-23.619-19.637-38.146-46.659-38.148-76.471
		c0.002-29.809,14.529-56.829,38.148-76.465c23.616-19.628,56.307-31.809,92.448-31.807c36.138-0.001,68.83,12.178,92.445,31.806
		c23.621,19.636,38.148,46.656,38.15,76.467L295.762,205.019l1.5,0.001c0.002-30.813-15.043-58.68-39.232-78.774
		c-24.195-20.103-57.551-32.497-94.363-32.499c-36.815,0.001-70.172,12.396-94.366,32.5c-24.189,20.095-39.232,47.961-39.23,78.772
		c-0.002,30.815,15.041,58.683,39.23,78.778c24.194,20.104,57.55,32.498,94.366,32.5c36.812-0.002,70.168-12.396,94.363-32.5
		c24.189-20.096,39.234-47.963,39.232-78.778H295.762z"/>
	<path fill="#424143" d="M295.762,205.019v-1.5h-3v1.5c-0.004,29.311-14.273,55.909-37.609,75.317
		c-23.324,19.389-55.681,31.463-91.479,31.461h-0.004h-0.037l0.032,1.5v-1.5v0.664l0.003-0.664h-0.003v0.664l0.003-0.664h-0.012
		c-35.8,0.002-68.157-12.072-91.48-31.461c-23.334-19.408-37.603-46.006-37.607-75.317c0.004-29.308,14.272-55.904,37.607-75.312
		c23.325-19.389,55.682-31.462,91.483-31.46h0.002l0.001-1.152l-0.012,1.152h0.011l0.001-1.152l-0.012,1.152h0.01h0.011h0.001
		c35.798-0.002,68.155,12.071,91.48,31.459c23.337,19.407,37.605,46.003,37.609,75.313v1.5h3h3v-1.5v-0.015l-1.104,0.009h1.104
		v-0.009l-1.104,0.009h1.104c0.002-31.313-15.301-59.599-39.775-79.922c-24.482-20.34-58.17-32.842-95.32-32.845
		c-37.153,0.003-70.842,12.505-95.324,32.846c-24.474,20.323-39.773,48.609-39.772,79.92v0.012v-0.003v-0.004v0.007
		c-0.001,31.314,15.298,59.602,39.772,79.926c24.482,20.342,58.171,32.843,95.324,32.847c37.149-0.004,70.838-12.505,95.322-32.847
		c24.474-20.324,39.775-48.611,39.773-79.926v-0.013l-1.437,0.011l1.434,0.09l0.003-0.101l-1.437,0.011l1.434,0.09l0.101-1.594
		h-3.098V205.019v1.5h1.5v-1.5l-1.496-0.094l-0.004,0.097v0.013l1.303-0.01h-1.303v0.01l1.303-0.01h-1.303
		c-0.002,30.311-14.789,57.754-38.691,77.618c-23.906,19.866-56.93,32.154-93.404,32.154c-36.479,0-69.502-12.288-93.407-32.152
		c-23.902-19.865-38.688-47.309-38.689-77.62v-0.004v-0.004v-0.003l0,0c0.001-30.308,14.787-57.75,38.689-77.613
		c23.905-19.866,56.929-32.154,93.407-32.154c36.475,0,69.499,12.287,93.404,32.152c23.902,19.863,38.689,47.305,38.691,77.614
		v0.014l1.104-0.008H295.762v0.008l1.104-0.008H295.762h1.5v-1.5h-1.5h-1.5v1.5H295.762c0-30.312-14.787-57.755-38.691-77.62
		c-23.904-19.864-56.925-32.151-93.398-32.152h-0.012l0.005,1.5l0.016-1.5h-0.022c-36.476,0.001-69.497,12.289-93.401,32.153
		c-23.904,19.866-38.689,47.31-38.689,77.619c0,30.313,14.785,57.758,38.689,77.624c23.903,19.864,56.923,32.152,93.398,32.154
		v-0.668l-0.003,0.668h0.003v-0.668l-0.003,0.668h0.012h0.017h0.015l-0.028-1.298v1.298h0.028l-0.028-1.298v1.298h0.004
		c36.472-0.002,69.492-12.29,93.396-32.154C280.975,262.777,295.762,235.332,295.762,205.019h-1.5v1.5h1.5V205.019z"/>
	<ellipse fill="#72CEE2" cx="352.776" cy="232.008" rx="111.57" ry="86.38"/>
	<path fill="#010101" d="M352.776,145.628v1.5c30.495-0.002,58.076,9.578,77.975,24.986c9.949,7.703,17.978,16.857,23.513,26.99
		c5.535,10.134,8.583,21.24,8.584,32.903c-0.001,11.663-3.049,22.771-8.584,32.903c-8.301,15.197-22.219,28.199-39.803,37.396
		c-17.58,9.195-38.812,14.582-61.685,14.582c-30.496,0.002-58.079-9.578-77.978-24.988c-9.949-7.702-17.978-16.857-23.513-26.989
		c-5.536-10.134-8.584-21.24-8.585-32.903c0.001-11.664,3.049-22.77,8.585-32.903c8.301-15.198,22.219-28.199,39.803-37.395
		c17.581-9.196,38.814-14.582,61.688-14.581V145.628v-1.5c-31.124,0.002-59.328,9.759-79.812,25.614
		c-10.241,7.928-18.553,17.387-24.31,27.923c-5.757,10.535-8.953,22.152-8.952,34.342c-0.001,12.189,3.195,23.808,8.952,34.343
		c8.637,15.805,23.014,29.183,41.045,38.614c18.033,9.433,39.732,14.923,63.077,14.925c31.123-0.004,59.327-9.761,79.811-25.615
		c10.241-7.93,18.553-17.389,24.311-27.924c5.756-10.535,8.951-22.153,8.95-34.343c0.001-12.189-3.194-23.807-8.95-34.342
		c-8.639-15.806-23.015-29.183-41.046-38.614c-18.032-9.431-39.731-14.922-63.074-14.923L352.776,145.628L352.776,145.628z"/>
	<path fill="#424143" d="M352.776,145.628h-1.5v3.006l1.506-0.006h0.006c30.176-0.002,57.443,9.489,77.045,24.672
		c9.804,7.59,17.69,16.593,23.114,26.523c5.425,9.934,8.397,20.783,8.399,32.184c-0.002,11.4-2.976,22.25-8.399,32.185
		c-8.133,14.894-21.821,27.707-39.183,36.785c-17.353,9.078-38.351,14.412-60.982,14.412v1.077l0.004-1.077h-0.004v1.077
		l0.004-1.077h-0.055l0.045,1.5v-1.5v0.541l0.003-0.541h-0.003v0.541l0.003-0.541h-0.014c-30.178,0.002-57.447-9.49-77.049-24.674
		c-9.805-7.591-17.689-16.595-23.113-26.523c-5.425-9.935-8.399-20.783-8.401-32.185c0.002-11.401,2.977-22.25,8.401-32.184
		c8.131-14.894,21.82-27.707,39.182-36.785c17.354-9.078,38.353-14.411,60.988-14.41h0.005l-0.004-1.447l-0.062,1.446l0.066,0.001
		l-0.004-1.447l-0.062,1.446l1.564,0.067v-3.065v-3h-1.5c-31.438,0.005-59.953,9.85-80.73,25.928
		c-10.387,8.041-18.84,17.651-24.708,28.39c-5.867,10.734-9.136,22.604-9.135,35.055v0.006v0.036l1.5-0.036l-1.5-0.012v0.018
		c-0.001,12.451,3.269,24.322,9.135,35.056c8.805,16.107,23.412,29.674,41.667,39.225c18.26,9.549,40.193,15.094,63.772,15.096
		c31.437-0.006,59.951-9.852,80.729-25.93c10.387-8.042,18.84-17.652,24.708-28.393c5.866-10.732,9.136-22.604,9.135-35.054v-0.002
		h-1.417l1.416,0.047l0.001-0.047h-1.417l1.416,0.047l0.001-0.024v-0.025v-0.015l-1.157,0.009h1.157v-0.01l-1.157,0.009h1.157
		c0.001-12.451-3.269-24.322-9.135-35.056c-8.806-16.109-23.411-29.675-41.666-39.224c-18.26-9.549-40.192-15.093-63.771-15.094
		h-1.5v3L352.776,145.628l1.5,0.001v-1.5h-1.5V145.628c23.106,0,44.572,5.438,62.38,14.752s31.954,22.502,40.424,38.004
		c5.645,10.333,8.767,21.693,8.768,33.617v0.015l1.156-0.009h-1.156v0.009l1.156-0.009h-1.156h1.5l-1.499-0.05l-0.001,0.053v0.002
		c-0.001,11.924-3.123,23.285-8.768,33.618c-5.646,10.334-13.815,19.642-23.911,27.456c-20.19,15.633-48.083,25.301-78.893,25.303
		c-23.108,0-44.575-5.438-62.382-14.754c-17.809-9.314-31.955-22.503-40.424-38.006c-5.645-10.332-8.767-21.693-8.768-33.617h-0.821
		l0.821,0.007v-0.007h-0.821l0.821,0.007v-0.024v-0.024l-1.37,0.033l1.371-0.003v-0.03l-1.37,0.033l1.371-0.003h-0.13h0.13l0,0
		h-0.13h0.13c0.001-11.924,3.123-23.284,8.768-33.617c5.646-10.334,13.816-19.641,23.912-27.457
		C294.073,155.296,321.966,145.628,352.776,145.628v-1.5h-1.5v1.5v1.5h1.5l0.063-1.499l-0.061-0.001h-0.012l0.005,1.218v-1.218
		h-0.005l0.005,1.218v-1.218c-23.106,0-44.572,5.439-62.38,14.752c-17.808,9.314-31.955,22.502-40.423,38.004
		c-5.646,10.333-8.769,21.696-8.769,33.623c0,11.926,3.122,23.289,8.769,33.622c5.646,10.335,13.815,19.643,23.911,27.458
		c20.188,15.631,48.078,25.298,78.885,25.302v-0.557l-0.002,0.557h0.002v-0.557l-0.002,0.557h0.013h0.022l0.021-0.002l-0.042-1.396
		v1.396l0.042-0.001l-0.042-1.396v1.396v-1.081l-0.004,1.081h0.004v-1.081l-0.004,1.081h0.007
		c23.104-0.001,44.568-5.438,62.374-14.753c17.808-9.314,31.954-22.504,40.424-38.006c5.646-10.333,8.768-21.696,8.768-33.622
		c0-11.926-3.122-23.289-8.768-33.623c-5.646-10.334-13.816-19.641-23.911-27.457c-20.188-15.63-48.076-25.297-78.881-25.3h-0.019
		l0.007,1.5h1.5v-1.5h-1.498V145.628z"/>
	<rect x="146.416" y="230.1" fill="#72CEE2" width="206.36" height="82.774"/>
	<polygon fill="#010101" points="146.416,230.1 146.416,231.6 351.276,231.6 351.276,311.374 147.916,311.374 147.916,230.1 
		146.416,230.1 146.416,231.6 146.416,230.1 144.916,230.1 144.916,314.374 354.276,314.374 354.276,228.6 144.916,228.6 
		144.916,230.1 	"/>
	<polygon fill="#424143" points="146.416,230.1 144.916,230.1 144.916,233.1 349.776,233.1 349.776,309.874 149.416,309.874 
		149.416,228.6 144.916,228.6 144.916,231.6 147.916,231.6 147.916,228.6 143.416,228.6 143.416,315.874 355.776,315.874 
		355.776,227.1 143.416,227.1 143.416,231.6 146.416,231.6 146.416,230.1 144.916,230.1 146.416,230.1 146.416,228.6 144.916,228.6 
		144.916,230.1 352.776,230.1 352.776,312.874 146.416,312.874 146.416,231.6 146.416,231.6 146.416,230.1 144.916,230.1 
		144.916,231.6 147.916,231.6 147.916,230.1 146.416,230.1 146.416,312.874 352.776,312.874 352.776,230.1 146.416,230.1 
		146.416,231.6 147.916,231.6 147.916,228.6 146.416,228.6 	"/>
	<path fill="#72CEE2" d="M372.842,132.401c-26.618-3.993-54.073,0.632-78.773,11.149c-8.332-12.279-20.18-20.693-32.493-28.778
		c-7.58-4.977-14.471-10.492-22.49-14.844c-6.593-3.575-15.196-3.53-20.845-8.827c-4.756-4.465-13.174-5.279-17.818,0
		c-0.225,0.26-0.413,0.51-0.628,0.771c-2.054,1.454-3.794,3.479-4.856,6.133c-0.605,1.502-1.206,3.006-1.805,4.499
		c-4.686,11.733,8.959,18.212,18.083,13.562c7.972,3.884,16.699,6.21,24.493,11.039c6.24,3.858,11.912,8.603,18.048,12.632
		c4.06,2.52,7.878,5.359,11.478,8.524l3.16,3.369c-19.582,12.694-36.319,32.934-39.049,56.453
		c-10.79-6.379-20.66-14.167-29.539-23.344c-14.716-15.218-19.031-33.623-21.795-53.552c2.544-7.381-1.256-17.236-11.416-17.236
		c-1.502,0-2.809,0.275-4.031,0.661c-6.024,0.261-11.355,4.189-10.371,11.935c3.517,27.456,8.611,49.613,26.094,71.781
		c6.902,8.753,15.33,16.246,24.528,22.768c-10.701-0.732-21.354-1.911-31.945-3.805c-5.681-1.01-11.592-1.511-17.044-0.697
		c-2.162-0.018-4.384,0.424-6.488,1.505c-1.318,0.68-2.442,1.358-3.448,2.067c-2.869,1.828-5.385,4.353-7.371,7.856
		c-2.978,5.243-2.155,10.003,0.519,13.362c-0.922,0.872-1.635,1.969-1.981,3.261c-0.584,2.206-0.656,4.508-0.669,6.768
		c-0.004,4.329,3.101,6.637,6.44,6.953c-1.847,8.763-4.113,17.536-3.224,26.341c-8.195,5.066-8.337,21.464,3.134,23.296
		c18.292,2.923,35.45,4.015,53.496-0.896c14.427-3.938,10.298-23.531-3.354-24.745c-8.129-0.728-16.273-1.152-24.335-2.533
		c-7.941-1.358-3.037-8.524-1.606-14.574c1.714-7.219,2.94-15.171,2.99-23.008c3.949,0.715,7.851,1.591,11.854,2.02
		c16.578,1.731,33.12,2.855,49.792,3c0.132,0,0.25-0.02,0.384-0.02l0.213,0.02c0.273,0,0.5-0.059,0.76-0.075
		c0.263-0.018,0.525-0.039,0.781-0.071c4.256-0.466,7.275-2.716,8.972-5.769c1.028,0.419,2.058,0.872,3.086,1.272
		c3.255,1.252,6.07,1.069,8.398,0.04c12.808,2.56,29.21-0.237,40.491-0.438c9.258-0.161,18.531-0.046,27.793-0.046h18.46
		c-0.029,19.228,3.598,39.123,1.334,58.042c-0.03,0.227,0,0.408-0.015,0.639c-1.129-0.272-2.245-0.535-3.354-0.745
		c-6.413-1.204-12.679-2.86-18.815-5.106c-6.56-2.404-9.359,8.037-2.87,10.409c2.151,0.785,4.313,1.446,6.492,2.063
		c7.368,3.109,15.116,4.863,23.095,5.212c3.104,0.526,6.182,0.849,9.335,0.6c0.446,0.115,0.916,0.19,1.426,0.19h0.902
		c2.681,0,4.318-1.609,4.938-3.586c0.226-0.612,0.374-1.252,0.358-1.922c1.91-1.937,3.312-4.5,3.703-7.763
		c2.204-18.393-3.014-36.493-1.593-55.006c0.706-9.254,0.746-25.474-11.916-27.304c-19.278-2.787-39.818-1.024-59.28-0.867
		c-10.416,0.076-20.824,0.415-31.246,0.235c-2.243-0.511-3.807-0.745-4.832-0.752c-1.661-3.457-2.389-7.189-1.461-11.129
		c3.135-13.297,16.632-27.051,28.039-33.768c1.94-1.137,3.938-2.421,5.826-3.851c3.321,1.806,7.438,2.288,11.729,0.256
		c19.488-9.242,49.631-14.667,71.13-11.235C385.667,159,387.833,134.5,372.842,132.401z"/>
	<path fill="#74CFE4" d="M173.427,118.413c-0.826-3.007-3.753-4.312-6.645-3.768c-2.107,0.391-4.949,0.457-7.36,1.01
		c-2.874,0.656-4.529,3.899-3.776,6.642c0.805,2.927,3.78,4.431,6.648,3.77c2.231-0.512,4.856-0.539,7.362-1.011
		C172.555,124.518,174.155,121.067,173.427,118.413z"/>
	<path fill="#74CFE4" d="M203.73,92.525c-2.434-1.428-6.038-0.676-7.379,1.935c-1.253,2.431-2.293,4.958-3.186,7.534
		c-0.975,2.779,1.072,5.898,3.769,6.639c2.981,0.824,5.675-0.992,6.64-3.766c0.621-1.796,1.225-3.26,2.099-4.953
		C207.019,97.295,206.371,94.067,203.73,92.525z"/>
	<path fill="#FFFFFF" d="M168.933,105.465c-2.541,0.218-5.087,0.326-7.628,0.545c1.05,1.378,2.101,2.759,3.149,4.138
		c1.324-4.185,3.452-4.221,6.593-6.363c2.771-1.888,4.271-4.615,6.155-7.295c-2.032-0.549-4.06-1.098-6.092-1.649
		c0.134,1.383,0.323,2.686,0.272,4.086c-0.116,3.136,3.523,3.941,5.583,2.312c1.521-1.204,2.838-2.608,4.357-3.814
		c-1.817-0.482-3.639-0.961-5.461-1.443c0.214,1.025,0.558,1.983,0.818,2.997c0.66,2.62,3.622,2.87,5.461,1.442
		c0.715-0.428,1.4-0.896,2.061-1.395c-1.638-0.941-3.277-1.882-4.918-2.822c0.135,0.545,0.135,1.091,0,1.635
		c-0.246,1.978,2.304,3.906,4.137,3.152c1.681-0.689,3.1-1.453,4.594-2.509c-1.598-1.231-3.201-2.46-4.799-3.691
		c-0.254,0.557-0.507,1.113-0.763,1.672c-1.726,3.269,2.417,6.595,5.133,3.959c0.66-0.712,1.387-1.348,2.179-1.907
		c-1.86-0.771-3.72-1.54-5.581-2.312c-0.051,0.348-0.104,0.691-0.152,1.038c-1.14,4.069,5.166,5.792,6.304,1.739
		c0.269-0.957,0.358-1.78,0.391-2.777c0.099-3.145-3.51-3.929-5.584-2.312c-0.79,0.558-1.519,1.194-2.18,1.907
		c1.712,1.321,3.421,2.642,5.134,3.961c0.579-1.09,1.001-2.075,1.419-3.233c0.949-2.625-2.501-5.312-4.8-3.691
		c-0.942,0.732-1.95,1.349-3.035,1.85c1.378,1.051,2.761,2.102,4.137,3.152c0.136-0.544,0.136-1.09,0-1.635
		c-0.271-2.168-2.672-4.45-4.918-2.822c-1.134,0.819-2.281,1.56-3.39,2.418c1.822,0.483,3.645,0.961,5.466,1.443
		c-0.257-1.01-0.603-1.973-0.818-2.997c-0.554-2.655-3.699-2.836-5.465-1.443c-1.522,1.204-2.835,2.607-4.359,3.814
		c1.861,0.771,3.72,1.541,5.584,2.312c0.052-1.445-0.135-2.635-0.273-4.086c-0.318-3.289-5.379-4.125-7.31-1.382
		c-0.68,1.405-0.917,4.75-1.75,4.5c-1.665,0.247-4.944-0.262-6.417,0.75c-2.781,1.915-3.038,6.586-4.021,9.701
		c-0.604,1.912,1.06,4.318,3.152,4.139c2.541-0.218,5.087-0.326,7.628-0.545C173.104,111.645,173.137,105.104,168.933,105.465z"/>
	<path fill="#FFFFFF" d="M190.044,99.13c1.244-0.808,2.49-1.619,3.733-2.427c-1.337-1.342-2.68-2.682-4.02-4.021
		c-2.812,14.876-23.846,15.686-35.809,16.943c-4.149,0.437-4.19,6.979,0,6.539c15.019-1.58,38.619-3.269,42.107-21.743
		c0.438-2.304-1.469-4.84-4.018-4.02c-2.752,0.882-4.575,2.076-6.619,4.109C182.423,97.481,187.048,102.103,190.044,99.13z"/>
	<path fill="#72CEE2" d="M374.955,144.237c0.613,1.387,0.137,2.951-0.322,4.292c2.137,0.29,4.277,0.58,6.415,0.87
		c0.013-0.239,0.018-0.479,0.018-0.721c0.031-0.2,0.585-1.347,0.117-0.782c-1.858-0.772-3.718-1.541-5.584-2.313
		c-0.089,1.62-1.044,3.305-1.512,4.852c-1.234,4.043,5.073,5.758,6.311,1.739c0.679-2.21,1.614-4.25,1.752-6.591
		c0.148-2.717-3.772-4.514-5.582-2.312c-1.49,1.814-1.984,3.806-2.044,6.127c-0.104,3.855,5.241,4.226,6.418,0.869
		c1.111-3.182,1.041-6.255-0.326-9.33c-0.725-1.63-3.063-1.999-4.477-1.175C374.467,140.739,374.233,142.609,374.955,144.237z"/>
	<path fill="#72CEE2" d="M356.004,308.746c-11.918,2.139-25.244-0.707-35.967-5.667c-4.08-1.886-7.665,3.756-3.584,5.646
		c12.537,5.797,27.523,8.823,41.426,6.316C362.377,314.243,360.475,307.941,356.004,308.746z"/>
	<path fill="#72CEE2" d="M140.871,310.17c17.208,2.1,34.109,2.666,51.27-0.122c4.154-0.676,2.387-7.021-1.737-6.362
		c-16.55,2.688-32.965,1.905-49.534-0.121C136.694,303.066,136.74,309.671,140.871,310.17z"/>
	<path fill="#1C9BB5" d="M116.206,268.316c-37.534-31.249-19.073-71.54,10.834-95.15c6.969-5.505-2.962-17.275-9.608-11.247
		c-35.245,31.97-55.351,79.423-9.219,117.83C115.573,285.879,123.505,274.389,116.206,268.316z"/>
	<path fill="#3094B8" d="M248.43,392.207c-25.278,9.798-72.022,32.477-57.408,67.728c5.129,11.941,17.5,20.373,31.329,18.979
		c19.711-2.279,25.973-29.2,27.098-44.075C250.947,420.245,251.889,406.392,248.43,392.207"/>
	<path d="M247.888,390.809c-11.054,4.287-26.197,11.013-38.681,20.247c-6.241,4.621-11.826,9.874-15.882,15.816
		c-4.054,5.936-6.576,12.598-6.573,19.896c-0.001,4.382,0.908,8.976,2.885,13.741l0.004,0.009l0.003,0.01
		c2.493,5.801,6.606,10.8,11.755,14.359c5.147,3.56,11.343,5.679,17.965,5.679c1.037,0,2.083-0.053,3.138-0.158l0.014-0.001
		l0.008-0.001c5.259-0.604,9.666-2.884,13.229-6.139c5.352-4.889,8.892-11.9,11.25-19.079c2.353-7.183,3.511-14.553,3.94-20.234
		l-1.495-0.113l1.491,0.153c0.746-7.256,1.357-14.363,1.358-21.456c0-7.204-0.634-14.396-2.412-21.686l-2.915,0.711
		c1.708,7.008,2.326,13.943,2.326,20.975c0,6.919-0.6,13.926-1.342,21.148l-0.002,0.021l-0.001,0.02
		c-0.547,7.3-2.385,17.618-6.441,26.236c-2.024,4.312-4.597,8.188-7.78,11.087c-3.19,2.899-6.957,4.839-11.554,5.375l0.172,1.49
		l-0.15-1.492c-0.954,0.096-1.9,0.144-2.837,0.144c-5.978,0-11.575-1.909-16.259-5.146c-4.683-3.236-8.44-7.803-10.704-13.076
		l-1.378,0.592l1.386-0.573c-1.84-4.441-2.656-8.626-2.656-12.594c0.002-6.597,2.256-12.637,6.051-18.204
		c5.686-8.347,14.868-15.534,24.697-21.389c9.826-5.856,20.28-10.395,28.473-13.568L247.888,390.809z"/>
	<path fill="#3395B7" d="M361.277,336.4c-25.285,9.793-72.029,32.473-57.412,67.727c5.125,11.943,17.49,20.371,31.324,18.979
		c19.717-2.282,25.975-29.195,27.104-44.075C363.791,364.438,364.725,350.588,361.277,336.4"/>
	<path d="M360.735,335.002c-11.058,4.285-26.201,11.008-38.687,20.242c-6.241,4.621-11.826,9.874-15.883,15.816
		c-4.055,5.937-6.576,12.598-6.573,19.896c-0.001,4.383,0.908,8.978,2.886,13.745l0.006,0.012l0.002,0.006
		c2.49,5.803,6.603,10.801,11.75,14.36c5.146,3.559,11.342,5.677,17.966,5.677c1.036,0,2.083-0.052,3.138-0.158l0.014-0.001
		l0.01-0.001c5.26-0.604,9.668-2.885,13.23-6.139c5.354-4.888,8.894-11.899,11.252-19.076c2.354-7.183,3.513-14.553,3.945-20.236
		l-1.496-0.113l1.492,0.152c0.743-7.25,1.353-14.353,1.353-21.438c0.001-7.208-0.632-14.403-2.403-21.698l-2.916,0.709
		c1.704,7.014,2.319,13.955,2.319,20.989c0.001,6.914-0.597,13.915-1.337,21.133l-0.002,0.019l-0.002,0.021
		c-0.55,7.301-2.388,17.62-6.443,26.237c-2.024,4.311-4.598,8.188-7.781,11.085c-3.19,2.898-6.958,4.839-11.558,5.376l0.174,1.49
		l-0.15-1.492c-0.954,0.096-1.9,0.143-2.837,0.143c-5.98,0-11.576-1.908-16.26-5.145c-4.683-3.235-8.438-7.801-10.698-13.076
		l-1.379,0.592l1.386-0.574c-1.841-4.441-2.656-8.628-2.657-12.597c0.003-6.596,2.257-12.637,6.051-18.204
		c5.688-8.346,14.868-15.534,24.698-21.387c9.826-5.856,20.281-10.394,28.478-13.565L360.735,335.002z"/>
	<path fill="#231F20" d="M360.844,334.822c-29.287,11.482-84.955,43.016-51.514,80.309c13.867,15.461,35.947,11.354,46.041-5.129
		c12.238-19.988,12.199-52.229,7.479-74.039c-0.444-2.061-3.592-1.188-3.151,0.869c4.147,19.188,3.024,41.188-2.371,60.118
		c-2.603,9.146-7.435,17.893-15.91,22.673c-12.811,7.218-28.307-2.907-34.828-13.637c-20.482-33.693,31.381-58.713,55.123-68.021
		C363.648,337.211,362.807,334.053,360.844,334.822z"/>
	<path fill="#0092B7" d="M156.435,327.783c-25.284,9.797-72.03,32.477-57.412,67.73c5.128,11.94,17.499,20.368,31.328,18.978
		c19.718-2.284,25.975-29.196,27.1-44.077C158.95,355.822,159.894,341.975,156.435,327.783"/>
	<path d="M155.893,326.385c-11.056,4.287-26.201,11.012-38.686,20.246c-6.242,4.621-11.826,9.874-15.883,15.816
		c-4.055,5.936-6.576,12.598-6.574,19.896c-0.001,4.384,0.908,8.978,2.886,13.745l0.004,0.01l0.003,0.009
		c2.492,5.801,6.606,10.8,11.755,14.358c5.147,3.56,11.344,5.677,17.966,5.677c1.036,0,2.082-0.052,3.135-0.157l0.011-0.001
		l0.012-0.001c5.26-0.604,9.668-2.887,13.232-6.141c5.353-4.888,8.893-11.899,11.25-19.076c2.353-7.184,3.51-14.554,3.94-20.238
		l-1.496-0.112l1.492,0.153c0.745-7.26,1.359-14.368,1.359-21.465c0-7.199-0.633-14.388-2.41-21.676l-2.915,0.711
		c1.708,7.006,2.325,13.939,2.325,20.965c0,6.922-0.601,13.932-1.343,21.158l-0.002,0.021l-0.001,0.02
		c-0.547,7.302-2.384,17.621-6.44,26.237c-2.024,4.312-4.596,8.188-7.78,11.086c-3.19,2.899-6.958,4.84-11.557,5.377l0.173,1.49
		l-0.15-1.492c-0.954,0.096-1.899,0.143-2.835,0.143c-5.979-0.001-11.576-1.907-16.261-5.145c-4.683-3.236-8.44-7.802-10.704-13.075
		l-1.378,0.593l1.386-0.574c-1.841-4.442-2.657-8.629-2.658-12.598c0.002-6.597,2.256-12.637,6.052-18.205
		c5.686-8.346,14.868-15.533,24.698-21.387c9.827-5.857,20.282-10.395,28.477-13.568L155.893,326.385z"/>
	<path fill="#231F20" d="M156.001,326.207c-29.289,11.486-84.971,43.02-51.513,80.307c13.871,15.457,35.951,11.363,46.041-5.128
		c12.233-19.979,12.204-52.233,7.481-74.036c-0.447-2.062-3.599-1.188-3.152,0.867c4.157,19.182,3.015,41.191-2.372,60.119
		c-2.604,9.151-7.433,17.892-15.914,22.671c-12.809,7.222-28.305-2.912-34.829-13.635c-20.496-33.692,31.389-58.712,55.126-68.021
		C158.809,328.602,157.962,325.439,156.001,326.207z"/>
	<path fill="#C2E6EE" d="M329.002,397.844c-11.352-8.613-5.736-21.615,5.609-26.613c3.854-1.692,0.52-7.324-3.302-5.645
		c-16.588,7.309-20.436,26.65-5.606,37.9C329.062,406.04,332.312,400.356,329.002,397.844z"/>
	<path fill="#C2E6EE" d="M202.018,433.73c-4.161,7.436-3.541,14.666,1.405,21.531c2.439,3.391,8.113,0.133,5.646-3.303
		c-3.574-4.966-4.487-9.425-1.403-14.938C209.726,433.347,204.078,430.049,202.018,433.73z"/>
	<path fill="#C2E6EE" d="M118.163,385.572c-1.986-9.445,5.498-15.41,12.526-20.152c3.474-2.34,0.205-8.014-3.302-5.645
		c-9.76,6.584-18.205,14.815-15.529,27.533C112.726,391.432,119.028,389.68,118.163,385.572z"/>
	<path fill="#1E99B5" d="M418.383,233.392c-3.235,42.366-43.347,44.842-77.364,40.722c-8.152-0.996-11.503,11.498-3.271,12.493
		c43.509,5.267,89.582-1.323,93.543-53.395C431.917,224.912,419.006,225.158,418.383,233.392z"/>
</g>
</svg>
