<?xml version="1.0" encoding="utf-8"?>
<!-- Generator: Adobe Illustrator 15.1.0, SVG Export Plug-In . SVG Version: 6.00 Build 0)  -->
<!DOCTYPE svg PUBLIC "-//W3C//DTD SVG 1.1//EN" "http://www.w3.org/Graphics/SVG/1.1/DTD/svg11.dtd">
<svg version="1.1" id="Layer_1" xmlns="http://www.w3.org/2000/svg" xmlns:xlink="http://www.w3.org/1999/xlink" x="0px" y="0px"
	 width="250px" height="250px" viewBox="0 0 250 250" enable-background="new 0 0 250 250" xml:space="preserve">
<g>
	<g>
		<g>
			<path fill="#FFFFFF" d="M52.457,138.268c-8.009-5.618-12.13-15.226-12.13-24.836c-2.786,0.79-5.571,1.58-8.358,2.371
				c-0.027,0.077-0.055,0.155-0.082,0.232c2.737-0.391,5.474-0.783,8.212-1.173c-3.17-5.195,1.382-14.436,4.137-19.066
				c2.888-4.854,8.888-7.02,13.521-9.774c3.254-1.935,2.686-7.367-1.173-8.211c-1.383-0.303-2.49-0.189-3.871,0.046
				c-5.708,0.974-3.168,9.616,2.496,8.65c-0.305,0.003-0.61,0.007-0.915,0.011c-0.39-2.738-0.782-5.474-1.172-8.212
				C45.738,82.694,39.184,85.952,35,93.86c-3.879,7.336-7.275,18.008-2.621,25.637c2.14,3.506,6.975,2.419,8.211-1.172
				c0.914-2.655,0.687-4.835-0.907-7.158c-2.482-3.621-8.358-2.274-8.359,2.37c0,12.986,6.033,25.085,16.68,32.554
				C52.769,149.433,57.162,141.567,52.457,138.268L52.457,138.268z"/>
		</g>
	</g>
	<g>
		<g>
			<path fill="#FFFFFF" d="M56.803,84.96c3.976-4.148,10.739-4.396,16.111-4.984c6.402-0.701,12.646-2.5,18.987-3.302
				c4.352-0.551,7.059-3.513,7.904-7.852c0.593-3.043,0.478-5.444,1.894-8.316c1.343-2.725,3.211-5.091,5.265-7.309
				c8.15-8.803,20.71-13.555,32.588-13.034c13.43,0.587,26.779,12.152,31.25,24.436c1.969,5.417,10.638,2.974,8.648-2.496
				c-5.082-13.971-17.064-24.733-31.061-29.394c-12.841-4.276-27.722-0.126-38.805,6.801c-5.491,3.433-10.084,8.017-13.781,13.301
				c-1.872,2.674-3.191,5.72-4.243,8.797c-0.508,1.49-0.427,3.387-0.508,4.941c0.023,0.667-0.199,1.259-0.667,1.771
				c1.726-0.621,1.896-0.797,0.509-0.53c-7.36,0.931-14.63,2.747-22.039,3.64c-6.702,0.809-13.643,2.182-18.494,7.244
				C46.348,82.864,52.783,89.155,56.803,84.96L56.803,84.96z"/>
		</g>
	</g>
	
		<ellipse transform="matrix(-0.0119 -0.9999 0.9999 -0.0119 -26.8804 199.1128)" fill="#FFFFFF" cx="84.941" cy="112.838" rx="50.752" ry="61.069"/>
	
		<ellipse transform="matrix(-0.0119 -0.9999 0.9999 -0.0119 60.7545 212.9581)" fill="#FFFFFF" cx="135.599" cy="76.46" rx="49.542" ry="51.548"/>
	<path fill="#B0CCD8" d="M143.522,101.891c6.504,23.917-12.94,50.027-43.432,58.317c-30.491,8.296-60.482-4.37-66.985-28.287
		C26.6,108.005,46.047,81.892,76.536,73.6C107.026,65.308,137.02,77.974,143.522,101.891z"/>
	
		<ellipse transform="matrix(-0.0119 -0.9999 0.9999 -0.0119 62.1401 222.5161)" fill="#B0CCD8" cx="141.015" cy="80.555" rx="44.382" ry="46.181"/>
	
		<ellipse transform="matrix(-0.0119 -0.9999 0.9999 -0.0119 61.7443 211.9328)" fill="none" stroke="#000000" stroke-width="2" stroke-miterlimit="10" cx="135.587" cy="75.459" rx="49.542" ry="51.547"/>
	<path fill="none" stroke="#000000" stroke-width="2" stroke-miterlimit="10" d="M145.089,112.506
		c0.331,27.815-26.536,50.688-60.006,51.086c-33.472,0.397-60.873-21.831-61.203-49.646c-0.33-27.812,26.535-50.685,60.006-51.082
		C117.356,62.466,144.759,84.692,145.089,112.506z"/>
	
		<ellipse transform="matrix(-0.0119 -0.9999 0.9999 -0.0119 48.86 297.4409)" fill="#B0CCD8" stroke="#000000" stroke-width="2" stroke-miterlimit="10" cx="171.395" cy="124.579" rx="39.633" ry="51.192"/>
	
		<rect x="76.929" y="124.263" transform="matrix(-0.9999 0.0119 -0.0119 -0.9999 250.2326 285.0203)" fill="#B0CCD8" stroke="#000000" stroke-width="2" stroke-miterlimit="10" width="94.681" height="37.98"/>
	<path fill="#B0CCD8" d="M180.059,78.77c-12.234-1.687-24.803,0.584-36.079,5.544c-3.891-5.588-9.37-9.384-15.064-13.026
		c-3.508-2.242-6.696-4.734-10.4-6.688c-3.045-1.605-6.991-1.537-9.612-3.936c-2.206-2.023-6.073-2.35-8.174,0.097
		c-0.103,0.12-0.188,0.236-0.285,0.357c-0.934,0.678-1.722,1.617-2.194,2.84c-0.269,0.692-0.536,1.386-0.804,2.074
		c-2.086,5.409,4.21,8.307,8.371,6.123c3.679,1.738,7.695,2.758,11.297,4.931c2.885,1.736,5.511,3.882,8.348,5.697
		c1.879,1.134,3.646,2.416,5.313,3.848l1.469,1.529c-8.916,5.931-16.485,15.308-17.61,26.113
		c-4.984-2.868-9.555-6.387-13.678-10.549c-6.834-6.901-8.915-15.322-10.292-24.45c1.127-3.4-0.67-7.901-5.332-7.845
		c-0.689,0.008-1.288,0.141-1.846,0.325c-2.762,0.153-5.187,1.984-4.692,5.532c1.763,12.578,4.222,22.716,12.362,32.791
		c3.214,3.978,7.122,7.37,11.377,10.312c-4.913-0.277-9.807-0.76-14.677-1.572c-2.612-0.432-5.326-0.631-7.824-0.228
		c-0.992,0.004-2.009,0.219-2.968,0.727c-0.602,0.318-1.113,0.636-1.57,0.968c-1.307,0.854-2.447,2.026-3.339,3.644
		c-1.337,2.422-0.935,4.602,0.311,6.128c-0.418,0.405-0.739,0.913-0.891,1.506c-0.256,1.015-0.276,2.072-0.27,3.109
		c0.021,1.987,1.459,3.027,2.993,3.156c-0.799,4.029-1.791,8.067-1.335,12.103c-3.732,2.369-3.708,9.893,1.565,10.672
		c8.408,1.24,16.286,1.647,24.539-0.704c6.597-1.883,4.596-10.851-1.674-11.335c-3.734-0.289-7.473-0.439-11.179-1.029
		c-3.65-0.581-1.439-3.895-0.816-6.678c0.747-3.321,1.266-6.977,1.247-10.57c1.816,0.307,3.61,0.688,5.45,0.859
		c7.616,0.704,15.211,1.13,22.861,1.105c0.06-0.001,0.115-0.009,0.175-0.01c0.035-0.001,0.063,0.007,0.098,0.007
		c0.125-0.002,0.229-0.03,0.347-0.039c0.121-0.01,0.242-0.02,0.359-0.037c1.95-0.237,3.323-1.285,4.084-2.696
		c0.474,0.188,0.95,0.39,1.424,0.567c1.5,0.557,2.791,0.457,3.854-0.028c5.889,1.103,13.4-0.271,18.574-0.424
		c4.247-0.125,8.501-0.122,12.751-0.173l8.469-0.101c0.093,8.823,1.864,17.931,0.929,26.622c-0.014,0.104,0.002,0.189-0.002,0.294
		c-0.519-0.119-1.034-0.235-1.543-0.325c-2.95-0.516-5.834-1.242-8.661-2.238c-3.02-1.066-4.25,3.738-1.261,4.791
		c0.992,0.351,1.988,0.642,2.989,0.912c3.397,1.387,6.962,2.15,10.624,2.265c1.426,0.227,2.84,0.355,4.287,0.226
		c0.204,0.049,0.42,0.082,0.656,0.079l0.415-0.005c1.23-0.015,1.974-0.763,2.243-1.673c0.102-0.282,0.164-0.576,0.154-0.883
		c0.866-0.898,1.495-2.084,1.657-3.581c0.911-8.451-1.579-16.728-1.026-25.229c0.274-4.251,0.201-11.693-5.615-12.464
		c-8.86-1.174-18.275-0.251-27.204-0.074c-4.779,0.091-9.551,0.304-14.333,0.278c-1.034-0.224-1.75-0.321-2.222-0.318
		c-0.779-1.577-1.134-3.285-0.729-5.098c1.362-6.118,7.482-12.502,12.68-15.646c0.885-0.531,1.794-1.133,2.652-1.799
		c1.534,0.811,3.425,1.01,5.382,0.054c8.891-4.347,20.059-6.917,29.954-5.554C184.42,90.958,187.421,79.786,180.059,78.77z"/>
	<path fill="#B0CCD8" d="M88.492,73.439c-0.395-1.375-1.745-1.958-3.069-1.693c-0.965,0.191-2.269,0.237-3.372,0.504
		c-1.314,0.316-2.057,1.813-1.696,3.067c0.385,1.339,1.758,2.013,3.07,1.694c1.021-0.247,2.225-0.273,3.373-0.504
		C88.124,76.244,88.841,74.653,88.492,73.439z"/>
	<path fill="#B0CCD8" d="M102.252,61.396c-1.125-0.642-2.773-0.277-3.375,0.928c-0.562,1.122-1.024,2.287-1.42,3.474
		c-0.432,1.28,0.524,2.7,1.765,3.025c1.372,0.362,2.599-0.486,3.026-1.764c0.275-0.827,0.545-1.503,0.936-2.284
		C103.788,63.567,103.472,62.09,102.252,61.396z"/>
	<path fill="#638093" d="M195.796,121.205c-1.701,21.852-22.395,23.102-39.945,20.95c-4.204-0.517-5.942,5.921-1.694,6.442
		c22.443,2.756,46.212-0.609,48.3-27.472C202.789,116.842,196.127,116.96,195.796,121.205z"/>
	<g>
		<g>
			<path fill="#FFFFFF" d="M86.353,66.931c-1.165,0.114-2.332,0.178-3.497,0.292c0.49,0.627,0.979,1.255,1.468,1.882
				c0.584-1.927,1.561-1.956,2.991-2.956c1.261-0.881,1.934-2.141,2.784-3.381c-0.935-0.241-1.869-0.481-2.804-0.723
				c0.068,0.634,0.163,1.23,0.147,1.873c-0.036,1.439,1.638,1.789,2.573,1.031c0.692-0.561,1.289-1.212,1.979-1.774
				c-0.836-0.211-1.675-0.421-2.514-0.632c0.104,0.469,0.267,0.907,0.392,1.371c0.317,1.199,1.678,1.297,2.513,0.632
				c0.326-0.201,0.638-0.419,0.939-0.651c-0.757-0.423-1.514-0.846-2.272-1.268c0.065,0.25,0.068,0.5,0.009,0.75
				c-0.103,0.909,1.078,1.779,1.916,1.423c0.768-0.325,1.414-0.684,2.094-1.176c-0.74-0.556-1.482-1.111-2.222-1.668
				c-0.114,0.257-0.227,0.514-0.341,0.771c-0.774,1.509,1.146,3.012,2.377,1.789c0.299-0.331,0.629-0.626,0.99-0.887
				c-0.858-0.344-1.715-0.687-2.573-1.031c-0.021,0.16-0.044,0.318-0.064,0.477c-0.501,1.873,2.402,2.629,2.902,0.764
				c0.118-0.44,0.154-0.819,0.164-1.276c0.029-1.443-1.632-1.784-2.574-1.031c-0.36,0.26-0.69,0.556-0.989,0.887
				c0.792,0.597,1.584,1.193,2.378,1.789c0.258-0.503,0.447-0.957,0.633-1.491c0.42-1.21-1.177-2.424-2.223-1.667
				c-0.428,0.341-0.887,0.629-1.383,0.865c0.639,0.475,1.278,0.949,1.917,1.423c0.059-0.25,0.056-0.5-0.009-0.75
				c-0.137-0.994-1.25-2.027-2.272-1.268c-0.515,0.382-1.038,0.729-1.542,1.128c0.838,0.211,1.677,0.421,2.516,0.632
				c-0.124-0.462-0.288-0.902-0.392-1.371c-0.268-1.215-1.713-1.281-2.515-0.632c-0.692,0.561-1.287,1.212-1.979,1.774
				c0.858,0.344,1.715,0.687,2.574,1.03c0.017-0.663-0.076-1.208-0.147-1.873c-0.163-1.507-1.933-1.994-2.804-0.724
				c-0.425,0.619-0.948,1.969-1.666,2.256c-0.754,0.301-1.434,0.625-2.104,1.098c-1.266,0.894-1.864,2.268-2.298,3.702
				c-0.267,0.88,0.51,1.975,1.469,1.882c1.165-0.114,2.332-0.178,3.497-0.292C88.299,69.743,88.278,66.742,86.353,66.931
				L86.353,66.931z"/>
		</g>
	</g>
	<g>
		<g>
			<path fill="#FFFFFF" d="M96.01,64.502c0.567-0.378,1.134-0.757,1.7-1.135c-0.622-0.607-1.244-1.215-1.866-1.822
				c-1.21,6.84-10.855,7.326-16.336,7.968c-1.901,0.223-1.884,3.225,0.036,3c6.882-0.807,17.7-1.71,19.201-10.205
				c0.188-1.06-0.7-2.212-1.866-1.823c-1.257,0.42-2.087,0.978-3.014,1.922C92.505,63.787,94.653,65.882,96.01,64.502L96.01,64.502z
				"/>
		</g>
	</g>
	<g>
		<g>
			<path fill="#B0CCD8" d="M181.644,84.182c0.289,0.633,0.079,1.353-0.127,1.971c0.983,0.121,1.967,0.243,2.95,0.364
				c0.004-0.11,0.004-0.22,0.002-0.331c0.013-0.092,0.261-0.621,0.051-0.359c-0.858-0.344-1.716-0.687-2.573-1.031
				c-0.033,0.744-0.461,1.522-0.669,2.234c-0.546,1.862,2.359,2.614,2.902,0.764c0.297-1.018,0.719-1.958,0.768-3.034
				c0.055-1.248-1.756-2.05-2.574-1.03c-0.674,0.84-0.892,1.757-0.905,2.822c-0.023,1.77,2.431,1.911,2.951,0.364
				c0.493-1.466,0.441-2.875-0.202-4.279c-0.341-0.744-1.416-0.9-2.059-0.515C181.4,82.58,181.303,83.439,181.644,84.182
				L181.644,84.182z"/>
		</g>
	</g>
	<g>
		<g>
			<path fill="#B0CCD8" d="M172.816,160.09c-5.031,1.041-10.686-0.197-15.249-2.418c-1.734-0.845-3.223,1.761-1.483,2.607
				c5.334,2.597,11.693,3.909,17.563,2.691C175.542,162.58,174.701,159.698,172.816,160.09L172.816,160.09z"/>
		</g>
	</g>
	<g>
		<g>
			<path fill="#B0CCD8" d="M74.605,161.952c7.905,0.861,15.664,1.025,23.521-0.334c1.903-0.329,1.057-3.208-0.831-2.883
				c-7.578,1.311-15.114,1.046-22.726,0.216C72.649,158.742,72.706,161.746,74.605,161.952L74.605,161.952z"/>
		</g>
	</g>
	<path fill="#638093" d="M53.1,131.985c-9.223-17.865,6.32-28.829,21.047-35.618c3.533-1.629,1.78-7.488-1.785-5.847
		c-18.836,8.683-35.756,22.782-24.419,44.742C49.749,138.769,54.892,135.46,53.1,131.985z"/>
</g>
<path fill="#FFFFFF" stroke="#404041" stroke-width="2" stroke-miterlimit="10" d="M131.785,211.816c0,4.067-3.295,7.36-7.363,7.36
	c-4.069,0-7.366-3.293-7.366-7.36c0-4.069,3.297-7.366,7.366-7.366C128.49,204.45,131.785,207.747,131.785,211.816z"/>
<circle fill="#FFFFFF" stroke="#404041" stroke-width="2" stroke-miterlimit="10" cx="103.378" cy="179.479" r="7.366"/>
<path fill="#FFFFFF" stroke="#404041" stroke-width="2" stroke-miterlimit="10" d="M86.663,207.003c0,4.07-3.297,7.368-7.363,7.368
	c-4.07,0-7.366-3.298-7.366-7.368c0-4.066,3.296-7.362,7.366-7.362C83.366,199.641,86.663,202.937,86.663,207.003z"/>
<path fill="#FFFFFF" stroke="#404041" stroke-width="2" stroke-miterlimit="10" d="M176.975,207.005
	c0,4.071-3.299,7.366-7.363,7.366c-4.07,0-7.369-3.295-7.369-7.366c0-4.067,3.299-7.363,7.369-7.363
	C173.676,199.642,176.975,202.938,176.975,207.005z"/>
<circle fill="#FFFFFF" stroke="#404041" stroke-width="2" stroke-miterlimit="10" cx="184.438" cy="177.627" r="7.364"/>
<path fill="#FFFFFF" stroke="#404041" stroke-width="2" stroke-miterlimit="10" d="M152.508,179.479
	c0,4.067-3.297,7.365-7.363,7.365c-4.07,0-7.365-3.298-7.365-7.365c0-4.068,3.295-7.365,7.365-7.365
	C149.211,172.113,152.508,175.41,152.508,179.479z"/>
<circle fill="#FFFFFF" stroke="#404041" stroke-width="2" stroke-miterlimit="10" cx="59.817" cy="177.627" r="7.365"/>
<path fill="#FFFFFF" stroke="#404041" stroke-width="2" stroke-miterlimit="10" d="M107.567,236.438
	c0,4.063-3.296,7.362-7.362,7.362c-4.07,0-7.366-3.299-7.366-7.362c0-4.07,3.296-7.369,7.366-7.369
	C104.271,229.068,107.567,232.367,107.567,236.438z"/>
<path fill="#FFFFFF" stroke="#404041" stroke-width="2" stroke-miterlimit="10" d="M157.371,236.438
	c0,4.063-3.297,7.362-7.363,7.362c-4.07,0-7.365-3.299-7.365-7.362c0-4.07,3.295-7.369,7.365-7.369
	C154.074,229.068,157.371,232.367,157.371,236.438z"/>
</svg>
