<?xml version="1.0" encoding="utf-8"?>
<!-- Generator: Adobe Illustrator 15.1.0, SVG Export Plug-In . SVG Version: 6.00 Build 0)  -->
<!DOCTYPE svg PUBLIC "-//W3C//DTD SVG 1.1//EN" "http://www.w3.org/Graphics/SVG/1.1/DTD/svg11.dtd">
<svg version="1.1" xmlns="http://www.w3.org/2000/svg" xmlns:xlink="http://www.w3.org/1999/xlink" x="0px" y="0px" width="500px"
	 height="500px" viewBox="0 0 500 500" enable-background="new 0 0 500 500" xml:space="preserve">
<g id="Layer_2_1_">
	<line fill="none" x1="868.5" y1="180.5" x2="871.5" y2="177.5"/>
</g>
<g id="Layer_1">
	<g id="Layer_3">
	</g>
	<g id="Layer_2">
	</g>
	<g>
		<path fill="#FFFFFF" d="M93.22,258.766c-17.311-12.453-26.043-33.497-25.792-54.441c-6.093,1.65-12.184,3.3-18.278,4.95
			c-0.061,0.165-0.125,0.334-0.185,0.504c5.976-0.783,11.949-1.566,17.926-2.344c-6.773-11.403,3.387-31.424,9.509-41.446
			c6.421-10.505,19.553-15.067,29.72-20.951c7.142-4.132,6.043-15.986-2.344-17.927c-3.005-0.694-5.422-0.476-8.437,0
			c-12.466,1.976-7.154,20.876,5.215,18.917c-0.665,0-1.329,0-1.994,0c-0.779-5.976-1.562-11.95-2.342-17.926
			c-16.205,9.376-30.572,16.307-39.894,33.433c-8.644,15.889-16.319,39.057-6.374,55.803c4.572,7.695,15.138,5.453,17.925-2.34
			c2.061-5.763,1.622-10.519-1.792-15.622c-5.315-7.956-18.155-5.172-18.277,4.949c-0.338,28.301,12.498,54.824,35.508,71.379
			C93.609,283.104,103.387,266.074,93.22,258.766z"/>
		<path fill="#FFFFFF" d="M104.072,142.701c8.772-8.938,23.518-9.302,35.239-10.444c13.97-1.362,27.625-5.121,41.464-6.706
			c9.497-1.087,15.474-7.473,17.428-16.907c1.37-6.616,1.183-11.852,4.341-18.075c2.998-5.904,7.128-11.011,11.664-15.791
			c17.99-18.972,45.481-29.005,71.354-27.562c29.254,1.627,58.047,27.176,67.471,54.061c4.148,11.856,23.113,6.757,18.915-5.215
			c-10.714-30.58-36.554-54.343-66.931-64.863c-27.871-9.651-60.416-0.995-84.745,13.818c-12.055,7.338-22.185,17.209-30.377,28.63
			c-4.149,5.78-7.104,12.382-9.475,19.062c-1.144,3.234-1.018,7.371-1.233,10.754c0.036,1.457-0.466,2.739-1.499,3.843
			c3.777-1.308,4.151-1.689,1.124-1.142c-16.065,1.839-31.956,5.607-48.123,7.362c-14.626,1.589-29.789,4.4-40.493,15.308
			C81.34,137.863,95.2,151.739,104.072,142.701z"/>
		<ellipse fill="#FFFFFF" cx="164.669" cy="204.44" rx="133.097" ry="110.357"/>
		<ellipse fill="#FFFFFF" cx="276.01" cy="124.472" rx="112.353" ry="109.722"/>
		<path fill="#AECCD9" d="M292.62,181.845c13.56,52.292-29.495,108.69-96.161,125.967c-66.666,17.295-131.697-11.09-145.252-63.38
			c-13.558-52.29,29.5-108.697,96.161-125.979C214.03,101.173,279.068,129.552,292.62,181.845z"/>
		<path fill="#AECCD9" d="M287.711,38.547c55.588,0,99.289,43.308,99.289,96.73c0,53.421-43.701,96.729-99.289,96.729
			c-55.591,0-100.653-43.308-100.653-96.729C187.058,81.855,232.12,38.547,287.711,38.547z"/>
		<path fill="#010101" d="M276.01,16.057v1.5c30.633,0,58.348,11.931,78.405,31.208c20.058,19.28,32.445,45.879,32.446,75.268
			c-0.001,29.39-12.39,55.989-32.446,75.27c-20.059,19.277-47.772,31.207-78.405,31.208c-30.632,0-58.345-11.931-78.403-31.208
			c-20.057-19.28-32.445-45.88-32.446-75.27c0.001-29.389,12.389-55.988,32.446-75.268c20.058-19.277,47.771-31.208,78.403-31.208
			V16.057v-1.5c-31.417,0-59.878,12.241-80.482,32.044c-20.605,19.8-33.368,47.188-33.367,77.431
			c-0.001,30.244,12.762,57.633,33.367,77.433c20.604,19.804,49.065,32.044,80.482,32.044c31.418,0,59.88-12.241,80.484-32.044
			c20.604-19.8,33.368-47.188,33.367-77.433c0.001-30.243-12.763-57.631-33.367-77.431c-20.604-19.803-49.066-32.045-80.484-32.044
			V16.057z"/>
		<path d="M276.01,16.057h-1v2.5h1c30.371,0,57.837,11.827,77.712,30.929c19.875,19.106,32.138,45.442,32.14,74.547
			c-0.002,29.105-12.266,55.441-32.14,74.549c-19.876,19.102-47.341,30.928-77.712,30.929c-30.37,0-57.833-11.827-77.71-30.929
			c-19.875-19.106-32.137-45.443-32.139-74.548c0.002-29.104,12.264-55.44,32.139-74.547c19.876-19.102,47.34-30.929,77.71-30.929h1
			v-2.5v-2.5h-1c-31.678,0-60.389,12.344-81.175,32.323c-20.787,19.973-33.675,47.622-33.674,78.149v0.005l0,0.036l1-0.038l-1-0.013
			v0.017c-0.001,30.527,12.887,58.178,33.674,78.15c20.786,19.979,49.497,32.323,81.175,32.323c31.68,0,60.391-12.344,81.178-32.323
			c20.786-19.973,33.675-47.622,33.674-78.15v-0.002h-0.971l0.969,0.056l0.002-0.056h-0.971l0.969,0.056l0.002-0.028v-0.029v-0.015
			l-0.868,0.011h0.868v-0.011l-0.868,0.011h0.868c0.001-30.527-12.888-58.176-33.674-78.149
			c-20.786-19.978-49.496-32.323-81.174-32.323v0.673l0.002-0.673h-0.002v0.673l0.002-0.673l-0.113,0.006l-0.893,0.096v2.398H276.01
			h1v-1.5h-1l0.107,0.994l-0.105-0.976l0.012,0.981l0.094-0.006l-0.105-0.976l0.012,0.981l-0.011-0.938l-0.003,0.938h0.014
			l-0.011-0.938l-0.003,0.938h0.004c31.154,0,59.366,12.138,79.787,31.765c20.421,19.625,33.06,46.75,33.061,76.707v0.015
			l0.861-0.011h-0.861v0.011l0.861-0.011h-0.861h1l-0.998-0.057l-0.002,0.059v0.002c-0.001,29.958-12.64,57.083-33.061,76.708
			c-20.422,19.628-48.635,31.765-79.791,31.765c-31.155,0-59.367-12.136-79.789-31.765c-20.421-19.625-33.059-46.751-33.06-76.708
			h-0.74l0.74,0.01v-0.01h-0.74l0.74,0.01v-0.025l0-0.026l-0.947,0.036l0.947-0.003l0-0.033l-0.947,0.036l0.947-0.003l-0.467,0.001
			h0.467v-0.001l-0.467,0.001h0.467c0-29.957,12.638-57.081,33.06-76.707c20.422-19.628,48.634-31.765,79.789-31.765v-1h-1v1.5v1.5
			h1v-1c-30.894,0-58.856,12.034-79.096,31.487c-20.24,19.453-32.753,46.315-32.753,75.989c0,29.674,12.513,56.538,32.753,75.99
			c20.24,19.453,48.202,31.487,79.096,31.487c30.895-0.001,58.857-12.034,79.099-31.487c20.239-19.454,32.753-46.316,32.753-75.991
			c0-29.674-12.513-56.536-32.753-75.989c-20.24-19.453-48.204-31.487-79.099-31.487v1h1v-1.5H276.01z"/>
		<path fill="#010101" d="M295.762,205.019h-1.5c-0.002,29.812-14.529,56.834-38.15,76.471
			c-23.616,19.628-56.308,31.81-92.445,31.808c-36.141,0.002-68.833-12.18-92.448-31.808
			c-23.619-19.637-38.146-46.659-38.148-76.471c0.002-29.809,14.529-56.829,38.148-76.465
			c23.616-19.628,56.307-31.809,92.448-31.807c36.138-0.001,68.83,12.178,92.445,31.806c23.621,19.636,38.148,46.656,38.15,76.467
			L295.762,205.019l1.5,0.001c0.002-30.813-15.043-58.68-39.232-78.774c-24.195-20.103-57.551-32.497-94.363-32.499
			c-36.815,0.001-70.172,12.396-94.366,32.5c-24.189,20.095-39.232,47.961-39.23,78.772c-0.002,30.815,15.041,58.683,39.23,78.778
			c24.194,20.104,57.55,32.498,94.366,32.5c36.812-0.002,70.168-12.396,94.363-32.5c24.189-20.096,39.234-47.963,39.232-78.778
			H295.762z"/>
		<path d="M295.762,205.019v-1h-2.5v1c-0.003,29.478-14.358,56.218-37.79,75.703c-23.421,19.467-55.888,31.577-91.797,31.576h-0.02
			l0.011,1v-1h-0.009c-35.913,0.001-68.38-12.109-91.8-31.577c-23.429-19.483-37.784-46.224-37.787-75.702
			c0.003-29.475,14.358-56.212,37.787-75.696c23.421-19.468,55.888-31.577,91.8-31.576h0.004v-0.788l-0.016,0.788h0.016v-0.788
			l-0.016,0.788h0.021h0.021l-0.017-0.794v0.794h0.017l-0.017-0.794v0.794c35.911-0.001,68.38,12.106,91.801,31.575
			c23.432,19.484,37.787,46.221,37.79,75.698v1h2.5h2.5v-1v-0.011l-0.603,0.005h0.603v-0.005l-0.603,0.005h0.603
			c0.001-31.146-15.215-59.292-39.594-79.537c-24.388-20.262-57.965-32.727-95.002-32.73c-37.04,0.002-70.618,12.468-95.005,32.731
			c-24.378,20.247-39.592,48.392-39.591,79.535v0.01v-0.003v-0.002v0.007c-0.001,31.147,15.213,59.294,39.591,79.542
			c24.387,20.262,57.965,32.728,95.005,32.73c37.037-0.003,70.614-12.469,95.002-32.73c24.379-20.248,39.595-48.395,39.594-79.542
			v-0.003h-0.905l0.905,0.028v-0.028h-0.905l0.905,0.028l0.031-1.031h-2.531V205.019v1h1.5v-1l-1-0.031v0.034v0.003
			c-0.001,30.478-14.874,58.062-38.871,78.002c-24.003,19.945-57.137,32.269-93.725,32.27c-36.591-0.001-69.726-12.324-93.727-32.27
			c-23.997-19.939-38.868-47.524-38.869-78.002v-0.005v-0.003v-0.002v-0.001c0.001-30.474,14.872-58.057,38.869-77.997
			c24.001-19.946,57.137-32.269,93.727-32.269c36.587,0.001,69.722,12.323,93.725,32.268c23.997,19.939,38.87,47.523,38.871,77.999
			v0.01l0.601-0.004h-0.601v0.004l0.601-0.004h-0.601h1v-1h-1.5h-1.5v1h1c-0.001-30.145-14.7-57.448-38.511-77.236
			c-23.808-19.786-56.719-32.036-93.081-32.037h-0.025l0.021,1l0.021-1h-0.029C127.294,95.748,94.386,108,70.579,127.785
			C46.77,147.573,32.07,174.876,32.07,205.019c0,30.146,14.7,57.451,38.509,77.24c23.806,19.785,56.716,32.038,93.079,32.039h0.009
			h0.006h0.005l-0.002-0.188v0.188h0.002l-0.002-0.188v0.188c36.359-0.001,69.269-12.254,93.075-32.038
			c23.812-19.79,38.511-47.095,38.512-77.241h-1v1h1.5V205.019z"/>
		<ellipse fill="#AECCD9" cx="352.776" cy="232.008" rx="111.57" ry="86.38"/>
		<path d="M352.776,145.628v2c30.391-0.003,57.868,9.547,77.668,24.882c9.901,7.665,17.881,16.77,23.379,26.834
			c5.498,10.067,8.522,21.088,8.523,32.664c-0.001,11.576-3.025,22.597-8.523,32.664c-8.244,15.097-22.086,28.035-39.594,37.192
			c-17.506,9.157-38.66,14.525-61.453,14.524c-30.391,0.003-57.869-9.548-77.669-24.882c-9.9-7.665-17.882-16.77-23.379-26.835
			c-5.499-10.067-8.522-21.088-8.523-32.664c0.001-11.576,3.025-22.597,8.523-32.664c8.244-15.096,22.086-28.035,39.594-37.191
			c17.506-9.157,38.661-14.525,61.454-14.524V145.628v-2c-31.229,0.003-59.536,9.789-80.117,25.719
			c-10.289,7.966-18.647,17.476-24.441,28.08c-5.793,10.601-9.014,22.304-9.013,34.582c-0.001,12.277,3.219,23.98,9.013,34.582
			c8.693,15.907,23.146,29.348,41.251,38.818c18.108,9.471,39.886,14.979,63.308,14.98c31.228-0.003,59.535-9.789,80.116-25.719
			c10.289-7.967,18.647-17.476,24.441-28.08c5.794-10.602,9.014-22.305,9.013-34.582c0.001-12.277-3.219-23.98-9.013-34.582
			c-8.693-15.907-23.146-29.347-41.251-38.818c-18.108-9.47-39.886-14.979-63.307-14.98V145.628z"/>
		<path fill="#010101" d="M352.776,145.628v1.5c30.495-0.002,58.076,9.578,77.975,24.986c9.949,7.703,17.978,16.857,23.513,26.99
			c5.535,10.134,8.583,21.24,8.584,32.903c-0.001,11.663-3.049,22.771-8.584,32.903c-8.301,15.197-22.219,28.199-39.803,37.396
			c-17.58,9.195-38.812,14.582-61.685,14.582c-30.496,0.002-58.079-9.578-77.978-24.988c-9.949-7.702-17.978-16.857-23.513-26.989
			c-5.536-10.134-8.584-21.24-8.585-32.903c0.001-11.664,3.049-22.77,8.585-32.903c8.301-15.198,22.219-28.199,39.803-37.395
			c17.581-9.196,38.814-14.582,61.688-14.581V145.628v-1.5c-31.124,0.002-59.328,9.759-79.812,25.614
			c-10.241,7.928-18.553,17.387-24.31,27.923c-5.757,10.535-8.953,22.152-8.952,34.342c-0.001,12.189,3.195,23.808,8.952,34.343
			c8.637,15.805,23.014,29.183,41.045,38.614c18.033,9.433,39.732,14.923,63.077,14.925c31.123-0.004,59.327-9.761,79.811-25.615
			c10.241-7.93,18.553-17.389,24.311-27.924c5.756-10.535,8.951-22.153,8.95-34.343c0.001-12.189-3.194-23.807-8.95-34.342
			c-8.639-15.806-23.015-29.183-41.046-38.614c-18.032-9.431-39.731-14.922-63.074-14.923L352.776,145.628L352.776,145.628z"/>
		<path d="M352.776,145.628h-1v2.51l1.01-0.01l-0.001-0.053v0.053h0.001l-0.001-0.053v0.053
			c30.282-0.002,57.652,9.519,77.354,24.777c9.853,7.627,17.786,16.681,23.247,26.679c5.462,10.001,8.46,20.936,8.462,32.423
			c-0.002,11.488-3,22.425-8.462,32.424c-8.188,14.994-21.954,27.871-39.389,36.99c-17.429,9.116-38.506,14.468-61.221,14.468h-0.01
			c-30.282,0.002-57.655-9.52-77.355-24.779c-9.853-7.627-17.786-16.681-23.247-26.678c-5.463-10-8.461-20.936-8.463-32.424
			c0.001-11.488,3-22.423,8.463-32.423c8.188-14.995,21.953-27.871,39.389-36.988c17.428-9.117,38.504-14.468,61.218-14.467h0.003
			v-0.885l-0.024,0.884l0.024,0v-0.885l-0.024,0.884l1.027,0.029v-2.529v-2.5h-1c-31.333,0.003-59.745,9.82-80.425,25.823
			c-10.338,8.003-18.744,17.563-24.575,28.234c-5.831,10.667-9.075,22.452-9.075,34.815l0,0.03l1-0.024l-1-0.008v0.014
			c0,12.363,3.244,24.15,9.075,34.817c8.749,16.007,23.279,29.511,41.458,39.021c18.185,9.512,40.039,15.037,63.541,15.039
			c31.332-0.006,59.744-9.821,80.423-25.824c10.338-8.005,18.744-17.565,24.576-28.235c5.828-10.667,9.073-22.453,9.072-34.817
			v-0.005l-0.894,0.004l0.893,0.031l0.001-0.035l-0.894,0.004l0.893,0.031l0.001-0.017v-0.018v-0.011l-0.659,0.005h0.659v-0.005
			l-0.659,0.005h0.659c0.001-12.362-3.244-24.148-9.072-34.815c-8.751-16.009-23.28-29.511-41.46-39.021
			c-18.184-9.509-40.038-15.035-63.538-15.037h-1v2.5H352.776l0.001-1h-0.001h-1v1H352.776v1h0.001h1v-2.5h-1v1
			c23.186,0,44.729,5.457,62.61,14.809c17.883,9.353,32.105,22.604,40.632,38.208c5.682,10.399,8.827,21.845,8.828,33.856v0.011
			l0.65-0.005h-0.65v0.005l0.65-0.005h-0.65h1l-0.999-0.035l-0.001,0.038v0.005l0.646-0.003h-0.646v0.003l0.646-0.003h-0.646
			c-0.001,12.012-3.146,23.458-8.828,33.858c-5.684,10.4-13.9,19.758-24.045,27.612c-20.288,15.706-48.284,25.404-79.198,25.406
			c-23.188-0.002-44.731-5.457-62.613-14.811c-17.883-9.354-32.106-22.605-40.631-38.208c-5.683-10.399-8.829-21.847-8.83-33.858
			h-0.325l0.325,0.003v-0.003h-0.325l0.325,0.003v-0.016l0-0.016l-0.868,0.021l0.868-0.002l0-0.019l-0.868,0.021l0.868-0.002v-0.001
			c0-12.012,3.147-23.457,8.83-33.856c5.683-10.401,13.9-19.759,24.044-27.612c20.289-15.706,48.285-25.404,79.2-25.405v-1h-1v1.5
			v1.501h1l0.027-1l-0.03,0h-0.003c-23.028,0-44.415,5.421-62.146,14.695c-17.732,9.275-31.804,22.401-40.216,37.802
			c-5.61,10.267-8.708,21.543-8.708,33.382c0,11.838,3.098,23.115,8.708,33.383c5.609,10.267,13.732,19.523,23.778,27.301
			c20.092,15.558,47.879,25.195,78.58,25.197h0.01c23.029,0,44.417-5.422,62.148-14.696c17.733-9.275,31.804-22.402,40.217-37.803
			c5.608-10.267,8.706-21.544,8.706-33.383c0-11.838-3.098-23.115-8.706-33.382c-5.609-10.268-13.732-19.523-23.778-27.301
			c-20.093-15.556-47.877-25.194-78.578-25.196h-0.019l0.01,1h1v-1.5H352.776v1V145.628z"/>
		<rect x="146.416" y="230.1" fill="#AECCD9" width="206.36" height="82.774"/>
		<polygon fill="#010101" points="146.416,230.1 146.416,231.6 351.276,231.6 351.276,311.374 147.916,311.374 147.916,230.1 
			146.416,230.1 146.416,231.6 146.416,230.1 144.916,230.1 144.916,314.374 354.276,314.374 354.276,228.6 144.916,228.6 
			144.916,230.1 		"/>
		<polygon points="146.416,230.1 145.416,230.1 145.416,232.6 350.276,232.6 350.276,310.374 148.916,310.374 148.916,229.1 
			145.416,229.1 145.416,231.6 147.416,231.6 147.416,229.1 143.916,229.1 143.916,315.374 355.276,315.374 355.276,227.6 
			143.916,227.6 143.916,231.1 146.416,231.1 146.416,230.1 145.416,230.1 146.416,230.1 146.416,229.1 145.916,229.1 
			145.916,228.6 144.916,228.6 144.916,229.6 353.276,229.6 353.276,313.374 145.916,313.374 145.916,231.1 146.416,231.1 
			146.416,230.1 145.416,230.1 145.416,231.6 147.416,231.6 147.416,231.1 147.916,231.1 147.916,230.1 146.916,230.1 
			146.916,312.374 352.276,312.374 352.276,230.6 147.416,230.6 147.416,230.1 147.416,229.1 146.416,229.1 		"/>
		<path fill="#AECCD9" d="M372.842,132.401c-26.618-3.993-54.073,0.632-78.773,11.149c-8.332-12.279-20.18-20.693-32.493-28.778
			c-7.58-4.977-14.471-10.492-22.49-14.844c-6.593-3.575-15.196-3.53-20.845-8.827c-4.756-4.465-13.174-5.279-17.818,0
			c-0.225,0.26-0.413,0.51-0.628,0.771c-2.054,1.454-3.794,3.479-4.856,6.133c-0.605,1.502-1.206,3.006-1.805,4.499
			c-4.686,11.733,8.959,18.212,18.083,13.562c7.972,3.884,16.699,6.21,24.493,11.039c6.24,3.858,11.912,8.603,18.048,12.632
			c4.06,2.52,7.878,5.359,11.478,8.524l3.16,3.369c-19.582,12.694-36.319,32.934-39.049,56.453
			c-10.79-6.379-20.66-14.167-29.539-23.344c-14.716-15.218-19.031-33.623-21.795-53.552c2.544-7.381-1.256-17.236-11.416-17.236
			c-1.502,0-2.809,0.275-4.031,0.661c-6.024,0.261-11.355,4.189-10.371,11.935c3.517,27.456,8.611,49.613,26.094,71.781
			c6.902,8.753,15.33,16.246,24.528,22.768c-10.701-0.732-21.354-1.911-31.945-3.805c-5.681-1.01-11.592-1.511-17.044-0.697
			c-2.162-0.018-4.384,0.424-6.488,1.505c-1.318,0.68-2.442,1.358-3.448,2.067c-2.869,1.828-5.385,4.353-7.371,7.856
			c-2.978,5.243-2.155,10.003,0.519,13.362c-0.922,0.872-1.635,1.969-1.981,3.261c-0.584,2.206-0.656,4.508-0.669,6.768
			c-0.004,4.329,3.101,6.637,6.44,6.953c-1.847,8.763-4.113,17.536-3.224,26.341c-8.195,5.066-8.337,21.464,3.134,23.296
			c18.292,2.923,35.45,4.015,53.496-0.896c14.427-3.938,10.298-23.531-3.354-24.745c-8.129-0.728-16.273-1.152-24.335-2.533
			c-7.941-1.358-3.037-8.524-1.606-14.574c1.714-7.219,2.94-15.171,2.99-23.008c3.949,0.715,7.851,1.591,11.854,2.02
			c16.578,1.731,33.12,2.855,49.792,3c0.132,0,0.25-0.02,0.384-0.02l0.213,0.02c0.273,0,0.5-0.059,0.76-0.075
			c0.263-0.018,0.525-0.039,0.781-0.071c4.256-0.466,7.275-2.716,8.972-5.769c1.028,0.419,2.058,0.872,3.086,1.272
			c3.255,1.252,6.07,1.069,8.398,0.04c12.808,2.56,29.21-0.237,40.491-0.438c9.258-0.161,18.531-0.046,27.793-0.046h18.46
			c-0.029,19.228,3.598,39.123,1.334,58.042c-0.03,0.227,0,0.408-0.015,0.639c-1.129-0.272-2.245-0.535-3.354-0.745
			c-6.413-1.204-12.679-2.86-18.815-5.106c-6.56-2.404-9.359,8.037-2.87,10.409c2.151,0.785,4.313,1.446,6.492,2.063
			c7.368,3.109,15.116,4.863,23.095,5.212c3.104,0.526,6.182,0.849,9.335,0.6c0.446,0.115,0.916,0.19,1.426,0.19h0.902
			c2.681,0,4.318-1.609,4.938-3.586c0.226-0.612,0.374-1.252,0.358-1.922c1.91-1.937,3.312-4.5,3.703-7.763
			c2.204-18.393-3.014-36.493-1.593-55.006c0.706-9.254,0.746-25.474-11.916-27.304c-19.278-2.787-39.818-1.024-59.28-0.867
			c-10.416,0.076-20.824,0.415-31.246,0.235c-2.243-0.511-3.807-0.745-4.832-0.752c-1.661-3.457-2.389-7.189-1.461-11.129
			c3.135-13.297,16.632-27.051,28.039-33.768c1.94-1.137,3.938-2.421,5.826-3.851c3.321,1.806,7.438,2.288,11.729,0.256
			c19.488-9.242,49.6-14.463,71.13-11.235C387.734,159.167,388.865,134.805,372.842,132.401z"/>
		<path fill="#AECCD9" d="M173.427,118.413c-0.826-3.007-3.753-4.312-6.645-3.768c-2.107,0.391-4.949,0.457-7.36,1.01
			c-2.874,0.656-4.529,3.899-3.776,6.642c0.805,2.927,3.78,4.431,6.648,3.77c2.231-0.512,4.856-0.539,7.362-1.011
			C172.555,124.518,174.155,121.067,173.427,118.413z"/>
		<path fill="#AECCD9" d="M203.73,92.525c-2.434-1.428-6.038-0.676-7.379,1.935c-1.253,2.431-2.293,4.958-3.186,7.534
			c-0.975,2.779,1.072,5.898,3.769,6.639c2.981,0.824,5.675-0.992,6.64-3.766c0.621-1.796,1.225-3.26,2.099-4.953
			C207.019,97.295,206.371,94.067,203.73,92.525z"/>
		<path fill="#FFFFFF" d="M168.933,104.964c-2.541,0.218-5.087,0.326-7.628,0.545c1.05,1.378,2.101,2.759,3.149,4.138
			c1.324-4.185,3.452-4.221,6.593-6.363c2.771-1.888,4.271-4.615,6.155-7.295c-2.032-0.549-4.06-1.098-6.092-1.649
			c0.134,1.383,0.323,2.686,0.272,4.086c-0.116,3.136,3.523,3.941,5.583,2.312c1.521-1.204,2.838-2.608,4.357-3.814
			c-1.817-0.482-3.639-0.961-5.461-1.443c0.214,1.025,0.558,1.983,0.818,2.997c0.66,2.62,3.622,2.87,5.461,1.442
			c0.715-0.428,1.4-0.896,2.061-1.395c-1.638-0.941-3.277-1.882-4.918-2.822c0.135,0.545,0.135,1.091,0,1.635
			c-0.246,1.978,2.304,3.906,4.137,3.152c1.681-0.689,3.1-1.453,4.594-2.509c-1.598-1.231-3.201-2.46-4.799-3.691
			c-0.254,0.557-0.507,1.113-0.763,1.672c-1.726,3.269,2.417,6.595,5.133,3.959c0.66-0.712,1.387-1.348,2.179-1.907
			c-1.86-0.771-3.72-1.54-5.581-2.312c-0.051,0.348-0.104,0.691-0.152,1.038c-1.14,4.069,5.166,5.792,6.304,1.739
			c0.269-0.957,0.358-1.78,0.391-2.777c0.099-3.145-3.51-3.929-5.584-2.312c-0.79,0.558-1.519,1.194-2.18,1.907
			c1.712,1.321,3.421,2.642,5.134,3.961c0.579-1.09,1.001-2.075,1.419-3.233c0.949-2.625-2.501-5.312-4.8-3.691
			c-0.942,0.732-1.95,1.349-3.035,1.85c1.378,1.051,2.761,2.102,4.137,3.152c0.136-0.544,0.136-1.09,0-1.635
			c-0.271-2.168-2.672-4.45-4.918-2.822c-1.134,0.819-2.281,1.56-3.39,2.418c1.822,0.483,3.645,0.961,5.466,1.443
			c-0.257-1.01-0.603-1.973-0.818-2.997c-0.554-2.655-3.699-2.836-5.465-1.443c-1.522,1.204-2.835,2.607-4.359,3.814
			c1.861,0.772,3.72,1.541,5.584,2.312c0.052-1.445-0.135-2.635-0.273-4.086c-0.318-3.289-4.838-4.083-6.769-1.34
			c-0.68,1.405-1.075,4.581-1.908,4.331c-1.665,0.247-5.327-0.134-6.8,0.878c-2.781,1.915-3.038,6.586-4.021,9.701
			c-0.604,1.912,1.06,4.318,3.152,4.139c2.541-0.218,5.087-0.326,7.628-0.545C173.104,111.144,173.137,104.603,168.933,104.964z"/>
		<path fill="#FFFFFF" d="M190.176,99.13c1.244-0.808,2.49-1.619,3.733-2.427c-1.337-1.342-2.68-2.682-4.02-4.021
			c-2.812,14.876-23.846,15.686-35.809,16.943c-4.149,0.437-4.19,6.979,0,6.539c15.019-1.58,38.619-3.269,42.107-21.743
			c0.438-2.304-1.469-4.84-4.018-4.02c-2.752,0.882-4.575,2.076-6.619,4.109C182.555,97.481,187.18,102.103,190.176,99.13z"/>
		<path fill="#AECCD9" d="M376.159,144.237c0.613,1.387,0.137,2.951-0.322,4.292c2.137,0.29,4.277,0.58,6.415,0.87
			c0.013-0.239,0.017-0.479,0.017-0.721c0.032-0.2,0.585-1.347,0.118-0.782c-1.858-0.772-3.718-1.541-5.584-2.313
			c-0.089,1.62-1.044,3.305-1.512,4.852c-1.234,4.043,5.073,5.758,6.31,1.739c0.68-2.21,1.615-4.25,1.753-6.591
			c0.148-2.717-3.772-4.514-5.582-2.312c-1.49,1.814-1.984,3.806-2.045,6.127c-0.103,3.855,5.242,4.226,6.418,0.869
			c1.112-3.182,1.041-6.255-0.325-9.33c-0.725-1.63-3.063-1.999-4.477-1.175C375.671,140.739,375.438,142.609,376.159,144.237z"/>
		<path fill="#AECCD9" d="M353.246,309.607c-11.855,1.57-24.945-1.514-35.392-6.459c-3.974-1.881-7.698,3.208-3.724,5.091
			c12.214,5.78,26.94,9.089,40.768,7.246C359.373,314.903,357.692,309.019,353.246,309.607z"/>
		<path fill="#AECCD9" d="M140.871,310.612c17.208,2.082,34.109,2.644,51.27-0.121c4.154-0.67,2.387-6.963-1.737-6.308
			c-16.55,2.663-32.965,1.888-49.534-0.122C136.694,303.569,136.74,310.116,140.871,310.612z"/>
		<path fill="#FFFFFF" d="M257.184,410.452c-0.219,7.504-6.476,13.404-13.988,13.186c-7.506-0.22-13.412-6.476-13.193-13.979
			c0.219-7.512,6.481-13.418,13.986-13.198C251.502,396.679,257.404,402.939,257.184,410.452z"/>
		<path fill="#424143" d="M257.184,410.452l-1.498-0.044c-0.19,6.556-5.563,11.734-12.084,11.734c-0.12,0-0.24-0.002-0.362-0.005
			l-0.05-0.002l0.051,0.002c-6.558-0.19-11.744-5.563-11.743-12.076c0-0.119,0.001-0.239,0.005-0.359
			c0.19-6.563,5.568-11.749,12.082-11.748c0.12,0,0.24,0.002,0.36,0.005l-0.039-0.001l0.041,0.001
			c6.563,0.19,11.744,5.564,11.744,12.086c0,0.12-0.002,0.241-0.004,0.364L257.184,410.452l1.5,0.043
			c0.004-0.15,0.006-0.301,0.006-0.45c0-8.141-6.467-14.845-14.656-15.084h0.002c-0.151-0.005-0.302-0.007-0.451-0.007
			c-8.135,0.001-14.84,6.472-15.081,14.66c-0.004,0.148-0.006,0.3-0.006,0.448c0.001,8.135,6.472,14.834,14.655,15.073h0.001
			c0.148,0.005,0.297,0.007,0.447,0.007c8.14,0,14.843-6.465,15.083-14.646L257.184,410.452z"/>
		<path fill="#FFFFFF" d="M220.088,349.633c-0.219,7.503-6.483,13.41-13.989,13.19c-7.505-0.22-13.419-6.481-13.2-13.984
			c0.219-7.513,6.486-13.414,13.994-13.194C214.399,335.859,220.308,342.12,220.088,349.633z"/>
		<path fill="#424143" d="M220.088,349.633l-1.5-0.044c-0.189,6.554-5.57,11.741-12.084,11.74c-0.12,0-0.241-0.002-0.362-0.005
			c-6.556-0.189-11.75-5.571-11.749-12.082c0-0.119,0.001-0.239,0.005-0.359c0.19-6.562,5.572-11.746,12.09-11.744
			c0.12,0,0.239,0.002,0.359,0.004h0.002c6.557,0.188,11.744,5.564,11.744,12.086c0,0.119-0.002,0.24-0.005,0.361L220.088,349.633
			l1.5,0.043c0.004-0.148,0.006-0.299,0.006-0.447c0-8.143-6.473-14.848-14.658-15.084h0.002c-0.151-0.004-0.3-0.006-0.449-0.006
			c-8.137,0-14.849,6.465-15.089,14.656c-0.004,0.148-0.006,0.299-0.006,0.447c0.001,8.135,6.479,14.84,14.662,15.08
			c0.15,0.005,0.3,0.007,0.449,0.007c8.136-0.001,14.842-6.472,15.083-14.652L220.088,349.633z"/>
		<path fill="#FFFFFF" d="M174.164,399.134c-0.219,7.507-6.479,13.424-13.986,13.204c-7.513-0.219-13.419-6.491-13.2-13.999
			c0.219-7.491,6.481-13.409,13.994-13.19C168.479,385.364,174.383,391.635,174.164,399.134z"/>
		<path fill="#424143" d="M174.164,399.134l-1.5-0.044c-0.19,6.561-5.568,11.755-12.082,11.754c-0.12,0-0.24-0.002-0.362-0.005
			c-6.563-0.188-11.75-5.578-11.749-12.096c0-0.12,0.001-0.24,0.005-0.36c0.188-6.543,5.569-11.742,12.089-11.74
			c0.12,0,0.24,0.002,0.36,0.006h0.033h-0.031c6.558,0.187,11.742,5.572,11.741,12.082c0,0.118-0.001,0.239-0.005,0.359
			L174.164,399.134l1.5,0.044c0.004-0.149,0.006-0.299,0.006-0.447c-0.001-8.129-6.467-14.844-14.655-15.08l-0.033-0.002
			l0.035,0.002c-0.151-0.006-0.301-0.008-0.45-0.008c-8.144,0.002-14.847,6.48-15.088,14.652c-0.004,0.15-0.006,0.3-0.006,0.448
			c0.001,8.138,6.469,14.854,14.662,15.094c0.149,0.005,0.298,0.007,0.448,0.007c8.139-0.001,14.84-6.481,15.081-14.666
			L174.164,399.134z"/>
		<path fill="#FFFFFF" d="M340.846,404.011c-0.221,7.514-6.485,13.414-13.985,13.195c-7.509-0.22-13.42-6.478-13.199-13.989
			c0.219-7.502,6.483-13.414,13.994-13.193C335.154,390.234,341.064,396.503,340.846,404.011z"/>
		<path fill="#424143" d="M340.846,404.011l-1.499-0.044c-0.19,6.563-5.573,11.746-12.084,11.745c-0.119,0-0.238-0.002-0.359-0.005
			c-6.56-0.191-11.749-5.564-11.748-12.083c0-0.121,0.002-0.242,0.005-0.362c0.188-6.554,5.572-11.746,12.09-11.744
			c0.12,0,0.24,0.002,0.36,0.004h0.002c6.55,0.185,11.741,5.568,11.739,12.087c0,0.118-0.002,0.238-0.005,0.359L340.846,404.011
			l1.499,0.043c0.005-0.147,0.007-0.298,0.007-0.445c-0.001-8.14-6.474-14.851-14.653-15.085h-0.026h0.028
			c-0.151-0.004-0.301-0.006-0.45-0.006c-8.14,0-14.848,6.476-15.088,14.655c-0.005,0.15-0.007,0.301-0.007,0.451
			c0.001,8.142,6.478,14.841,14.661,15.081c0.148,0.005,0.299,0.007,0.446,0.007c8.131-0.001,14.84-6.466,15.082-14.657
			L340.846,404.011z"/>
		<path fill="#FFFFFF" d="M369.797,350.586c-0.219,7.502-6.477,13.418-13.984,13.198c-7.512-0.22-13.413-6.49-13.192-13.992
			c0.219-7.509,6.477-13.418,13.988-13.198C364.115,336.812,370.016,343.077,369.797,350.586z"/>
		<path fill="#424143" d="M369.797,350.586l-1.499-0.044c-0.188,6.554-5.565,11.749-12.081,11.748c-0.119,0-0.24-0.002-0.36-0.005
			c-6.561-0.189-11.743-5.576-11.742-12.086c0-0.121,0.002-0.242,0.005-0.362l0.002-0.044l-0.002,0.043
			c0.189-6.561,5.563-11.749,12.084-11.748c0.12,0,0.24,0.002,0.359,0.005c6.561,0.19,11.74,5.57,11.74,12.089
			c0,0.119-0.002,0.24-0.005,0.361L369.797,350.586l1.499,0.043c0.005-0.148,0.007-0.298,0.007-0.447
			c0-8.138-6.465-14.847-14.65-15.086c-0.15-0.006-0.302-0.008-0.449-0.008c-8.143,0.001-14.843,6.475-15.082,14.66l-0.002,0.044
			l0.002-0.045c-0.005,0.151-0.007,0.302-0.007,0.452c0.001,8.131,6.465,14.844,14.654,15.084c0.15,0.005,0.301,0.007,0.448,0.007
			c8.141-0.001,14.839-6.479,15.079-14.66L369.797,350.586z"/>
		<path fill="#FFFFFF" d="M297.174,351.884c-0.219,7.505-6.48,13.41-13.98,13.191c-7.51-0.22-13.414-6.481-13.194-13.985
			c0.219-7.512,6.479-13.414,13.987-13.193C291.488,338.109,297.393,344.371,297.174,351.884z"/>
		<path fill="#424143" d="M297.174,351.884l-1.499-0.044c-0.188,6.557-5.569,11.742-12.077,11.741c-0.119,0-0.24-0.002-0.361-0.005
			c-6.561-0.19-11.744-5.57-11.743-12.083c0-0.119,0.002-0.239,0.005-0.358c0.189-6.564,5.566-11.746,12.084-11.744
			c0.12,0,0.24,0.002,0.359,0.004h-0.016h0.018c6.553,0.188,11.736,5.562,11.736,12.086c0,0.119-0.002,0.239-0.005,0.36
			L297.174,351.884l1.499,0.043c0.005-0.149,0.007-0.298,0.007-0.446c0-8.143-6.469-14.849-14.65-15.084h0.017h-0.014
			c-0.151-0.004-0.302-0.006-0.45-0.006c-8.137,0-14.844,6.467-15.082,14.655c-0.005,0.149-0.007,0.3-0.007,0.447
			c0.001,8.135,6.469,14.84,14.657,15.081c0.148,0.005,0.299,0.007,0.447,0.007c8.131-0.001,14.836-6.472,15.075-14.653
			L297.174,351.884z"/>
		<circle fill="#FFFFFF" cx="126.199" cy="343.471" r="13.598"/>
		<path fill="#424143" d="M126.596,329.879l-0.044,1.499c6.56,0.19,11.746,5.567,11.746,12.086c0,0.119-0.002,0.24-0.005,0.36
			c-0.19,6.559-5.568,11.744-12.084,11.744c-0.12,0-0.241-0.002-0.362-0.006c-6.559-0.189-11.746-5.567-11.745-12.084
			c0-0.121,0.001-0.24,0.005-0.36c0.19-6.562,5.569-11.746,12.085-11.745c0.12,0,0.24,0.002,0.359,0.005l-0.058-0.001l0.058,0.001
			L126.596,329.879l0.044-1.499c-0.15-0.005-0.3-0.007-0.448-0.007c-8.137,0.001-14.844,6.47-15.084,14.657
			c-0.004,0.149-0.006,0.3-0.006,0.448c0,8.138,6.471,14.844,14.658,15.082c0.149,0.006,0.299,0.008,0.448,0.008
			c8.137-0.002,14.843-6.471,15.083-14.656c0.004-0.15,0.006-0.301,0.006-0.448c0-8.139-6.472-14.844-14.658-15.084l0.062,0.001
			l-0.062-0.001L126.596,329.879z"/>
		<circle fill="#FFFFFF" cx="197.568" cy="454.186" r="13.598"/>
		<path fill="#424143" d="M197.965,440.594l-0.044,1.499c6.557,0.19,11.746,5.573,11.745,12.087c0,0.119-0.002,0.239-0.005,0.359
			c-0.19,6.559-5.57,11.745-12.084,11.744c-0.12,0-0.241-0.002-0.362-0.005l0.083,0.002l-0.083-0.002
			c-6.559-0.19-11.745-5.568-11.744-12.085c0-0.12,0.001-0.24,0.005-0.36c0.189-6.557,5.569-11.746,12.086-11.745
			c0.12,0,0.239,0.002,0.358,0.005l-0.071-0.002l0.072,0.002L197.965,440.594l0.045-1.499c-0.151-0.005-0.3-0.007-0.448-0.007
			c-8.139,0.001-14.844,6.475-15.085,14.657c-0.004,0.149-0.006,0.3-0.006,0.448c0,8.138,6.471,14.844,14.657,15.083l-0.075-0.002
			l0.076,0.002c0.149,0.005,0.298,0.007,0.448,0.007c8.135-0.001,14.842-6.471,15.083-14.656c0.004-0.148,0.006-0.299,0.006-0.447
			c-0.001-8.136-6.472-14.844-14.657-15.085l0.071,0.002l-0.07-0.002L197.965,440.594z"/>
		<circle fill="#FFFFFF" cx="289.488" cy="456.873" r="13.6"/>
		<path fill="#424143" d="M289.885,443.278l-0.044,1.499c6.56,0.189,11.748,5.572,11.747,12.09c0,0.119-0.002,0.239-0.005,0.359
			c-0.188,6.558-5.569,11.746-12.086,11.745c-0.12,0-0.241-0.002-0.362-0.005c-6.561-0.188-11.748-5.572-11.748-12.088
			c0-0.12,0.002-0.239,0.006-0.358c0.19-6.561,5.572-11.75,12.09-11.749c0.119,0,0.238,0.003,0.357,0.006L289.885,443.278
			l0.045-1.499c-0.149-0.005-0.3-0.007-0.447-0.007c-8.14,0.001-14.846,6.474-15.088,14.659c-0.006,0.149-0.008,0.3-0.008,0.447
			c0.002,8.138,6.473,14.846,14.661,15.086c0.15,0.005,0.3,0.007,0.449,0.007c8.138-0.001,14.844-6.474,15.084-14.657
			c0.005-0.15,0.007-0.3,0.007-0.447c-0.001-8.139-6.473-14.848-14.658-15.088L289.885,443.278z"/>
		<path fill="#658194" d="M415.665,233.305c-4.374,48.657-50.527,50.905-89.593,45.634c-9.357-1.258-13.399,13.035-3.943,14.315
			c49.943,6.741,103.014-0.14,108.38-59.95C431.368,223.763,416.515,223.85,415.665,233.305z"/>
		<path fill="#658194" d="M116.206,268.316c-37.534-31.249-19.073-71.54,10.834-95.15c6.969-5.505-2.962-17.275-9.608-11.247
			c-35.245,31.97-55.351,79.423-9.219,117.83C115.573,285.879,123.505,274.389,116.206,268.316z"/>
	</g>
</g>
</svg>
