<?xml version="1.0" encoding="utf-8"?>
<!-- Generator: Adobe Illustrator 15.1.0, SVG Export Plug-In . SVG Version: 6.00 Build 0)  -->
<!DOCTYPE svg PUBLIC "-//W3C//DTD SVG 1.1//EN" "http://www.w3.org/Graphics/SVG/1.1/DTD/svg11.dtd">
<svg version="1.1" id="Layer_1" xmlns="http://www.w3.org/2000/svg" xmlns:xlink="http://www.w3.org/1999/xlink" x="0px" y="0px"
	 width="250px" height="250px" viewBox="0 0 250 250" enable-background="new 0 0 250 250" xml:space="preserve">
<g>
	<circle fill="#FFFFFF" cx="110.299" cy="117.316" r="40.782"/>
	<ellipse fill="#FDE145" cx="115.206" cy="123.297" rx="35.029" ry="34.384"/>
	<circle fill="none" stroke="#000000" stroke-width="2" stroke-miterlimit="10" cx="110.299" cy="117.646" r="40.782"/>
</g>
<g>
	<path fill="#FFFFFF" d="M93.293,72.826c-0.189,0.539-5.159,1.756-9.494,4.472c-4.147,2.594-6.831,5.991-7.655,5.927
		c-0.817-0.064-17.428-42.835-15.431-44.299C62.428,37.667,93.704,71.653,93.293,72.826z"/>
	<path fill="#FDE145" d="M93.324,72.842c-0.153,0.389-3.852,1.37-7.115,3.41c-3.123,1.95-5.18,4.438-5.787,4.411
		c-0.603-0.028-11.906-30.236-10.398-31.33C71.319,48.395,93.652,71.993,93.324,72.842z"/>
	<path fill="none" stroke="#000000" stroke-width="1.5" stroke-miterlimit="10" d="M93.293,72.826
		c-0.189,0.539-5.159,1.756-9.494,4.472c-4.147,2.594-6.831,5.991-7.655,5.927c-0.817-0.064-17.428-42.835-15.431-44.299
		C62.428,37.667,93.704,71.653,93.293,72.826z"/>
</g>
<path fill="#FDE145" stroke="#000000" stroke-width="1.5" stroke-miterlimit="10" d="M156.476,101.827
	c-0.548-0.167-1.961-5.083-4.845-9.308c-2.758-4.041-6.26-6.588-6.228-7.413c0.033-0.82,42.264-18.979,43.652-17.177
	C190.302,69.541,157.663,102.192,156.476,101.827z"/>
<path fill="#FDE145" stroke="#000000" stroke-width="1.5" stroke-miterlimit="10" d="M63.978,132.24
	c0.543,0.176,1.858,5.122,4.656,9.402c2.676,4.096,6.126,6.712,6.077,7.536c-0.049,0.82-42.555,18.284-43.99,16.296
	C29.444,163.706,62.797,131.851,63.978,132.24z"/>
<g>
	<path fill="#FFFFFF" d="M67.003,97.207c0.223,0.526-2.628,4.774-4.005,9.7c-1.318,4.711-1.013,9.031-1.665,9.538
		c-0.647,0.502-41.735-19.92-41.246-22.349C20.508,92.014,66.517,96.064,67.003,97.207z"/>
	<path fill="#FDE145" d="M65.045,100.858c0.203,0.37-1.709,3.555-2.452,7.171c-0.712,3.459-0.21,6.567-0.676,6.959
		c-0.464,0.389-33.058-12.716-32.835-14.491C29.272,98.973,64.602,100.051,65.045,100.858z"/>
	<path fill="none" stroke="#000000" stroke-width="1.5" stroke-miterlimit="10" d="M67.037,96.566
		c0.239,0.521-2.49,4.849-3.723,9.812c-1.18,4.747-0.75,9.056-1.387,9.581c-0.632,0.521-42.385-18.74-41.875-21.144
		C20.522,92.598,66.518,95.437,67.037,96.566z"/>
</g>
<g>
	<path fill="#FFFFFF" d="M130.972,74.939c-0.525,0.232-4.815-2.556-9.762-3.857c-4.731-1.246-9.044-0.875-9.562-1.519
		c-0.512-0.64,19.285-42.034,21.719-41.581C135.456,28.372,132.104,74.435,130.972,74.939z"/>
	<path fill="#FDE145" d="M131.563,73.875c-0.357,0.207-3.188-1.805-6.498-2.603c-3.163-0.768-6.081-0.267-6.415-0.756
		c-0.331-0.484,13.949-34.332,15.579-34.088C135.629,36.637,132.341,73.417,131.563,73.875z"/>
	<path fill="none" stroke="#000000" stroke-width="1.5" stroke-miterlimit="10" d="M131.148,74.949
		c-0.523,0.237-4.836-2.512-9.794-3.77c-4.743-1.207-9.052-0.798-9.575-1.439c-0.517-0.634,18.954-42.356,21.357-41.767
		C135.323,28.51,132.279,74.437,131.148,74.949z"/>
</g>
<g>
	<g>
		<g>
			<path fill="#FFFFFF" d="M87.929,185.196c-6.325-4.473-9.546-11.963-9.593-19.574c-2.795,0.757-5.59,1.515-8.386,2.271
				c-0.037-0.147-0.074-0.294-0.111-0.441c2.742-0.358,5.483-0.717,8.225-1.075c-2.438-4.169,1.366-11.658,3.643-15.289
				c2.205-3.514,6.998-5.202,10.407-7.229c3.204-1.904,2.837-7.376-1.075-8.225c-1.284-0.279-2.32-0.205-3.603,0.017
				c-5.711,0.985-3.282,9.657,2.393,8.678c-0.394-0.005-0.789-0.011-1.183-0.017c-0.358-2.741-0.717-5.482-1.075-8.225
				c-6.081,3.614-11.497,6.36-15.011,12.814c-3.456,6.347-6.152,15.375-2.268,22.018c2.023,3.459,7.068,2.585,8.225-1.075
				c0.765-2.419,0.586-4.342-0.796-6.494c-2.364-3.679-8.414-2.35-8.386,2.271c0.067,10.975,5.075,20.999,14.051,27.346
				C88.137,196.327,92.626,188.518,87.929,185.196L87.929,185.196z"/>
		</g>
	</g>
	<g>
		<g>
			<path fill="#FFFFFF" d="M91.506,142.873c2.967-3.047,7.83-3.357,11.84-3.812c5.267-0.597,10.633-1.283,15.747-2.696
				c3.599-0.994,5.604-1.543,7.228-5.315c0.8-1.857,0.654-3.693,0.919-5.657c0.315-2.341,2.273-4.989,3.69-6.792
				c6.224-7.919,16.655-12.366,26.591-12.325c11.042,0.045,22.143,9.28,25.883,19.348c2.002,5.391,10.703,3.06,8.678-2.393
				c-4.443-11.965-14.688-21.212-26.88-24.875c-10.999-3.305-23.671,0.587-32.842,6.836c-4.672,3.184-8.567,7.365-11.421,12.236
				c-1.192,2.034-2.22,4.404-2.536,6.742c-0.104,0.775,0.103,2.438-0.185,3.105c-0.941,2.186,2.6-0.32-0.412,0.214
				c-6.079,1.077-12.082,2.189-18.209,3.031c-5.328,0.732-10.584,2.013-14.455,5.987C81.092,140.668,87.451,147.037,91.506,142.873
				L91.506,142.873z"/>
		</g>
	</g>
	<g>
		<path fill="#FFFFFF" stroke="#FFFFFF" stroke-miterlimit="10" d="M162.734,156.137c5.336,19.507-10.494,40.832-35.36,47.633
			c-24.866,6.807-49.35-3.49-54.685-22.994c-5.337-19.505,10.495-40.832,35.36-47.635
			C132.915,126.336,157.399,136.632,162.734,156.137z"/>
		
			<ellipse transform="matrix(0.9999 -0.0134 0.0134 0.9999 -1.8465 2.1675)" fill="#FFFFFF" stroke="#FFFFFF" stroke-miterlimit="10" cx="160.662" cy="138.733" rx="37.676" ry="36.211"/>
		
			<ellipse transform="matrix(0.9999 -0.0134 0.0134 0.9999 -1.7907 2.1071)" fill="#FFFFFF" stroke="#FFFFFF" stroke-width="2" stroke-miterlimit="10" cx="156.226" cy="134.583" rx="42.055" ry="40.419"/>
		
			<ellipse transform="matrix(0.9999 -0.0134 0.0134 0.9999 -2.2085 1.5514)" fill="#FFFFFF" stroke="#FFFFFF" stroke-width="2" stroke-miterlimit="10" cx="114.583" cy="165.46" rx="49.447" ry="41.09"/>
		
			<ellipse transform="matrix(-0.9999 0.0134 -0.0134 -0.9999 373.3288 346.7243)" fill="#FFFFFF" stroke="#FFFFFF" stroke-width="2" stroke-miterlimit="10" cx="185.502" cy="174.614" rx="41.764" ry="32.333"/>
		
			<rect x="108.456" y="174.415" transform="matrix(0.9999 -0.0134 0.0134 0.9999 -2.5341 1.9899)" fill="#FFFFFF" stroke="#FFFFFF" stroke-width="2" stroke-miterlimit="10" width="77.246" height="30.986"/>
	</g>
	<g>
		<path fill="#72CDE2" d="M161.935,156.001c5.352,19.563-10.524,40.95-35.461,47.771c-24.938,6.824-49.491-3.502-54.841-23.06
			c-5.353-19.561,10.524-40.948,35.46-47.772C132.029,126.117,156.585,136.441,161.935,156.001z"/>
		
			<ellipse transform="matrix(0.9999 -0.0134 0.0134 0.9999 -1.8424 2.1547)" fill="#72CDE2" cx="159.855" cy="138.548" rx="37.784" ry="36.314"/>
		<path fill="none" stroke="#000000" stroke-width="2" stroke-miterlimit="10" d="M197.58,133.822
			c0.3,22.383-18.338,40.783-41.629,41.096c-23.287,0.312-42.414-17.582-42.714-39.965c-0.3-22.382,18.34-40.781,41.627-41.093
			C178.155,93.547,197.279,111.439,197.58,133.822z"/>
		
			<ellipse transform="matrix(0.9999 -0.0134 0.0134 0.9999 -2.2073 1.539)" fill="none" stroke="#000000" stroke-width="2" stroke-miterlimit="10" cx="113.646" cy="165.351" rx="49.588" ry="41.209"/>
		
			<ellipse transform="matrix(-0.9999 0.0134 -0.0134 -0.9999 371.8605 346.5685)" fill="#72CDE2" stroke="#000000" stroke-width="2" stroke-miterlimit="10" cx="184.768" cy="174.532" rx="41.884" ry="32.426"/>
		
			<rect x="107.502" y="174.334" transform="matrix(0.9999 -0.0134 0.0134 0.9999 -2.5336 1.9785)" fill="#72CDE2" stroke="#000000" stroke-width="2" stroke-miterlimit="10" width="77.466" height="31.074"/>
	</g>
	<path fill="#72CDE2" d="M192.278,137.033c-10.064-1.364-20.398,0.512-29.669,4.585c-3.208-4.567-7.719-7.666-12.406-10.639
		c-2.886-1.828-5.514-3.864-8.563-5.458c-2.505-1.31-5.749-1.249-7.909-3.209c-1.817-1.652-4.999-1.915-6.725,0.09
		c-0.084,0.099-0.153,0.193-0.233,0.293c-0.768,0.556-1.415,1.325-1.802,2.326c-0.219,0.568-0.438,1.135-0.657,1.698
		c-1.71,4.429,3.473,6.791,6.893,5c3.025,1.417,6.334,2.246,9.297,4.02c2.376,1.416,4.538,3.169,6.876,4.65
		c1.546,0.926,3.001,1.973,4.373,3.142l1.212,1.25c-7.326,4.863-13.542,12.545-14.454,21.389c-4.104-2.341-7.867-5.214-11.265-8.614
		c-5.629-5.638-7.35-12.524-8.494-19.992c0.922-2.783-0.561-6.462-4.395-6.41c-0.568,0.007-1.06,0.116-1.518,0.268
		c-2.272,0.129-4.265,1.631-3.853,4.532c1.465,10.289,3.499,18.58,10.208,26.811c2.647,3.25,5.866,6.021,9.369,8.422
		c-4.04-0.219-8.067-0.608-12.074-1.265c-2.147-0.351-4.38-0.512-6.434-0.176c-0.817,0.003-1.653,0.183-2.441,0.598
		c-0.494,0.262-0.915,0.522-1.29,0.794c-1.073,0.699-2.011,1.662-2.742,2.985c-1.098,1.984-0.763,3.764,0.263,5.014
		c-0.343,0.331-0.607,0.747-0.73,1.233c-0.208,0.83-0.225,1.697-0.217,2.545c0.02,1.625,1.202,2.474,2.463,2.578
		c-0.651,3.298-1.463,6.602-1.083,9.904c-3.066,1.942-3.038,8.098,1.302,8.729c6.916,1.004,13.396,1.326,20.181-0.607
		c5.425-1.549,3.768-8.883-1.39-9.271c-3.072-0.232-6.148-0.351-9.196-0.827c-3.002-0.471-1.188-3.186-0.68-5.463
		c0.612-2.719,1.033-5.709,1.013-8.65c1.495,0.25,2.971,0.56,4.484,0.696c6.265,0.565,12.513,0.903,18.805,0.877
		c0.05-0.001,0.093-0.01,0.143-0.01c0.029-0.001,0.054,0.007,0.082,0.006c0.101-0.001,0.189-0.027,0.286-0.032
		c0.1-0.009,0.199-0.017,0.295-0.033c1.603-0.195,2.729-1.054,3.355-2.213c0.392,0.155,0.782,0.319,1.173,0.464
		c1.233,0.455,2.296,0.37,3.167-0.027c4.847,0.892,11.023-0.241,15.278-0.373c3.493-0.106,6.994-0.11,10.489-0.157l6.965-0.094
		c0.087,7.219,1.557,14.669,0.796,21.779c-0.01,0.085,0.003,0.155,0,0.241c-0.427-0.097-0.853-0.19-1.271-0.263
		c-2.428-0.419-4.801-1.011-7.128-1.82c-2.482-0.869-3.49,3.062-1.031,3.921c0.817,0.287,1.638,0.523,2.462,0.743
		c2.794,1.13,5.727,1.752,8.739,1.837c1.172,0.184,2.337,0.29,3.526,0.181c0.169,0.041,0.348,0.066,0.539,0.063l0.343-0.004
		c1.012-0.014,1.623-0.629,1.844-1.373c0.082-0.229,0.134-0.471,0.127-0.723c0.711-0.736,1.225-1.706,1.358-2.931
		c0.738-6.915-1.322-13.684-0.876-20.641c0.22-3.477,0.152-9.567-4.632-10.189c-7.29-0.948-15.034-0.181-22.378-0.025
		c-3.93,0.081-7.854,0.262-11.79,0.247c-0.848-0.185-1.438-0.262-1.827-0.256c-0.641-1.291-0.934-2.688-0.605-4.172
		c1.115-5.007,6.138-10.24,10.413-12.818c0.725-0.438,1.472-0.93,2.178-1.475c1.265,0.661,2.818,0.82,4.428,0.037
		c7.308-3.569,16.491-5.687,24.632-4.583C195.882,146.999,198.335,137.855,192.278,137.033z"/>
	<path fill="#FFFFFF" d="M122.518,120.105c-0.289,0.014-0.567,0.102-0.82,0.265c-0.594-0.287-1.304-0.281-1.949,0.018
		c-0.21,0.075-0.406,0.189-0.581,0.332c-1.121-0.506-2.137-0.329-2.668,1.183c-0.325,0.917-0.946,2.316-1.1,3.269
		c-0.941-0.044-2.476,0.088-3.436,0.108c-1.083,0.021-1.297,0.219-1.546,1.016c-0.865,0.441-1.518,1.058-1.684,1.954
		c-0.637,1.049-0.96,4.196,0.491,3.866c0.312-0.072,0.798-0.19,1.276-0.302c0.276-0.062-1.799,0.418,0.984-0.211
		c0.062-0.005,0.123-0.011,0.181-0.018c0.593-0.058,1.182-0.152,1.773-0.225c3.586-0.443,2.307-0.763,2.566-1.955
		c0.327-0.048,0.651-0.096,0.97-0.162c0.664-0.14,1.096-0.608,1.334-1.176c0.186-0.103,0.368-0.215,0.54-0.384
		c0.428-0.419,0.821-0.875,1.219-1.325c0.554,1.533,2.98,2.286,4.042,0.438c0.675-1.169,0.844-2.546,1.517-3.704
		C126.74,121.181,124.265,118.841,122.518,120.105z"/>
	<path fill="#73CEE4" d="M116.874,132.792c-0.326-1.123-1.431-1.598-2.513-1.379c-0.789,0.157-1.857,0.197-2.759,0.416
		c-1.073,0.261-1.679,1.486-1.382,2.512c0.316,1.095,1.44,1.645,2.513,1.382c0.836-0.203,1.819-0.228,2.759-0.417
		C116.577,135.089,117.161,133.786,116.874,132.792z"/>
	<path fill="#73CEE4" d="M128.118,122.924c-0.921-0.525-2.269-0.224-2.761,0.764c-0.458,0.918-0.836,1.873-1.158,2.844
		c-0.351,1.048,0.433,2.207,1.447,2.473c1.125,0.294,2.125-0.401,2.474-1.447c0.226-0.677,0.445-1.229,0.763-1.87
		C129.377,124.698,129.116,123.49,128.118,122.924z"/>
	<path fill="#1A98B5" d="M204.728,171.741c-1.364,17.882-18.295,18.927-32.656,17.189c-3.44-0.419-4.854,4.852-1.378,5.274
		c18.364,2.223,37.809-0.558,39.483-22.537C210.441,168.162,204.992,168.267,204.728,171.741z"/>
	<g>
		<g>
			<path fill="#72CDE2" d="M119.507,201.867c-1.562,1.09-3.593,0.784-5.397,0.794c-1.934,0.01-1.935,3.01,0,3
				c2.348-0.013,4.883,0.213,6.912-1.204C122.595,203.358,121.098,200.757,119.507,201.867L119.507,201.867z"/>
		</g>
	</g>
	<g>
		<g>
			<path fill="#72CDE2" d="M113.693,202.666c-2.259,0.019-4.507-0.111-6.755-0.325c-1.926-0.183-1.908,2.818,0,3
				c2.249,0.214,4.496,0.344,6.755,0.325C115.627,205.649,115.628,202.649,113.693,202.666L113.693,202.666z"/>
		</g>
	</g>
	<g>
		<g>
			<path fill="#72CDE2" d="M106.854,205.342c1.935,0,1.935-3,0-3S104.92,205.342,106.854,205.342L106.854,205.342z"/>
		</g>
	</g>
	<g>
		<g>
			<path fill="#72CDE2" d="M187.287,202.888c-1.929,0.21-3.803,0.459-5.746,0.327c-2.244-0.152-4.469-0.926-6.624-1.519
				c-1.868-0.515-2.66,2.38-0.797,2.893c4.588,1.264,8.414,1.816,13.167,1.299C189.188,205.681,189.209,202.679,187.287,202.888
				L187.287,202.888z"/>
		</g>
	</g>
</g>
</svg>
