<?xml version="1.0" encoding="utf-8"?>
<!-- Generator: Adobe Illustrator 15.1.0, SVG Export Plug-In . SVG Version: 6.00 Build 0)  -->
<!DOCTYPE svg PUBLIC "-//W3C//DTD SVG 1.1//EN" "http://www.w3.org/Graphics/SVG/1.1/DTD/svg11.dtd">
<svg version="1.1" id="Layer_1" xmlns="http://www.w3.org/2000/svg" xmlns:xlink="http://www.w3.org/1999/xlink" x="0px" y="0px"
	 width="500px" height="500px" viewBox="0 0 500 500" enable-background="new 0 0 500 500" xml:space="preserve">
<g>
	<circle fill="#FFFFFF" cx="217.714" cy="252.191" r="96.621"/>
	<ellipse fill="#FCE146" cx="229.34" cy="266.359" rx="82.989" ry="81.462"/>
	<path fill="#010101" d="M217.714,156.352v1.5c26.271,0,50.042,10.645,67.26,27.86c17.216,17.219,27.859,40.989,27.86,67.261
		c-0.001,26.271-10.645,50.041-27.86,67.26c-17.218,17.217-40.988,27.86-67.26,27.861c-26.271-0.001-50.042-10.645-67.26-27.861
		c-17.216-17.219-27.859-40.989-27.86-67.26c0-26.271,10.644-50.042,27.86-67.261c17.218-17.216,40.988-27.859,67.26-27.86V156.352
		v-1.5c-54.191,0.001-98.119,43.93-98.12,98.121c0.001,54.189,43.929,98.12,98.12,98.121c54.191-0.001,98.119-43.932,98.12-98.121
		c-0.001-54.191-43.929-98.12-98.12-98.121V156.352z"/>
	<path fill="#FFFFFF" d="M177.424,146.785c-0.449,1.277-12.224,4.16-22.494,10.596c-9.825,6.145-16.184,14.194-18.136,14.041
		c-1.936-0.151-41.291-101.484-36.56-104.952C104.297,63.486,178.397,144.006,177.424,146.785z"/>
	<path fill="#FCE146" d="M177.497,146.823c-0.363,0.921-9.126,3.245-16.856,8.078c-7.398,4.62-13.109,9.123-14.547,9.058
		c-1.429-0.066-26.498-72.034-22.926-74.626C126.234,87.111,178.273,144.811,177.497,146.823z"/>
	<path fill="#010101" d="M177.424,146.785l-1.179-0.415l0.789,0.277l-0.647-0.537c-0.031,0.039-0.09,0.114-0.142,0.259l0.789,0.277
		l-0.647-0.537l0.336,0.279l-0.305-0.314l-0.032,0.035l0.336,0.279l-0.305-0.314l0.014,0.014l-0.013-0.015l-0.001,0.001l0.014,0.014
		l-0.013-0.015c-0.039,0.04-0.341,0.227-0.777,0.426c-0.771,0.362-1.983,0.836-3.469,1.408c-4.469,1.725-11.447,4.365-17.907,8.412
		l0.001,0c-4.97,3.108-9.043,6.673-12.108,9.436c-1.53,1.379-2.813,2.561-3.793,3.361c-0.488,0.4-0.903,0.703-1.199,0.879
		c-0.147,0.088-0.264,0.143-0.327,0.166l-0.049,0.016l0.06,0.278v-0.283l-0.06,0.005l0.06,0.278v-0.283v0.519l0.04-0.518
		l-0.04-0.001v0.519l0.04-0.518l0.002,0l-0.089,1.139l0.629-0.958c-0.09-0.055-0.242-0.153-0.54-0.182l-0.089,1.139l0.629-0.958
		l-0.482,0.733l0.628-0.615l-0.146-0.118l-0.482,0.733l0.628-0.615l-0.308,0.302l0.326-0.282l-0.018-0.02l-0.308,0.302l0.326-0.282
		v0c-0.024-0.028-0.142-0.205-0.283-0.459c-0.565-1.01-1.6-3.25-2.922-6.326c-4.643-10.796-12.993-32.136-20.169-52.102
		c-3.588-9.984-6.885-19.629-9.278-27.437c-1.197-3.903-2.168-7.347-2.835-10.132c-0.669-2.775-1.024-4.931-1.019-6.075
		c-0.001-0.326,0.031-0.562,0.057-0.654l0.012-0.04l-0.093-0.036l0.088,0.045l0.005-0.009l-0.093-0.036l0.088,0.045l-0.523-0.268
		l0.342,0.467c0.119-0.087,0.168-0.174,0.181-0.199l-0.523-0.268l0.342,0.467l-0.009,0.006l0.01-0.007l-0.45-0.612v0.774
		c0.06,0.002,0.253-0.017,0.45-0.162l-0.45-0.612v0.774v-0.23l-0.037,0.229l0.037,0.002v-0.23l-0.037,0.229
		c0.013-0.002,0.217,0.057,0.494,0.202c0.548,0.279,1.396,0.846,2.429,1.644c3.898,3.002,10.48,9.22,18.077,16.854
		c11.406,11.457,25.163,26.141,36.057,38.26c5.447,6.059,10.179,11.479,13.538,15.525c1.679,2.022,3.015,3.703,3.914,4.93
		c0.449,0.612,0.789,1.114,0.996,1.462c0.104,0.172,0.173,0.308,0.202,0.375l0.014,0.034l0,0.001l0.666-0.204h-0.691
		c0.002,0.145,0.023,0.192,0.025,0.204l0.666-0.204h-0.691h1.055l-0.996-0.345c-0.051,0.148-0.059,0.264-0.06,0.345h1.055
		l-0.996-0.345l0.002-0.005l0,0L177.424,146.785l1.181,0.409c0.063-0.184,0.078-0.343,0.078-0.474
		c-0.005-0.303-0.068-0.482-0.127-0.655c-0.123-0.329-0.286-0.618-0.5-0.971c-0.416-0.672-1.032-1.529-1.847-2.59
		c-3.047-3.963-8.863-10.722-15.993-18.676c-10.692-11.925-24.317-26.502-35.822-38.114c-5.753-5.807-10.973-10.87-15.048-14.503
		c-2.04-1.817-3.789-3.276-5.204-4.306c-0.709-0.516-1.332-0.925-1.896-1.226c-0.283-0.151-0.551-0.275-0.824-0.371
		c-0.275-0.094-0.554-0.167-0.897-0.169c-0.298-0.001-0.685,0.07-1.03,0.324l0.001-0.001c-0.239,0.175-0.407,0.392-0.524,0.599
		c-0.335,0.631-0.369,1.21-0.381,1.903c0.002,0.956,0.152,2.127,0.416,3.553c0.995,5.317,3.664,14.161,7.146,24.539
		c5.223,15.553,12.27,34.48,18.177,49.545c2.954,7.533,5.622,14.098,7.637,18.799c1.008,2.352,1.852,4.236,2.497,5.559
		c0.324,0.663,0.594,1.183,0.83,1.578c0.12,0.2,0.227,0.366,0.362,0.534c0.07,0.085,0.145,0.172,0.272,0.278
		c0.132,0.095,0.31,0.266,0.77,0.319l0.037,0.003l-0.035-0.003l0.152,0.006c0.664-0.017,1.116-0.256,1.596-0.53
		c0.823-0.495,1.714-1.247,2.803-2.205c3.235-2.863,8.086-7.586,14.343-11.499l0.001,0c5.025-3.15,10.467-5.455,14.724-7.128
		c2.13-0.838,3.96-1.517,5.326-2.083c0.685-0.285,1.25-0.537,1.713-0.793c0.233-0.13,0.441-0.259,0.646-0.425
		c0.197-0.173,0.43-0.365,0.601-0.812l0.002-0.005l0,0L177.424,146.785z"/>
	<path fill="#FCE146" d="M327.118,215.493c-1.301-0.396-4.647-12.042-11.48-22.053c-6.534-9.573-14.83-15.608-14.757-17.562
		c0.078-1.943,100.133-44.965,103.418-40.696C407.256,139.001,329.929,216.358,327.118,215.493z"/>
	<path fill="#010101" d="M327.118,215.493l0.363-1.196l-0.242,0.798l0.507-0.667c-0.04-0.03-0.118-0.085-0.265-0.131l-0.242,0.798
		l0.507-0.667l-0.265,0.349l0.301-0.318l-0.036-0.03l-0.265,0.349l0.301-0.318l-0.016,0.016l0.018-0.015l-0.002-0.001l-0.016,0.016
		l0.018-0.015c-0.041-0.037-0.241-0.331-0.458-0.757c-0.393-0.755-0.914-1.946-1.546-3.407c-1.901-4.396-4.813-11.263-9.11-17.559
		c-3.321-4.866-7.068-8.81-9.956-11.768c-1.442-1.477-2.674-2.711-3.505-3.655c-0.415-0.469-0.729-0.869-0.908-1.15
		c-0.09-0.14-0.145-0.249-0.165-0.303l-0.011-0.029l-0.002-0.006l-0.319,0.08h0.326l-0.007-0.08l-0.319,0.08h0.326h-0.692
		l0.692,0.032v-0.032h-0.692l0.692,0.032v-0.004v-0.004l-1.142-0.046l0.978,0.596c0.053-0.092,0.146-0.248,0.164-0.55l-1.142-0.046
		l0.978,0.596l-0.744-0.454l0.632,0.603c0.02-0.021,0.056-0.058,0.112-0.149l-0.744-0.454l0.632,0.603l-0.3-0.286l0.282,0.304
		l0.018-0.018l-0.3-0.286l0.282,0.304l0.001-0.001c0.03-0.028,0.207-0.155,0.463-0.307c1.012-0.613,3.259-1.749,6.346-3.208
		c10.833-5.123,32.24-14.401,52.09-22.385c9.925-3.992,19.465-7.663,27.094-10.328c3.814-1.333,7.151-2.414,9.806-3.156
		c1.326-0.371,2.481-0.657,3.431-0.848c0.945-0.191,1.694-0.281,2.142-0.279c0.211-0.001,0.352,0.022,0.375,0.03l0.003,0.001
		l0.189-0.58l-0.466,0.358c0.146,0.184,0.276,0.22,0.276,0.221l0.189-0.58l-0.466,0.358l0.002,0.003l0.612-0.474h-0.791
		c-0.002,0.054,0.013,0.258,0.179,0.474l0.612-0.474h-0.791h0.189l-0.188-0.029l-0.001,0.029h0.189l-0.188-0.029
		c0,0.024-0.06,0.236-0.201,0.522c-0.271,0.565-0.819,1.438-1.587,2.503c-2.891,4.021-8.867,10.852-16.204,18.757
		c-11.014,11.868-25.127,26.215-36.775,37.584c-5.824,5.684-11.033,10.625-14.922,14.132c-1.943,1.753-3.559,3.149-4.737,4.087
		c-0.587,0.468-1.068,0.823-1.4,1.038c-0.164,0.106-0.293,0.178-0.352,0.205l-0.026,0.012l0.112,0.28l-0.073-0.292l-0.039,0.012
		l0.112,0.28l-0.073-0.292l0.205,0.822v-0.845c-0.109,0-0.17,0.015-0.205,0.023l0.205,0.822v-0.845v1.068l0.312-1.02
		c-0.132-0.04-0.235-0.048-0.312-0.048v1.068l0.312-1.02l-0.003-0.001L327.118,215.493l-0.367,1.195
		c0.163,0.05,0.304,0.062,0.421,0.062c0.323-0.006,0.505-0.078,0.679-0.142c0.329-0.134,0.607-0.305,0.949-0.531
		c0.648-0.436,1.473-1.081,2.493-1.932c3.81-3.184,10.305-9.256,17.949-16.698c11.462-11.158,25.473-25.369,36.633-37.339
		c5.581-5.986,10.447-11.41,13.938-15.627c1.746-2.111,3.146-3.917,4.135-5.368c0.494-0.728,0.886-1.363,1.173-1.933
		c0.144-0.286,0.262-0.555,0.353-0.826c0.088-0.273,0.156-0.546,0.159-0.881c0.001-0.298-0.068-0.697-0.345-1.057l-0.005-0.007
		l0.007,0.01c-0.325-0.412-0.724-0.577-1.058-0.669c-0.342-0.09-0.671-0.115-1.024-0.116c-0.886,0.003-1.96,0.174-3.302,0.47
		c-4.993,1.113-13.614,4.084-23.856,7.961c-15.348,5.813-34.247,13.653-49.33,20.208c-7.542,3.277-14.127,6.232-18.843,8.457
		c-2.359,1.112-4.249,2.04-5.574,2.744c-0.664,0.353-1.184,0.647-1.577,0.9c-0.199,0.129-0.363,0.243-0.528,0.384
		c-0.083,0.074-0.168,0.151-0.271,0.283c-0.091,0.136-0.257,0.32-0.293,0.787v-0.004v-0.004l-0.002,0.084
		c0.019,0.685,0.278,1.134,0.564,1.604c0.52,0.806,1.302,1.664,2.302,2.714c2.985,3.119,7.928,7.795,12.109,13.922
		c3.344,4.898,5.862,10.245,7.703,14.431c0.922,2.095,1.673,3.896,2.293,5.238c0.312,0.672,0.588,1.227,0.863,1.68
		c0.14,0.228,0.277,0.431,0.452,0.628c0.182,0.19,0.384,0.416,0.838,0.567l-0.005-0.001l0.001,0L327.118,215.493z"/>
	<path fill="#FCE146" d="M107.971,287.548c1.287,0.417,4.401,12.134,11.03,22.274c6.34,9.705,14.513,15.899,14.398,17.852
		c-0.116,1.941-100.822,43.316-104.222,38.61C26.152,362.097,105.172,286.625,107.971,287.548z"/>
	<path fill="#010101" d="M107.971,287.548l-0.385,1.189l0.259-0.799l-0.523,0.661c0.04,0.03,0.118,0.089,0.265,0.138l0.259-0.799
		l-0.523,0.661l0.275-0.348l-0.311,0.316l0.036,0.031l0.275-0.348l-0.311,0.316l0.1-0.102l-0.104,0.097l0.004,0.005l0.1-0.102
		l-0.104,0.097c0.011,0.001,0.206,0.281,0.408,0.698c0.372,0.739,0.868,1.932,1.468,3.403c1.811,4.428,4.597,11.412,8.798,17.841
		c3.215,4.921,6.871,8.93,9.695,11.941c1.411,1.504,2.617,2.762,3.433,3.724c0.407,0.479,0.716,0.886,0.893,1.175
		c0.089,0.143,0.144,0.256,0.166,0.314l0.014,0.041l0.314-0.069h-0.32l0.006,0.069l0.314-0.069h-0.32h0.52l-0.519-0.029
		l-0.001,0.029h0.52l-0.519-0.029l0-0.004v0.001l1.14,0.067l-0.968-0.611c-0.053,0.091-0.149,0.244-0.172,0.544l1.14,0.067
		l-0.968-0.611l0.739,0.467l-0.625-0.614l-0.115,0.147l0.739,0.467l-0.625-0.614l0.302,0.297l-0.283-0.315l-0.019,0.019l0.302,0.297
		l-0.283-0.315l-0.001,0.001c-0.028,0.025-0.205,0.148-0.459,0.294c-1.007,0.589-3.243,1.675-6.314,3.065
		c-10.779,4.884-32.088,13.7-51.972,21.281c-9.942,3.791-19.532,7.275-27.267,9.806c-3.866,1.265-7.27,2.291-10.007,2.996
		c-1.368,0.353-2.57,0.624-3.57,0.806c-0.999,0.182-1.804,0.27-2.33,0.269c-0.286,0.001-0.488-0.029-0.554-0.049l-0.022-0.007
		l-0.204,0.513l0.433-0.312c-0.116-0.157-0.228-0.199-0.229-0.2l-0.204,0.513l0.433-0.312l-0.032-0.044l0.032,0.045l-0.583,0.421
		h0.736c0.001-0.046-0.012-0.227-0.152-0.421l-0.583,0.421h0.736h-0.259l0.258,0.021l0.001-0.021h-0.259l0.258,0.021v-0.001
		c0.001-0.03,0.061-0.243,0.205-0.531c0.275-0.568,0.832-1.438,1.615-2.495c2.946-3.992,9.045-10.71,16.534-18.458
		c11.241-11.633,25.647-25.65,37.539-36.747c5.945-5.548,11.263-10.368,15.233-13.788c1.984-1.71,3.633-3.07,4.837-3.985
		c0.601-0.457,1.092-0.803,1.433-1.013c0.168-0.104,0.301-0.175,0.364-0.203l0.031-0.013l-0.011-0.027l0.009,0.027h0.002
		l-0.011-0.027l0.009,0.027l-0.219-0.69v0.719c0.152-0.002,0.204-0.025,0.219-0.028l-0.219-0.69v0.719v-1.062l-0.336,1.007
		c0.142,0.047,0.254,0.056,0.336,0.056v-1.062l-0.336,1.007l0.003,0.001l0.007,0.003L107.971,287.548l0.396-1.186
		c-0.175-0.059-0.328-0.072-0.455-0.073c-0.312,0.006-0.492,0.072-0.665,0.134c-0.329,0.127-0.613,0.294-0.96,0.514
		c-0.661,0.424-1.502,1.052-2.544,1.882c-3.89,3.104-10.521,9.026-18.326,16.289c-11.701,10.892-26.003,24.774-37.396,36.507
		c-5.697,5.868-10.665,11.195-14.229,15.359c-1.783,2.084-3.214,3.874-4.225,5.323c-0.506,0.726-0.907,1.364-1.201,1.941
		c-0.147,0.289-0.269,0.562-0.36,0.84c-0.091,0.278-0.159,0.56-0.161,0.896c-0.001,0.303,0.067,0.69,0.321,1.042l0.032,0.044
		l-0.032-0.043c0.166,0.229,0.373,0.396,0.573,0.513c0.303,0.174,0.595,0.255,0.888,0.308c0.293,0.051,0.592,0.069,0.912,0.07
		c0.935-0.003,2.076-0.162,3.473-0.442c5.21-1.054,13.965-3.876,24.277-7.557c15.455-5.52,34.329-12.966,49.363-19.198
		c7.517-3.116,14.072-5.929,18.766-8.049c2.348-1.061,4.228-1.946,5.548-2.621c0.662-0.338,1.18-0.62,1.573-0.865
		c0.198-0.124,0.363-0.234,0.53-0.373c0.084-0.072,0.169-0.147,0.274-0.277c0.093-0.134,0.26-0.314,0.305-0.776l0.001-0.009l0,0.006
		l0.003-0.113c-0.018-0.674-0.267-1.125-0.546-1.6c-0.508-0.814-1.274-1.688-2.253-2.758c-2.924-3.177-7.756-7.94-11.803-14.136
		c-3.245-4.962-5.655-10.358-7.411-14.58c-0.88-2.113-1.595-3.93-2.187-5.282c-0.298-0.679-0.562-1.238-0.827-1.696
		c-0.135-0.23-0.268-0.436-0.439-0.638c-0.177-0.193-0.375-0.423-0.828-0.584l0.008,0.003l0.002,0.001L107.971,287.548z"/>
	<path fill="#FFFFFF" d="M115.137,204.548c0.529,1.247-6.226,11.311-9.488,22.981c-3.122,11.161-2.401,21.392-3.945,22.598
		c-1.533,1.188-98.877-47.195-97.719-52.949C4.981,192.245,113.986,201.84,115.137,204.548z"/>
	<path fill="#FCE146" d="M110.498,213.198c0.482,0.876-4.049,8.422-5.81,16.99c-1.687,8.195-1.282,17.741-2.386,18.667
		c-1.099,0.921-77.536-32.307-77.008-36.512C25.745,208.731,109.449,211.287,110.498,213.198z"/>
	<path fill="#010101" d="M115.218,203.03l-1.136,0.521l0.7-0.32h-0.779c0.002,0.032-0.003,0.133,0.079,0.32l0.7-0.32h-0.779h0.167
		l-0.166-0.015l0,0.015h0.167l-0.166-0.015c0.004,0.028-0.074,0.365-0.245,0.803c-0.294,0.784-0.833,1.962-1.503,3.405
		c-2.015,4.343-5.224,11.118-7.071,18.551c-1.428,5.742-1.875,11.186-2.16,15.316c-0.142,2.062-0.244,3.802-0.397,5.042
		c-0.075,0.618-0.166,1.112-0.257,1.422c-0.044,0.154-0.089,0.261-0.113,0.305l-0.012,0.021v0l0.316,0.227l-0.246-0.299l-0.07,0.072
		l0.316,0.227l-0.246-0.299l-0.001,0.001l0.731,0.887l-0.248-1.125c-0.104,0.025-0.272,0.068-0.484,0.238l0.731,0.887l-0.248-1.125
		l0.2,0.909v-0.932c-0.036,0.001-0.094,0-0.2,0.023l0.2,0.909v-0.932v0.373l0.047-0.371l-0.047-0.002v0.373l0.047-0.371
		c-0.026-0.001-0.25-0.048-0.547-0.141c-1.19-0.361-3.702-1.343-7.075-2.766c-11.839-4.988-34.599-15.465-54.363-25.315
		c-9.882-4.924-19.021-9.695-25.661-13.536c-3.317-1.918-6.014-3.608-7.835-4.941c-0.909-0.664-1.601-1.243-2.016-1.674
		c-0.207-0.213-0.343-0.39-0.399-0.485l-0.029-0.051l-0.005-0.011l-0.409,0.158h0.431c0-0.105-0.022-0.156-0.022-0.158l-0.409,0.158
		h0.431l0,0H4.406l0.717,0.153l0.016-0.153H4.406l0.717,0.153v-0.001l-0.697-0.148l0.522,0.5c0.04-0.04,0.135-0.161,0.175-0.353
		l-0.697-0.148l0.522,0.5l-0.162-0.155l0.135,0.181l0.027-0.025l-0.162-0.155l0.135,0.181c0.007-0.01,0.188-0.114,0.485-0.207
		c0.524-0.172,1.394-0.348,2.51-0.493c3.364-0.441,8.97-0.64,15.837-0.639c15.833,0,38.464,1.033,57.222,2.311
		c9.379,0.639,17.795,1.339,23.903,2c3.053,0.33,5.532,0.651,7.242,0.944c0.853,0.146,1.518,0.287,1.93,0.404
		c0.204,0.057,0.347,0.111,0.382,0.129l0.002,0l0.323-0.56l-0.43,0.48l0.106,0.08l0.323-0.56l-0.43,0.48l0.688-0.769l-0.935,0.43
		c0.089,0.19,0.187,0.284,0.247,0.339l0.688-0.769l-0.935,0.43l0.002,0.005l-0.002-0.006L115.218,203.03l1.136-0.522
		c-0.151-0.314-0.33-0.461-0.468-0.57c-0.277-0.201-0.492-0.28-0.743-0.374c-0.476-0.166-1.064-0.304-1.826-0.452
		c-2.831-0.543-8.005-1.141-14.695-1.75c-20.05-1.821-53.501-3.682-74.869-3.682c-5.807,0-10.717,0.136-14.266,0.455
		c-1.778,0.161-3.208,0.362-4.297,0.639c-0.547,0.142-1.009,0.296-1.432,0.527c-0.211,0.118-0.418,0.257-0.616,0.462
		c-0.195,0.202-0.387,0.492-0.465,0.858l0,0.002l0-0.004c-0.027,0.126-0.039,0.25-0.039,0.369c0.013,0.606,0.247,1.014,0.495,1.387
		c0.5,0.71,1.239,1.373,2.25,2.164c1.89,1.463,4.726,3.266,8.295,5.345c12.475,7.26,33.86,17.808,52.559,26.563
		c9.348,4.376,18.018,8.301,24.559,11.136c3.271,1.417,6.009,2.562,8.044,3.359c1.019,0.398,1.86,0.709,2.52,0.928
		c0.331,0.109,0.615,0.196,0.868,0.26c0.261,0.062,0.456,0.113,0.771,0.119c0.09,0,0.193-0.004,0.337-0.035
		c0.141-0.033,0.338-0.088,0.57-0.275l-0.001,0.001c0.27-0.225,0.439-0.477,0.568-0.723c0.238-0.464,0.361-0.943,0.471-1.5
		c0.184-0.969,0.289-2.174,0.395-3.618c0.31-4.315,0.587-10.747,2.272-17.522c1.369-5.515,3.552-10.74,5.403-14.827
		c0.926-2.045,1.768-3.804,2.391-5.198c0.312-0.698,0.569-1.303,0.759-1.828c0.095-0.263,0.173-0.506,0.233-0.744
		c0.059-0.24,0.104-0.468,0.106-0.751c-0.002-0.196-0.019-0.431-0.148-0.721l-0.002-0.005l0.001,0.003L115.218,203.03z"/>
	<path fill="#FFFFFF" d="M266.695,151.792c-1.241,0.549-11.405-6.056-23.131-9.139c-11.208-2.953-21.428-2.073-22.654-3.599
		c-1.213-1.516,45.691-99.587,51.457-98.513C277.315,41.464,269.373,150.596,266.695,151.792z"/>
	<path fill="#FCE146" d="M266.637,151.814c-0.844,0.491-7.434-4.924-15.275-6.814c-7.496-1.82-13.546-2.529-14.337-3.688
		c-0.783-1.147,32.283-81.343,36.143-80.764C275.527,60.545,268.48,150.729,266.637,151.814z"/>
	<path fill="#010101" d="M267.109,151.814l-0.516-1.139l0.319,0.705v-0.782c-0.033,0.002-0.135-0.003-0.319,0.077l0.319,0.705
		v-0.782v0.185l0.016-0.185l-0.016,0v0.185l0.016-0.185c-0.023,0.005-0.359-0.074-0.795-0.246c-0.781-0.297-1.956-0.84-3.395-1.517
		c-4.333-2.034-11.098-5.279-18.53-7.165h0.001c-5.736-1.459-11.177-1.936-15.306-2.242c-2.062-0.153-3.8-0.265-5.04-0.424
		c-0.617-0.079-1.111-0.172-1.421-0.265c-0.154-0.045-0.261-0.091-0.305-0.115l-0.021-0.012h0l-0.227,0.312l0.297-0.242l-0.07-0.07
		l-0.227,0.312l0.297-0.242l0-0.001l-0.891,0.728l1.125-0.248c-0.025-0.104-0.068-0.271-0.234-0.48l-0.891,0.728l1.125-0.248
		l-0.918,0.202h0.941c-0.001-0.037-0.001-0.096-0.023-0.202l-0.918,0.202h0.941h-0.396l0.394,0.051l0.002-0.051h-0.396l0.394,0.051
		c0-0.022,0.049-0.244,0.142-0.54c0.364-1.183,1.355-3.686,2.792-7.049c5.036-11.803,15.612-34.508,25.557-54.227
		c4.972-9.859,9.79-18.978,13.669-25.603c1.938-3.31,3.645-6,4.99-7.817c0.671-0.907,1.256-1.597,1.692-2.011
		c0.215-0.207,0.395-0.342,0.491-0.399l0.054-0.03l0.013-0.005l-0.149-0.391v0.412c0.102,0,0.149-0.021,0.149-0.021l-0.149-0.391
		v0.412V41.03l-0.172,0.703l0.172,0.021V41.03l-0.172,0.703l0.171-0.697l-0.504,0.523c0.04,0.04,0.153,0.129,0.333,0.173
		l0.171-0.697l-0.504,0.523l0.179-0.186l-0.207,0.155l0.028,0.03l0.179-0.186l-0.207,0.155c0.004-0.001,0.097,0.156,0.182,0.42
		c0.157,0.466,0.321,1.25,0.456,2.258c0.412,3.041,0.601,8.124,0.599,14.401c0.001,15.594-1.131,38.659-2.514,57.91
		c-0.69,9.626-1.444,18.304-2.148,24.612c-0.352,3.153-0.691,5.717-1,7.487c-0.152,0.883-0.3,1.572-0.423,2.002
		c-0.06,0.212-0.117,0.362-0.137,0.403l-0.005,0.009l0.419,0.217l-0.362-0.296l-0.057,0.08l0.419,0.217l-0.362-0.296l0.784,0.641
		l-0.416-0.918c-0.227,0.107-0.318,0.219-0.368,0.277l0.784,0.641l-0.416-0.918L267.109,151.814l0.516,1.139
		c0.321-0.152,0.469-0.334,0.578-0.473c0.203-0.28,0.284-0.498,0.379-0.754c0.171-0.487,0.313-1.093,0.468-1.879
		c0.567-2.922,1.203-8.274,1.855-15.171c1.95-20.671,3.989-55.008,3.99-76.067c0-5.313-0.129-9.778-0.428-13.008
		c-0.151-1.619-0.34-2.922-0.603-3.926c-0.135-0.504-0.281-0.934-0.503-1.333c-0.113-0.199-0.247-0.395-0.44-0.583
		c-0.191-0.186-0.462-0.369-0.806-0.453c-0.143-0.035-0.287-0.051-0.424-0.051c-0.602,0.012-1.012,0.242-1.388,0.489
		c-0.716,0.497-1.387,1.236-2.186,2.245c-1.479,1.886-3.301,4.716-5.4,8.277c-7.333,12.448-17.983,33.786-26.822,52.439
		c-4.418,9.325-8.38,17.973-11.242,24.496c-1.431,3.262-2.586,5.991-3.391,8.02c-0.402,1.015-0.716,1.853-0.937,2.51
		c-0.111,0.329-0.198,0.612-0.263,0.864c-0.063,0.26-0.115,0.454-0.121,0.771c0,0.09,0.004,0.193,0.035,0.336
		c0.033,0.14,0.088,0.335,0.271,0.564l0-0.001c0.223,0.271,0.474,0.441,0.72,0.572c0.462,0.241,0.942,0.366,1.498,0.479
		c0.968,0.189,2.173,0.301,3.616,0.414c4.314,0.333,10.742,0.643,17.511,2.366l-0.007-0.002l0.008,0.002
		c5.515,1.398,10.733,3.608,14.812,5.48c2.042,0.936,3.797,1.786,5.187,2.415c0.696,0.315,1.3,0.574,1.823,0.766
		c0.263,0.096,0.505,0.175,0.742,0.236c0.24,0.06,0.469,0.106,0.754,0.108c0.193-0.002,0.426-0.02,0.712-0.146L267.109,151.814z"/>
	<path fill="#FFFFFF" d="M164.715,413.009c-14.986-10.599-22.617-28.342-22.728-46.372c-6.622,1.796-13.244,3.59-19.869,5.381
		c-0.087-0.347-0.175-0.693-0.263-1.041c6.497-0.848,12.991-1.703,19.487-2.544c-5.776-9.88,3.235-27.621,8.63-36.224
		c5.225-8.328,16.581-12.327,24.655-17.127c7.592-4.51,6.724-17.479-2.545-19.489c-3.042-0.659-5.498-0.486-8.536,0.04
		c-13.532,2.333-7.777,22.879,5.668,20.564c-0.933-0.014-1.869-0.029-2.803-0.043c-0.847-6.497-1.698-12.987-2.547-19.487
		c-14.407,8.559-27.239,15.065-35.563,30.354c-8.188,15.039-14.576,36.427-5.374,52.17c4.793,8.194,16.745,6.121,19.487-2.551
		c1.812-5.729,1.388-10.286-1.887-15.386c-5.6-8.713-19.933-5.566-19.867,5.382c0.159,26.002,12.024,49.75,33.289,64.787
		C165.208,439.382,175.844,420.879,164.715,413.009z"/>
	<path fill="#FFFFFF" d="M173.189,312.739c7.031-7.218,18.551-7.951,28.051-9.03c12.479-1.416,25.193-3.04,37.309-6.384
		c8.527-2.355,13.276-3.655,17.123-12.593c1.901-4.395,1.551-8.743,2.184-13.399c0.74-5.55,5.381-11.822,8.736-16.096
		c14.747-18.758,39.46-29.295,63.002-29.198c26.158,0.107,52.464,21.984,61.32,45.839c4.748,12.776,25.357,7.25,20.564-5.669
		c-10.522-28.349-34.798-50.255-63.684-58.934c-26.06-7.83-56.085,1.391-77.815,16.196c-11.068,7.543-20.292,17.449-27.055,28.99
		c-2.822,4.817-5.26,10.434-6.007,15.974c-0.246,1.833,0.245,5.774-0.44,7.354c-2.229,5.182,6.16-0.757-0.975,0.509
		c-14.403,2.55-28.625,5.183-43.138,7.177c-12.623,1.733-25.076,4.773-34.248,14.184
		C148.516,307.515,163.583,322.605,173.189,312.739z"/>
	<path fill="#FFFFFF" d="M341.943,344.167c12.643,46.217-24.863,96.737-83.775,112.85c-58.912,16.132-116.92-8.268-129.56-54.478
		c-12.644-46.207,24.866-96.737,83.776-112.855C271.296,273.56,329.303,297.953,341.943,344.167z"/>
	<path fill="#FFFFFF" d="M341.943,344.167l-0.482,0.132c1.644,6.01,2.434,12.091,2.434,18.161
		c0.001,20.137-8.696,40.162-23.786,56.905c-15.088,16.742-36.562,30.192-62.072,37.169c-12.276,3.361-24.511,4.957-36.299,4.957
		c-22.293,0-42.986-5.706-59.334-15.945c-16.349-10.24-28.35-24.999-33.312-43.139c-1.644-6.008-2.434-12.089-2.434-18.158
		c0-20.135,8.697-40.161,23.787-56.906c15.089-16.744,36.564-30.198,62.072-37.177c12.273-3.359,24.506-4.953,36.292-4.953
		c22.295-0.001,42.99,5.705,59.338,15.943c16.351,10.24,28.353,25.001,33.315,43.143L341.943,344.167l0.482-0.132
		c-5.035-18.41-17.221-33.378-33.749-43.727c-16.53-10.351-37.404-16.096-59.87-16.096c-11.875,0-24.196,1.605-36.555,4.988
		c-25.686,7.028-47.325,20.576-62.551,37.473c-15.225,16.895-24.043,37.147-24.044,57.575c0,6.156,0.802,12.327,2.469,18.422
		c5.035,18.408,17.219,33.374,33.747,43.723c16.529,10.351,37.401,16.097,59.865,16.098c11.878,0,24.202-1.607,36.563-4.992
		c25.688-7.026,47.325-20.57,62.552-37.464c15.225-16.894,24.042-37.146,24.043-57.575c0-6.157-0.801-12.328-2.469-18.425
		L341.943,344.167z"/>
	<path fill="#FFFFFF" d="M323.261,388.715c-41.161,0.659-74.96-37.21-75.49-84.584c-0.531-47.375,32.409-86.316,73.57-86.976
		c41.16-0.66,74.959,37.208,75.489,84.583C397.36,349.113,364.421,388.056,323.261,388.715z"/>
	<path fill="#FFFFFF" d="M323.261,388.715l-0.008-0.5c-0.351,0.006-0.701,0.009-1.051,0.009
		c-20.183-0.001-38.521-9.33-51.898-24.515c-13.375-15.183-21.772-36.217-22.033-59.584c-0.004-0.375-0.006-0.75-0.006-1.124
		c0-23.314,8.146-44.499,21.356-59.926c13.211-15.428,31.47-25.095,51.729-25.42c0.352-0.006,0.702-0.008,1.052-0.008
		c20.182,0,38.521,9.33,51.897,24.513c13.374,15.183,21.771,36.216,22.032,59.583c0.004,0.374,0.006,0.748,0.006,1.122
		c0.001,23.315-8.146,44.5-21.354,59.929c-13.212,15.429-31.47,25.096-51.729,25.421L323.261,388.715l0.008,0.5
		c20.574-0.329,39.104-10.154,52.473-25.771c13.37-15.617,21.595-37.03,21.595-60.579c0-0.378-0.002-0.755-0.006-1.134
		c-0.265-23.6-8.743-44.862-22.282-60.233c-13.537-15.37-32.15-24.853-52.647-24.852c-0.355,0-0.711,0.002-1.067,0.008
		c-20.574,0.33-39.104,10.154-52.473,25.77c-13.371,15.616-21.596,37.028-21.596,60.576c0,0.378,0.002,0.757,0.006,1.136
		c0.264,23.6,8.743,44.862,22.282,60.233c13.538,15.371,32.152,24.854,52.649,24.854c0.355,0,0.711-0.003,1.066-0.009
		L323.261,388.715z"/>
	<path fill="#FFFFFF" d="M326.743,388.854c-54.446,0.738-99.148-41.532-99.85-94.414c-0.701-52.88,42.866-96.345,97.311-97.082
		c54.445-0.739,99.151,41.532,99.851,94.413C424.756,344.651,381.188,388.116,326.743,388.854z"/>
	<path fill="#FFFFFF" d="M326.743,388.854l-0.014-1c-0.464,0.007-0.928,0.01-1.391,0.01c-53.283-0.003-96.762-41.581-97.445-93.438
		c-0.005-0.415-0.008-0.83-0.008-1.244c-0.004-51.74,42.846-94.098,96.333-94.824c0.465-0.006,0.929-0.01,1.392-0.01
		c53.282,0.002,96.764,41.581,97.445,93.437c0.006,0.415,0.008,0.83,0.008,1.244c0.005,51.74-42.847,94.098-96.333,94.825
		L326.743,388.854l0.014,1c54.539-0.738,98.302-43.945,98.306-96.825c0-0.423-0.002-0.847-0.008-1.271
		c-0.705-52.996-45.113-95.411-99.445-95.409c-0.473,0-0.945,0.003-1.419,0.01c-54.538,0.737-98.301,43.944-98.305,96.824
		c0,0.423,0.003,0.847,0.008,1.271c0.707,52.996,45.111,95.412,99.445,95.41c0.472,0,0.944-0.004,1.418-0.01L326.743,388.854z"/>
	<path fill="#FFFFFF" d="M229.159,463.598c-64.692,0.864-117.719-42.012-118.441-95.771c-0.719-53.758,51.139-98.04,115.833-98.906
		c64.692-0.867,117.718,42.009,118.438,95.767C345.71,418.445,293.852,462.728,229.159,463.598z"/>
	<path fill="#FFFFFF" d="M229.159,463.598l-0.013-1c-0.637,0.009-1.273,0.013-1.908,0.013c-31.687,0.001-60.418-10.568-81.29-27.705
		c-20.874-17.142-33.876-40.81-34.23-67.092c-0.005-0.364-0.007-0.728-0.007-1.091c0.001-26.298,12.73-50.254,33.472-67.786
		c20.739-17.527,49.48-28.59,81.381-29.016c0.64-0.009,1.277-0.013,1.914-0.013c31.685-0.001,60.415,10.568,81.284,27.704
		c20.872,17.141,33.873,40.808,34.227,67.089c0.005,0.365,0.008,0.73,0.008,1.095c-0.001,26.297-12.73,50.252-33.472,67.784
		c-20.738,17.526-49.479,28.59-81.379,29.018L229.159,463.598l0.014,1c32.347-0.437,61.525-11.646,82.643-29.49
		c21.115-17.838,34.182-42.352,34.181-69.312c0-0.374-0.003-0.747-0.008-1.122c-0.359-26.942-13.706-51.165-34.958-68.607
		c-21.254-17.448-50.423-28.157-82.553-28.158c-0.646,0-1.292,0.004-1.94,0.013c-32.349,0.435-61.527,11.644-82.646,29.487
		c-21.116,17.839-34.182,42.354-34.181,69.314c0,0.372,0.002,0.745,0.007,1.118c0.36,26.943,13.708,51.167,34.961,68.61
		c21.256,17.449,50.427,28.158,82.559,28.159c0.644,0,1.288-0.004,1.934-0.013L229.159,463.598z"/>
	<path fill="#FFFFFF" d="M394.147,311.332c54.242-0.732,98.67,32.968,99.229,75.269c0.565,42.301-42.951,77.187-97.191,77.919
		c-54.24,0.731-98.668-32.966-99.233-75.268C296.391,346.951,339.906,312.065,394.147,311.332z"/>
	<path fill="#FFFFFF" d="M394.147,311.332l0.014,1c0.574-0.008,1.148-0.012,1.721-0.012c26.518-0.002,50.545,8.298,67.974,21.738
		c17.433,13.448,28.248,31.985,28.521,52.556c0.004,0.267,0.006,0.534,0.006,0.801c-0.001,20.61-10.637,39.421-28.012,53.222
		c-17.37,13.793-41.463,22.523-68.199,22.883c-0.574,0.008-1.146,0.012-1.719,0.012c-26.517,0.002-50.545-8.297-67.975-21.737
		c-17.434-13.448-28.251-31.984-28.526-52.556c-0.004-0.266-0.006-0.531-0.006-0.796c0.001-20.611,10.637-39.423,28.012-53.225
		c17.371-13.794,41.465-22.526,68.203-22.886L394.147,311.332l-0.014-1c-27.157,0.369-51.663,9.225-69.419,23.319
		c-17.751,14.088-28.769,33.467-28.769,54.791c0,0.274,0.002,0.549,0.006,0.823c0.283,21.279,11.491,40.383,29.306,54.111
		c17.819,13.736,42.262,22.152,69.195,22.154c0.581,0,1.163-0.004,1.746-0.012c27.155-0.368,51.661-9.224,69.416-23.317
		c17.75-14.086,28.768-33.464,28.768-54.787c0-0.275-0.002-0.552-0.006-0.828c-0.281-21.279-11.486-40.382-29.3-54.112
		c-17.818-13.736-42.261-22.153-69.195-22.154c-0.582,0-1.164,0.004-1.748,0.012L394.147,311.332z"/>
	
		<rect x="213.341" y="387.467" transform="matrix(-0.9999 0.0134 -0.0134 -0.9999 615.3433 844.22)" fill="#FFFFFF" width="183.005" height="73.409"/>
	<polygon fill="#FFFFFF" points="212.858,388.696 212.871,389.696 394.86,387.258 395.815,458.66 214.829,461.084 213.858,388.683 
		212.858,388.696 212.871,389.696 212.858,388.696 211.858,388.71 212.856,463.111 397.843,460.633 396.833,385.23 211.845,387.71 
		211.858,388.71 	"/>
	<path fill="#72CEE2" d="M340.051,343.842c12.684,46.35-24.929,97.019-84.013,113.181c-59.083,16.167-117.257-8.297-129.932-54.635
		c-12.683-46.346,24.933-97.013,84.011-113.18C269.197,273.042,327.374,297.501,340.051,343.842z"/>
	<path fill="#72CEE2" d="M336.267,388.522c-49.435,0.663-90.023-37.317-90.66-84.827c-0.637-47.509,38.921-86.562,88.355-87.226
		c49.431-0.663,90.02,37.315,90.658,84.829C425.254,348.808,385.699,387.861,336.267,388.522z"/>
	<path fill="#010101" d="M424.5,291.296l-1.5,0.021c0.006,0.413,0.009,0.826,0.009,1.238c-0.002,25.806-10.791,49.258-28.337,66.376
		c-17.547,17.114-41.836,27.868-68.818,28.23c-0.467,0.007-0.934,0.01-1.4,0.01c-26.874-0.001-51.272-10.378-69.041-27.221
		c-17.767-16.846-28.891-40.131-29.238-65.995c-0.006-0.413-0.008-0.827-0.008-1.239c0.001-25.805,10.792-49.255,28.337-66.371
		c17.548-17.112,41.836-27.864,68.812-28.226c0.469-0.006,0.938-0.01,1.405-0.01c26.878,0,51.276,10.377,69.043,27.218
		c17.767,16.844,28.888,40.127,29.236,65.989L424.5,291.296l1.5-0.021c-0.357-26.709-11.858-50.77-30.172-68.125
		c-18.312-17.36-43.451-28.041-71.107-28.041c-0.481,0-0.963,0.003-1.446,0.01c-27.755,0.372-52.781,11.44-70.866,29.078
		c-18.085,17.635-29.244,41.867-29.243,68.519c0,0.426,0.003,0.853,0.008,1.28c0.357,26.711,11.86,50.773,30.175,68.131
		c18.313,17.361,43.452,28.044,71.104,28.044c0.479,0,0.96-0.004,1.441-0.01c27.76-0.373,52.788-11.442,70.872-29.083
		c18.086-17.638,29.243-41.87,29.242-68.523c0-0.426-0.003-0.852-0.009-1.279L424.5,291.296z"/>
	<path fill="#010101" d="M226.944,463.621l-0.02-1.5c-0.639,0.009-1.277,0.013-1.914,0.013c-31.664,0.002-60.366-10.564-81.2-27.672
		c-20.837-17.117-33.791-40.714-34.144-66.906c-0.005-0.363-0.007-0.728-0.007-1.09c0.001-26.211,12.683-50.099,33.391-67.605
		c20.704-17.499,49.417-28.558,81.298-28.983c0.638-0.009,1.274-0.013,1.91-0.013c31.665-0.002,60.369,10.563,81.203,27.673
		c20.838,17.116,33.791,40.714,34.144,66.908c0.005,0.363,0.008,0.727,0.008,1.09c-0.002,26.21-12.684,50.098-33.392,67.604
		c-20.704,17.499-49.417,28.557-81.297,28.981L226.944,463.621l0.02,1.5c32.55-0.438,61.92-11.715,83.194-29.69
		c21.269-17.967,34.456-42.691,34.455-69.896c0-0.377-0.003-0.753-0.008-1.131c-0.362-27.185-13.833-51.617-35.24-69.187
		c-21.411-17.577-50.773-28.353-83.106-28.354c-0.649,0-1.299,0.004-1.95,0.013c-32.551,0.438-61.921,11.717-83.194,29.691
		c-21.269,17.968-34.456,42.691-34.455,69.897c0,0.376,0.002,0.753,0.007,1.131c0.363,27.184,13.833,51.615,35.24,69.184
		c21.411,17.577,50.772,28.353,83.104,28.354c0.65,0,1.301-0.004,1.954-0.013L226.944,463.621z"/>
	<path fill="#72CEE2" d="M393.127,310.919c54.802-0.736,99.684,33.061,100.25,75.48c0.57,42.424-43.393,77.411-98.191,78.145
		c-54.796,0.734-99.681-33.06-100.25-75.483C294.369,346.638,338.329,311.652,393.127,310.919z"/>
	<path fill="#010101" d="M393.127,310.919l0.021,1.5c0.58-0.008,1.158-0.012,1.735-0.012c26.69-0.003,50.865,8.293,68.376,21.7
		c8.757,6.702,15.846,14.678,20.775,23.522c4.93,8.847,7.705,18.559,7.843,28.79c0.004,0.265,0.006,0.53,0.006,0.796
		c-0.001,10.252-2.663,20.043-7.507,29.009c-7.264,13.444-19.457,25.021-34.902,33.299c-15.442,8.277-34.125,13.251-54.309,13.521
		c-0.578,0.008-1.155,0.012-1.731,0.012c-26.688,0.002-50.863-8.292-68.375-21.699c-8.758-6.703-15.848-14.679-20.778-23.523
		c-4.931-8.848-7.707-18.561-7.845-28.793c-0.004-0.264-0.006-0.527-0.006-0.79c0.001-10.253,2.663-20.045,7.507-29.011
		c7.263-13.444,19.456-25.021,34.901-33.3c15.442-8.277,34.125-13.251,54.31-13.521L393.127,310.919l-0.021-1.5
		c-27.536,0.371-52.393,9.281-70.425,23.489c-9.015,7.105-16.324,15.54-21.385,24.905c-5.061,9.363-7.868,19.661-7.867,30.437
		c0,0.276,0.002,0.554,0.006,0.831c0.144,10.753,3.07,20.97,8.225,30.212c7.732,13.868,20.452,25.552,36.338,33.774
		c15.888,8.222,34.953,12.987,55.436,12.988c0.59,0,1.181-0.004,1.771-0.012c27.536-0.371,52.393-9.28,70.425-23.488
		c9.015-7.105,16.324-15.54,21.386-24.905c5.061-9.362,7.867-19.66,7.867-30.435c0-0.278-0.002-0.558-0.006-0.837
		c-0.143-10.751-3.069-20.968-8.222-30.21c-7.731-13.867-20.45-25.551-36.335-33.773c-15.888-8.222-34.953-12.988-55.438-12.988
		c-0.591,0-1.183,0.004-1.776,0.012L393.127,310.919z"/>
	<polygon fill="#72CEE2" points="210.597,388.509 394.106,386.054 395.094,459.661 211.583,462.122 	"/>
	<polygon fill="#010101" points="210.597,388.509 210.617,390.009 392.627,387.573 393.574,458.182 213.063,460.602 
		212.097,388.488 210.597,388.509 210.617,390.009 210.597,388.509 209.097,388.529 210.103,463.642 396.613,461.141 
		395.586,384.534 209.077,387.029 209.097,388.529 	"/>
	<path fill="#72CEE2" d="M419.001,299.745c-23.842-3.23-55.39,0.373-77.354,10.021c-7.602-10.818-18.287-18.161-29.393-25.209
		c-6.84-4.329-13.064-9.151-20.286-12.926c-5.937-3.111-13.623-2.962-18.74-7.604c-4.299-3.914-11.843-4.54-15.933,0.213
		c-0.199,0.234-0.362,0.457-0.552,0.695c-1.82,1.315-3.354,3.133-4.266,5.51c-0.52,1.345-1.037,2.688-1.558,4.019
		c-4.049,10.497,8.231,16.09,16.334,11.847c7.162,3.359,15.006,5.321,22.025,9.526c5.628,3.351,10.751,7.51,16.291,11.014
		c3.662,2.194,7.11,4.674,10.359,7.448l2.872,2.961c-17.354,11.521-32.084,29.722-34.238,50.678
		c-9.725-5.549-18.639-12.355-26.694-20.407c-13.336-13.362-17.417-29.671-20.125-47.363c2.184-6.595-1.331-15.314-10.414-15.188
		c-1.345,0.018-2.511,0.271-3.596,0.637c-5.383,0.307-10.104,3.864-9.129,10.736c3.473,24.375,8.291,44.02,24.185,63.523
		c6.269,7.7,13.896,14.263,22.196,19.953c-9.573-0.522-19.108-1.438-28.605-2.999c-5.086-0.836-10.377-1.215-15.243-0.419
		c-1.937,0.007-3.917,0.438-5.785,1.418c-1.169,0.62-2.166,1.236-3.054,1.884c-2.543,1.652-4.766,3.934-6.497,7.069
		c-2.602,4.7-1.808,8.919,0.623,11.879c-0.812,0.783-1.438,1.769-1.729,2.921c-0.494,1.967-0.534,4.019-0.516,6.029
		c0.048,3.849,2.848,5.862,5.834,6.107c-1.542,7.814-3.465,15.646-2.566,23.463c-7.262,4.598-7.197,19.188,3.086,20.681
		c16.384,2.381,31.737,3.142,47.818-1.434c12.85-3.668,8.927-21.044-3.3-21.965c-7.279-0.551-14.563-0.833-21.788-1.958
		c-7.111-1.116-2.813-7.551-1.61-12.941c1.448-6.444,2.446-13.529,2.4-20.494c3.542,0.591,7.041,1.329,10.624,1.646
		c14.842,1.337,29.646,2.141,44.552,2.077c0.126,0,0.228-0.023,0.343-0.023l0.193,0.014c0.242,0,0.446-0.064,0.681-0.073
		c0.237-0.022,0.465-0.042,0.699-0.077c3.797-0.46,6.464-2.501,7.944-5.244c0.931,0.365,1.854,0.755,2.779,1.099
		c2.917,1.076,5.439,0.877,7.503-0.06c11.485,2.117,26.112-0.571,36.198-0.885c8.271-0.247,16.567-0.256,24.846-0.372l16.502-0.222
		c0.21,17.103,3.692,34.755,1.89,51.597c-0.024,0.199,0.007,0.363,0,0.566c-1.016-0.226-2.024-0.444-3.011-0.619
		c-5.755-0.996-11.379-2.397-16.889-4.312c-5.877-2.058-8.266,7.256-2.438,9.289c1.93,0.678,3.88,1.237,5.83,1.762
		c6.621,2.675,13.569,4.149,20.708,4.349c2.775,0.441,5.533,0.689,8.348,0.435c0.4,0.097,0.827,0.153,1.275,0.148l0.813-0.009
		c2.404-0.035,3.845-1.49,4.374-3.254c0.194-0.543,0.316-1.116,0.302-1.714c1.685-1.742,2.902-4.041,3.211-6.946
		c1.75-16.38-3.129-32.421-2.074-48.903c0.524-8.242,0.353-22.662-10.976-24.138c-17.271-2.244-35.618-0.43-53.019-0.06
		c-9.315,0.192-18.609,0.626-27.932,0.586c-2.012-0.439-3.405-0.62-4.328-0.606c-1.524-3.059-2.22-6.369-1.433-9.884
		c2.638-11.864,14.539-24.261,24.669-30.366c1.719-1.039,3.489-2.205,5.158-3.496c3.001,1.563,6.679,1.94,10.496,0.088
		c17.315-8.456,46.768-13.21,66.056-10.593C420.449,321.643,425.355,301.218,419.001,299.745z"/>
	<path fill="#FFFFFF" d="M246.663,258.798c-0.685,0.033-1.34,0.241-1.941,0.627c-1.409-0.68-3.089-0.665-4.617,0.048
		c-0.498,0.176-0.962,0.443-1.376,0.786c-2.657-1.203-6.221-0.776-7.479,2.804c-0.771,2.177-1.542,4.554-1.91,6.812
		c-2.229-0.102-5.503-0.047-7.777,0c-2.566,0.051-2.977,1.705-3.567,3.594c-2.05,1.042-3.596,2.506-3.99,4.628
		c-1.508,2.485-2.274,9.938,1.164,9.159c0.74-0.17,1.889-0.451,3.023-0.715c0.653-0.146-4.262,0.991,2.331-0.499
		c0.147-0.014,0.291-0.032,0.429-0.049c1.404-0.139,2.801-0.354,4.2-0.538c8.496-1.045,5.467-1.805,6.08-4.631
		c0.774-0.11,1.542-0.229,2.298-0.379c1.573-0.335,2.596-1.442,3.16-2.791c0.444-0.245,0.874-0.511,1.282-0.909
		c1.013-0.994,1.943-2.073,2.888-3.141c1.313,3.632,7.058,5.418,9.574,1.038c1.602-2.771,2.002-6.032,3.596-8.775
		C256.667,261.346,250.805,255.802,246.663,258.798z"/>
	<path fill="#74CFE4" d="M233.292,288.855c-0.773-2.661-3.39-3.788-5.954-3.268c-1.871,0.373-4.399,0.467-6.537,0.986
		c-2.542,0.62-3.979,3.519-3.276,5.951c0.751,2.596,3.414,3.901,5.955,3.275c1.98-0.481,4.309-0.541,6.538-0.985
		C232.589,294.298,233.972,291.211,233.292,288.855z"/>
	<path fill="#74CFE4" d="M259.932,265.478c-2.182-1.244-5.375-0.531-6.542,1.811c-1.087,2.174-1.98,4.438-2.745,6.739
		c-0.833,2.482,1.027,5.229,3.43,5.86c2.665,0.694,5.035-0.951,5.86-3.428c0.535-1.607,1.053-2.912,1.807-4.432
		C262.914,269.68,262.294,266.817,259.932,265.478z"/>
	<path fill="#1E99B5" d="M441.437,381.134c-3.235,42.366-43.346,44.842-77.364,40.721c-8.152-0.996-11.503,11.499-3.271,12.494
		c43.509,5.266,89.582-1.324,93.543-53.395C454.972,372.654,442.061,372.901,441.437,381.134z"/>
	<path fill="#72CEE2" d="M239.529,453.006c-3.701,2.583-8.513,1.856-12.787,1.882c-4.583,0.023-4.584,7.13,0,7.107
		c5.563-0.028,11.57,0.504,16.376-2.853C246.847,456.538,243.299,450.377,239.529,453.006z"/>
	<path fill="#72CEE2" d="M225.755,455.011c-5.351,0.048-10.677-0.263-16.003-0.772c-4.565-0.431-4.522,6.679,0,7.109
		c5.328,0.509,10.652,0.818,16.003,0.77C230.337,462.077,230.338,454.968,225.755,455.011z"/>
	<path fill="#72CEE2" d="M209.552,460.742c4.584,0,4.584-7.107,0-7.107C204.968,453.635,204.97,460.742,209.552,460.742z"/>
	<path fill="#72CEE2" d="M397.781,455.592c-4.572,0.496-9.011,1.087-13.614,0.772c-5.317-0.36-10.587-2.192-15.692-3.6
		c-4.427-1.217-6.304,5.641-1.89,6.857c10.87,2.994,19.937,4.299,31.196,3.078C402.284,462.209,402.333,455.096,397.781,455.592z"/>
</g>
</svg>
