<?xml version="1.0" encoding="utf-8"?>
<!-- Generator: Adobe Illustrator 15.1.0, SVG Export Plug-In . SVG Version: 6.00 Build 0)  -->
<!DOCTYPE svg PUBLIC "-//W3C//DTD SVG 1.1//EN" "http://www.w3.org/Graphics/SVG/1.1/DTD/svg11.dtd">
<svg version="1.1" xmlns="http://www.w3.org/2000/svg" xmlns:xlink="http://www.w3.org/1999/xlink" x="0px" y="0px" width="500px"
	 height="500px" viewBox="0 0 500 500" enable-background="new 0 0 500 500" xml:space="preserve">
<g id="Layer_2">
</g>
<g id="Layer_1">
	<g>
		<path fill="#FFFFFF" d="M243,138.147c58.823,0,106.511,47.687,106.511,106.512c0,58.821-47.688,106.51-106.511,106.51
			s-106.51-47.688-106.51-106.51C136.49,185.834,184.177,138.147,243,138.147z"/>
		<ellipse fill="#FCE146" cx="254.572" cy="259.052" rx="90.238" ry="88.579"/>
		<path fill="#010101" d="M243,139.008v1.5c29.002,0.001,55.245,11.751,74.254,30.756c19.005,19.008,30.756,45.25,30.757,74.253
			c-0.001,29.002-11.752,55.247-30.757,74.254c-19.009,19.006-45.252,30.757-74.254,30.758
			c-29.002-0.001-55.245-11.752-74.253-30.758c-19.005-19.008-30.756-45.251-30.757-74.254
			c0.001-29.003,11.751-55.246,30.757-74.253c19.008-19.005,45.25-30.756,74.253-30.756V139.008v-1.5
			c-59.652,0.001-108.009,48.356-108.01,108.01c0.001,59.654,48.357,108.011,108.01,108.012
			c59.652-0.001,108.01-48.358,108.011-108.012C351.01,185.864,302.652,137.509,243,137.508V139.008z"/>
		<path fill="#FFFFFF" d="M198.588,128.458c-0.497,1.411-13.474,4.593-24.794,11.681c-10.834,6.777-17.841,15.649-19.993,15.481
			c-2.135-0.171-45.518-111.873-40.301-115.702C117.978,36.638,199.662,125.398,198.588,128.458z"/>
		<path fill="#FCE146" d="M198.667,128.501c-0.4,1.016-10.059,3.583-18.578,8.907c-8.157,5.094-14.415,10.026-16,9.955
			c-1.575-0.071-28.778-80.504-24.839-83.362C142.63,61.553,199.525,126.288,198.667,128.501z"/>
		<path fill="#010101" d="M198.588,128.458l-1.415-0.498l0.983,0.346l-0.806-0.668c-0.041,0.051-0.113,0.145-0.177,0.322
			l0.983,0.346l-0.806-0.668l0.463,0.384l-0.419-0.431l-0.043,0.047l0.463,0.384l-0.419-0.431l0.098,0.101l-0.09-0.108l-0.008,0.008
			l0.098,0.101l-0.09-0.108c-0.027,0.031-0.355,0.237-0.831,0.455c-0.844,0.396-2.178,0.919-3.815,1.55
			c-4.926,1.903-12.625,4.815-19.758,9.279c-5.489,3.434-9.985,7.37-13.366,10.417c-1.687,1.521-3.101,2.823-4.177,3.702
			c-0.535,0.438-0.989,0.77-1.307,0.958c-0.158,0.094-0.28,0.152-0.341,0.174l-0.032,0.011l-0.006,0.001l0.093,0.393v-0.401
			l-0.093,0.008l0.093,0.393v-0.401v0.691l0.053-0.689l-0.053-0.002v0.691l0.053-0.689l0.005,0l-0.111,1.377l0.762-1.156
			c-0.109-0.067-0.292-0.186-0.651-0.221l-0.111,1.377l0.762-1.156l-0.598,0.909l0.779-0.762c-0.027-0.027-0.072-0.074-0.181-0.146
			l-0.598,0.909l0.779-0.762l-0.425,0.416l0.45-0.389l-0.025-0.027l-0.425,0.416l0.45-0.389l-0.082,0.071l0.085-0.067l-0.003-0.003
			l-0.082,0.071l0.085-0.067c-0.02-0.021-0.148-0.213-0.301-0.491c-0.305-0.546-0.751-1.449-1.294-2.626
			c-2.045-4.427-5.503-12.768-9.519-22.946c-6.025-15.271-13.322-34.712-19.105-51.517c-2.892-8.401-5.405-16.146-7.188-22.365
			c-0.892-3.108-1.601-5.837-2.083-8.061c-0.483-2.217-0.73-3.958-0.726-4.95c-0.001-0.353,0.034-0.605,0.059-0.691l0.009-0.031
			l-0.379-0.146l0.333,0.229l0.047-0.083l-0.379-0.146l0.333,0.229l-0.699-0.481l0.5,0.682c0.099-0.072,0.163-0.149,0.199-0.201
			l-0.699-0.481l0.5,0.682l0.011-0.008l-0.012,0.008l-0.567-0.775v0.976c0.083,0.002,0.324-0.023,0.567-0.201l-0.567-0.775v0.976
			v-0.378l-0.06,0.375l0.06,0.003v-0.378l-0.06,0.375c0,0,0.049,0.009,0.14,0.043c0.372,0.132,1.206,0.615,2.24,1.376
			c1.961,1.43,4.753,3.83,8.082,6.908c11.667,10.786,30.006,29.924,45.392,46.741c7.694,8.41,14.656,16.244,19.682,22.165
			c2.512,2.958,4.541,5.441,5.922,7.259c0.69,0.907,1.219,1.651,1.55,2.176c0.166,0.26,0.281,0.468,0.335,0.583l0.028,0.063
			l0.005,0.014l0.779-0.267h-0.814c0.005,0.209,0.037,0.261,0.035,0.267l0.779-0.267h-0.814h1.286l-1.213-0.422
			c-0.062,0.18-0.072,0.322-0.073,0.422h1.286l-1.213-0.422l0.002-0.004v-0.001L198.588,128.458l1.417,0.493
			c0.076-0.22,0.093-0.409,0.093-0.563c-0.006-0.359-0.08-0.566-0.147-0.764c-0.141-0.376-0.323-0.7-0.562-1.092
			c-0.462-0.748-1.144-1.694-2.043-2.866c-3.364-4.374-9.775-11.825-17.637-20.595c-11.789-13.148-26.81-29.219-39.494-42.022
			c-6.343-6.403-12.099-11.986-16.594-15.993c-2.25-2.005-4.18-3.615-5.744-4.755c-0.785-0.571-1.475-1.024-2.103-1.361
			c-0.316-0.168-0.616-0.308-0.926-0.417c-0.311-0.106-0.63-0.19-1.029-0.193c-0.345-0.002-0.799,0.082-1.205,0.379l-0.011,0.008
			l0.01-0.007c-0.28,0.206-0.476,0.458-0.612,0.699c-0.203,0.365-0.294,0.712-0.355,1.063c-0.059,0.351-0.08,0.709-0.081,1.096
			c0.002,1.067,0.168,2.363,0.461,3.939c1.099,5.876,4.042,15.625,7.882,27.069c5.758,17.149,13.527,38.014,20.04,54.623
			c3.256,8.305,6.197,15.542,8.42,20.728c1.112,2.594,2.042,4.671,2.754,6.133c0.358,0.733,0.657,1.308,0.919,1.75
			c0.134,0.223,0.254,0.41,0.409,0.603c0.081,0.098,0.167,0.199,0.317,0.324c0.076,0.062,0.17,0.133,0.31,0.206
			c0.139,0.071,0.332,0.15,0.604,0.174l0.011,0.001l-0.006,0l0.176,0.007c0.387-0.002,0.708-0.088,0.999-0.196
			c0.542-0.207,1.013-0.505,1.53-0.873c0.895-0.645,1.905-1.528,3.093-2.593c3.548-3.187,8.651-8.013,15.105-12.05
			c5.529-3.462,11.521-6,16.21-7.845c2.347-0.924,4.364-1.673,5.873-2.298c0.757-0.315,1.383-0.595,1.901-0.882
			c0.261-0.146,0.496-0.291,0.73-0.481c0.226-0.198,0.498-0.42,0.7-0.948l0.002-0.005L198.588,128.458z"/>
		<path fill="#FCE146" d="M284.092,363.198c0.552-1.392,13.629-4.108,25.194-10.789c11.064-6.382,18.384-15.006,20.53-14.758
			c2.119,0.246,41.712,113.839,36.144,117.062C361.037,457.561,282.909,366.213,284.092,363.198z"/>
		<path fill="#010101" d="M284.092,363.198l1.395,0.553l-0.967-0.383l0.778,0.695c0.042-0.049,0.118-0.139,0.188-0.312l-0.967-0.383
			l0.778,0.695l-0.444-0.397l0.399,0.443l0.045-0.046l-0.444-0.397l0.399,0.443l-0.089-0.1l0.081,0.106l0.008-0.007l-0.089-0.1
			l0.081,0.106c0.029-0.031,0.365-0.225,0.849-0.426c0.858-0.366,2.21-0.841,3.869-1.413c4.99-1.726,12.786-4.361,20.073-8.569
			c5.579-3.219,10.194-6.972,13.675-9.891c1.738-1.458,3.197-2.709,4.309-3.557c0.554-0.424,1.022-0.744,1.355-0.929
			c0.165-0.093,0.295-0.15,0.365-0.175l0.053-0.017l-0.07-0.348v0.354l0.07-0.006l-0.07-0.348v0.354v-0.703l-0.083,0.697
			l0.083,0.006v-0.703l-0.083,0.697l0.009,0.001h-0.005l0.159-1.374l-0.802,1.131c0.106,0.07,0.286,0.195,0.643,0.243l0.159-1.374
			l-0.802,1.131l0.633-0.893l-0.81,0.739c0.027,0.027,0.07,0.076,0.177,0.153l0.633-0.893l-0.81,0.739l0.297-0.271l-0.324,0.238
			l0.027,0.033l0.297-0.271l-0.324,0.238c0.017,0.02,0.137,0.213,0.277,0.491c0.281,0.548,0.689,1.452,1.185,2.63
			c1.863,4.433,4.984,12.773,8.6,22.966c5.426,15.292,11.977,34.782,17.166,51.729c2.594,8.473,4.848,16.312,6.447,22.657
			c0.8,3.172,1.437,5.972,1.869,8.278c0.434,2.301,0.658,4.13,0.655,5.254c0.002,0.47-0.043,0.812-0.082,0.947l-0.018,0.058
			l0.144,0.057l-0.135-0.073l-0.009,0.017l0.144,0.057l-0.135-0.073l0.688,0.375l-0.386-0.666c-0.195,0.113-0.283,0.253-0.303,0.291
			l0.688,0.375l-0.386-0.666l0.475,0.817v-0.954c-0.083-0.001-0.269,0.018-0.474,0.136l0.474,0.818v-0.954v0.442l0.073-0.438
			l-0.073-0.005v0.442l0.073-0.438h-0.001c-0.034-0.005-0.267-0.089-0.576-0.27c-0.611-0.346-1.537-1.02-2.655-1.951
			c-2.104-1.751-4.923-4.413-8.208-7.717c-11.513-11.571-28.802-31.014-43.184-47.949c-7.191-8.469-13.661-16.315-18.32-22.236
			c-2.328-2.959-4.206-5.439-5.482-7.256c-0.638-0.906-1.126-1.65-1.433-2.176c-0.152-0.261-0.26-0.47-0.311-0.588l-0.027-0.067
			h-0.002l-0.878,0.208h0.899c-0.001-0.123-0.016-0.182-0.021-0.208l-0.878,0.208h0.899H284.3l1.186,0.472
			c0.084-0.215,0.092-0.37,0.093-0.472H284.3l1.186,0.472l-0.013,0.032l0.014-0.034L284.092,363.198l-1.394-0.555
			c-0.102,0.26-0.118,0.471-0.12,0.638c0.006,0.338,0.071,0.542,0.134,0.739c0.13,0.376,0.304,0.709,0.532,1.113
			c0.441,0.77,1.096,1.749,1.959,2.96c3.229,4.521,9.387,12.222,16.94,21.282c11.326,13.585,25.764,30.187,37.973,43.412
			c6.105,6.613,11.65,12.381,15.992,16.521c2.173,2.071,4.04,3.735,5.56,4.915c0.763,0.591,1.435,1.061,2.053,1.411
			c0.311,0.176,0.607,0.322,0.918,0.437c0.312,0.112,0.635,0.202,1.044,0.206c0.301,0.001,0.672-0.061,1.028-0.267
			c0.356-0.207,0.605-0.496,0.77-0.769c0.247-0.415,0.35-0.81,0.421-1.218c0.068-0.409,0.094-0.837,0.095-1.308
			c-0.001-1.113-0.148-2.473-0.409-4.105c-0.981-6.097-3.62-16.014-7.064-27.569c-5.165-17.321-12.139-38.249-18-54.883
			c-2.932-8.317-5.584-15.559-7.597-20.748c-1.007-2.596-1.853-4.675-2.504-6.14c-0.327-0.735-0.603-1.312-0.847-1.757
			c-0.125-0.225-0.236-0.413-0.384-0.61c-0.077-0.101-0.159-0.204-0.304-0.334c-0.074-0.064-0.165-0.138-0.302-0.216
			c-0.137-0.075-0.325-0.161-0.597-0.194l0.004,0.001c-0.096-0.012-0.187-0.016-0.271-0.016c-0.377,0.001-0.691,0.081-0.981,0.182
			c-0.541,0.194-1.021,0.479-1.551,0.832c-0.918,0.618-1.961,1.469-3.185,2.491c-3.657,3.06-8.91,7.676-15.469,11.458
			c-5.649,3.265-11.727,5.588-16.478,7.264c-2.378,0.839-4.42,1.516-5.95,2.087c-0.768,0.287-1.403,0.544-1.932,0.812
			c-0.266,0.137-0.506,0.272-0.747,0.454c-0.232,0.19-0.511,0.401-0.733,0.919l0.014-0.033l-0.013,0.031L284.092,363.198z"/>
		<path fill="#FCE146" d="M363.603,204.205c-1.432-0.441-5.127-13.282-12.655-24.314c-7.197-10.554-16.345-17.203-16.263-19.359
			c0.083-2.139,110.379-49.565,114.008-44.862C451.946,119.88,366.704,205.153,363.603,204.205z"/>
		<path fill="#010101" d="M363.603,204.205l0.442-1.434l-0.307,0.995l0.634-0.831c-0.052-0.039-0.148-0.107-0.327-0.164
			l-0.307,0.995l0.634-0.831l-0.363,0.476l0.412-0.435l-0.049-0.042l-0.363,0.476l0.412-0.435l-0.096,0.101l0.104-0.093
			l-0.008-0.008l-0.096,0.101l0.104-0.093c-0.032-0.026-0.251-0.346-0.487-0.812c-0.43-0.828-1.006-2.14-1.701-3.75
			c-2.098-4.847-5.312-12.424-10.054-19.376c-3.666-5.374-7.8-9.726-10.984-12.987c-1.591-1.628-2.947-2.989-3.859-4.024
			c-0.456-0.515-0.799-0.952-0.99-1.253c-0.096-0.149-0.152-0.264-0.172-0.314l-0.009-0.024l-0.015,0.004l0.015-0.003v-0.001
			l-0.015,0.004l0.015-0.003l-0.469,0.118h0.48l-0.012-0.118l-0.469,0.118h0.48h-0.93l0.929,0.047l0.001-0.047h-0.93l0.929,0.047
			l0.001-0.01v-0.008l-1.381-0.054l1.183,0.721c0.063-0.112,0.178-0.302,0.198-0.667l-1.381-0.054l1.183,0.721l-0.926-0.564
			l0.786,0.75c0.025-0.028,0.07-0.074,0.14-0.186l-0.926-0.564l0.786,0.75l-0.42-0.401l0.394,0.426l0.026-0.025l-0.42-0.401
			l0.394,0.426l-0.057-0.062l0.055,0.064l0.002-0.002l-0.057-0.062l0.055,0.064c0.022-0.022,0.215-0.161,0.493-0.327
			c0.548-0.331,1.453-0.818,2.634-1.415c4.441-2.245,12.814-6.071,23.009-10.526c15.297-6.685,34.725-14.801,51.354-21.239
			c8.313-3.219,15.931-6.018,21.965-8.004c3.017-0.993,5.639-1.783,7.737-2.318c1.049-0.268,1.967-0.472,2.728-0.605
			c0.76-0.135,1.368-0.196,1.751-0.195c0.227-0.002,0.372,0.024,0.382,0.029l0.048-0.177l-0.066,0.17l0.019,0.007l0.048-0.177
			l-0.066,0.17l0.308-0.783l-0.654,0.505c0.152,0.195,0.305,0.261,0.347,0.278l0.308-0.783l-0.654,0.505l0.023,0.03l-0.022-0.029
			l0.771-0.596h-0.994c-0.002,0.077,0.019,0.33,0.223,0.596l0.771-0.596h-0.994h0.332l-0.329-0.051l-0.003,0.051h0.332l-0.329-0.051
			c0.003,0.006-0.058,0.231-0.211,0.541c-0.294,0.612-0.895,1.57-1.739,2.741c-1.586,2.206-4.033,5.204-7.088,8.726
			c-10.698,12.341-28.852,31.158-44.689,46.858c-7.919,7.851-15.264,14.928-20.806,20.028c-2.77,2.549-5.091,4.606-6.789,6.004
			c-0.847,0.698-1.542,1.232-2.028,1.565c-0.24,0.166-0.433,0.281-0.531,0.331l-0.052,0.025l-0.006,0.003l0.314,0.775v-0.823
			c-0.269,0.008-0.312,0.053-0.314,0.047l0.314,0.775v-0.823v1.299l0.379-1.242c-0.159-0.048-0.284-0.057-0.379-0.058v1.299
			l0.379-1.242l0.003,0.001h0.002L363.603,204.205l-0.438,1.435c0.192,0.059,0.358,0.073,0.496,0.073
			c0.383-0.007,0.594-0.092,0.794-0.165c0.377-0.154,0.688-0.346,1.068-0.598c0.722-0.485,1.632-1.198,2.759-2.138
			c4.205-3.515,11.366-10.209,19.796-18.415c12.638-12.303,28.085-27.97,40.391-41.168c6.154-6.601,11.52-12.58,15.37-17.233
			c1.927-2.328,3.473-4.321,4.565-5.925c0.548-0.805,0.981-1.509,1.302-2.144c0.16-0.318,0.293-0.62,0.396-0.927
			c0.1-0.309,0.179-0.62,0.182-1.009c0.001-0.346-0.078-0.814-0.404-1.238l0.022,0.029l-0.021-0.028
			c-0.185-0.24-0.407-0.412-0.617-0.532c-0.319-0.179-0.617-0.259-0.904-0.312c-0.288-0.05-0.572-0.068-0.87-0.068
			c-0.992,0.003-2.182,0.194-3.666,0.521c-2.768,0.616-6.509,1.741-10.99,3.249c-15.664,5.273-40.309,15.233-61.087,24.098
			c-10.387,4.432-19.8,8.587-26.635,11.747c-3.419,1.58-6.19,2.909-8.134,3.909c-0.974,0.501-1.737,0.917-2.3,1.262
			c-0.284,0.175-0.514,0.326-0.732,0.5c-0.11,0.09-0.219,0.182-0.352,0.336c-0.066,0.079-0.141,0.175-0.221,0.324
			c-0.076,0.149-0.171,0.362-0.187,0.687l1.499,0.058l-1.498-0.077l-0.003,0.106c0.002,0.398,0.097,0.726,0.211,1.018
			c0.222,0.544,0.535,1.002,0.92,1.505c0.675,0.87,1.594,1.843,2.706,2.989c3.326,3.42,8.38,8.344,12.688,14.663
			c3.678,5.388,6.451,11.275,8.48,15.888c1.016,2.309,1.845,4.294,2.53,5.777c0.345,0.744,0.649,1.359,0.957,1.866
			c0.156,0.255,0.311,0.484,0.511,0.71c0.207,0.218,0.439,0.48,0.974,0.662l0.007,0.002l-0.002-0.001L363.603,204.205z"/>
		<path fill="#FCE146" d="M122.024,283.628c1.42,0.467,4.853,13.387,12.161,24.56c6.988,10.705,16,17.546,15.871,19.694
			c-0.127,2.133-111.14,47.748-114.888,42.557C31.836,365.815,118.942,282.61,122.024,283.628z"/>
		<path fill="#010101" d="M122.024,283.628l-0.468,1.425l0.326-0.991l-0.652,0.82c0.052,0.04,0.147,0.11,0.327,0.171l0.326-0.991
			l-0.652,0.82l0.376-0.473l-0.425,0.43l0.049,0.043l0.376-0.473l-0.425,0.43l0.101-0.103l-0.109,0.095l0.008,0.008l0.101-0.103
			l-0.109,0.095c0.031,0.025,0.243,0.35,0.47,0.821c0.413,0.836,0.961,2.16,1.624,3.784c1.998,4.89,5.059,12.531,9.663,19.572
			l-0.006-0.01l0.005,0.009c3.549,5.437,7.584,9.865,10.699,13.19c1.556,1.659,2.885,3.048,3.781,4.104
			c0.447,0.525,0.784,0.971,0.974,1.28c0.095,0.153,0.152,0.271,0.173,0.327l0.01,0.028l0,0.003l0.435-0.106h-0.445l0.01,0.106
			l0.435-0.106h-0.445h0.685l-0.684-0.039l-0.001,0.039h0.685l-0.684-0.039v0.004v-0.008l1.38,0.083l-1.17-0.741
			c-0.065,0.11-0.181,0.297-0.209,0.658l1.38,0.083l-1.17-0.741l0.918,0.581l-0.775-0.764c-0.026,0.027-0.072,0.073-0.143,0.183
			l0.918,0.581l-0.775-0.764l0.418,0.412l-0.393-0.438l-0.026,0.025l0.418,0.412l-0.393-0.438l0.065,0.072l-0.062-0.075
			l-0.003,0.003l0.065,0.072l-0.062-0.075c-0.022,0.021-0.213,0.154-0.491,0.313c-0.545,0.317-1.445,0.784-2.62,1.354
			c-4.419,2.144-12.748,5.786-22.905,10.021c-15.241,6.355-34.63,14.063-51.34,20.176c-8.354,3.056-16.041,5.712-22.188,7.598
			c-3.072,0.942-5.761,1.692-7.94,2.2c-2.171,0.511-3.866,0.771-4.787,0.765c-0.309,0.002-0.522-0.031-0.579-0.049l-0.014-0.004
			l-0.044,0.136l0.06-0.13l-0.015-0.006l-0.044,0.136l0.06-0.13l-0.322,0.701l0.615-0.443c-0.126-0.173-0.257-0.241-0.293-0.258
			l-0.322,0.701l0.615-0.443l0,0.001l-0.742,0.535h0.932c0.001-0.068-0.017-0.294-0.19-0.535l-0.742,0.535h0.932h-0.271l0.269,0.041
			l0.002-0.041h-0.271l0.269,0.041c-0.002-0.015,0.06-0.241,0.215-0.553c0.298-0.614,0.909-1.57,1.769-2.732
			c1.616-2.189,4.113-5.149,7.229-8.616c10.916-12.145,29.444-30.544,45.608-45.875c8.083-7.667,15.579-14.572,21.236-19.547
			c2.827-2.486,5.197-4.491,6.931-5.854c0.865-0.681,1.575-1.202,2.073-1.527c0.247-0.162,0.444-0.274,0.548-0.325l0.056-0.025
			l0.008-0.003l-0.287-0.815v0.854c0.217-0.004,0.275-0.039,0.287-0.039l-0.287-0.815v0.854v-1.295l-0.411,1.227
			c0.176,0.059,0.314,0.068,0.411,0.068v-1.295l-0.411,1.227l0.007,0.003h0.001L122.024,283.628l0.477-1.422
			c-0.213-0.071-0.396-0.087-0.542-0.088c-0.369,0.007-0.578,0.085-0.777,0.155c-0.376,0.146-0.694,0.333-1.081,0.577
			c-0.735,0.472-1.664,1.166-2.814,2.083c-4.293,3.427-11.603,9.956-20.207,17.965c-12.9,12.01-28.667,27.316-41.228,40.254
			c-6.282,6.471-11.759,12.346-15.691,16.94c-1.967,2.3-3.546,4.275-4.665,5.879c-0.56,0.804-1.004,1.512-1.333,2.155
			c-0.165,0.323-0.3,0.63-0.405,0.943c-0.102,0.315-0.181,0.636-0.184,1.026c-0.001,0.35,0.079,0.804,0.376,1.219l0,0.001
			c0.195,0.271,0.438,0.465,0.67,0.6c0.352,0.203,0.688,0.294,1.02,0.354c0.333,0.058,0.669,0.079,1.028,0.079
			c1.046-0.003,2.308-0.181,3.854-0.49c5.758-1.164,15.409-4.275,26.78-8.334c17.04-6.086,37.845-14.295,54.419-21.165
			c8.287-3.436,15.513-6.535,20.688-8.872c2.589-1.17,4.663-2.146,6.121-2.891c0.731-0.374,1.304-0.686,1.742-0.958
			c0.222-0.139,0.407-0.262,0.598-0.421c0.096-0.082,0.196-0.17,0.319-0.322c0.061-0.078,0.13-0.173,0.2-0.314
			c0.068-0.141,0.145-0.335,0.164-0.61v-0.005v0.001l0.004-0.133c-0.002-0.393-0.092-0.717-0.203-1.008
			c-0.214-0.543-0.52-1.007-0.896-1.517c-0.659-0.883-1.561-1.875-2.649-3.043c-3.256-3.487-8.196-8.508-12.368-14.9l0-0.001
			c-3.57-5.456-6.225-11.396-8.159-16.05c-0.969-2.329-1.757-4.331-2.412-5.827c-0.33-0.751-0.621-1.371-0.918-1.884
			c-0.151-0.259-0.3-0.49-0.496-0.721c-0.203-0.223-0.431-0.49-0.963-0.682l0.008,0.003L122.024,283.628z"/>
		<path fill="#FCE146" d="M181.054,353.692c1.388-0.56,12.349,7.074,25.153,10.89c12.247,3.646,23.534,3.041,24.835,4.769
			c1.28,1.708-53.877,108.183-60.187,106.715C165.287,474.77,178.046,354.915,181.054,353.692z"/>
		<path fill="#010101" d="M181.054,353.692l0.562,1.391l-0.381-0.942v1.022c0.06-0.001,0.184-0.003,0.381-0.08l-0.381-0.942v1.022
			v-0.5l-0.049,0.498l0.049,0.002v-0.5l-0.049,0.498v-0.001v0.001l0,0v-0.001v0.001c0.065,0.006,0.442,0.123,0.927,0.34
			c0.865,0.379,2.143,1.038,3.699,1.85c4.686,2.44,11.933,6.272,19.968,8.669c6.265,1.865,12.243,2.633,16.779,3.156
			c2.264,0.261,4.174,0.462,5.526,0.692c0.673,0.113,1.208,0.237,1.536,0.351c0.163,0.055,0.272,0.107,0.31,0.131l0.016,0.009
			l0.258-0.376l-0.359,0.271l0.101,0.105l0.258-0.376l-0.359,0.271l-0.002-0.003l1.119-0.838l-1.367,0.299
			c0.029,0.126,0.082,0.313,0.249,0.539l1.119-0.838l-1.367,0.299l1.191-0.261h-1.22c0,0.055,0.002,0.134,0.029,0.261l1.191-0.261
			h-1.22h0.74l-0.733-0.109l-0.007,0.109h0.74l-0.733-0.109l0,0.002c-0.007,0.048-0.077,0.298-0.199,0.63
			c-0.477,1.325-1.696,4.06-3.44,7.711c-6.113,12.816-18.75,37.25-30.555,58.439c-5.902,10.595-11.601,20.385-16.158,27.492
			c-2.277,3.552-4.273,6.436-5.835,8.382c-0.777,0.971-1.452,1.708-1.948,2.148c-0.245,0.221-0.447,0.364-0.554,0.424l-0.058,0.03
			l-0.012,0.005l0.18,0.496v-0.521c-0.121,0.001-0.177,0.024-0.18,0.024l0.18,0.496v-0.521v0.895l0.201-0.871l-0.201-0.023v0.895
			l0.201-0.871l0.003,0.001l-0.231,0.995l0.614-0.82c-0.083-0.062-0.218-0.138-0.382-0.175l-0.231,0.995l0.614-0.82l-0.414,0.553
			l0.549-0.424l-0.135-0.129l-0.414,0.553l0.549-0.424l-0.006,0.005l0.009-0.004l-0.002-0.001l-0.006,0.005l0.009-0.004
			c-0.047-0.079-0.173-0.425-0.271-0.927c-0.153-0.76-0.279-1.886-0.359-3.283c-0.081-1.4-0.12-3.079-0.12-4.99
			c-0.002-14.547,2.271-42.308,4.856-66.479c1.292-12.09,2.662-23.296,3.86-31.521c0.599-4.11,1.156-7.48,1.632-9.817
			c0.237-1.166,0.457-2.078,0.635-2.656c0.087-0.286,0.168-0.491,0.203-0.56l0.008-0.017l0.001-0.003l-0.517-0.288l0.444,0.386
			l0.073-0.098l-0.517-0.288l0.444,0.386l-0.932-0.808l0.462,1.137c0.29-0.124,0.405-0.26,0.47-0.329l-0.932-0.808l0.462,1.137
			l-0.003,0.001L181.054,353.692l-0.565-1.39c-0.43,0.187-0.608,0.414-0.746,0.582c-0.251,0.34-0.354,0.607-0.48,0.931
			c-0.228,0.614-0.435,1.403-0.666,2.43c-0.852,3.82-1.925,10.858-3.078,19.761c-1.727,13.343-3.613,30.812-5.069,47.423
			c-1.457,16.613-2.483,32.345-2.484,42.28c0.001,3.161,0.102,5.73,0.34,7.625c0.123,0.952,0.271,1.729,0.508,2.4
			c0.123,0.337,0.263,0.654,0.501,0.976c0.12,0.16,0.268,0.322,0.466,0.472c0.196,0.147,0.449,0.278,0.735,0.345l0.003,0.001
			c0.161,0.037,0.321,0.053,0.473,0.053c0.689-0.014,1.154-0.265,1.587-0.533c0.824-0.541,1.604-1.343,2.538-2.436
			c1.728-2.043,3.873-5.104,6.356-8.955c8.672-13.459,21.385-36.516,31.958-56.648c5.285-10.063,10.03-19.39,13.46-26.412
			c1.715-3.512,3.101-6.445,4.067-8.621c0.483-1.089,0.861-1.986,1.128-2.69c0.134-0.354,0.24-0.657,0.321-0.933
			c0.041-0.139,0.075-0.27,0.104-0.408c0.027-0.141,0.053-0.281,0.055-0.493c0-0.101-0.006-0.22-0.041-0.381
			c-0.036-0.159-0.1-0.373-0.281-0.618l0.005,0.006l-0.007-0.009c-0.247-0.325-0.529-0.532-0.803-0.692
			c-0.517-0.295-1.048-0.457-1.662-0.607c-1.068-0.254-2.393-0.432-3.979-0.62c-4.74-0.561-11.796-1.19-19.161-3.384
			c-6.034-1.797-11.707-4.486-16.125-6.739c-2.211-1.127-4.105-2.144-5.605-2.895c-0.751-0.377-1.402-0.687-1.972-0.919
			c-0.286-0.116-0.552-0.213-0.818-0.289c-0.269-0.074-0.531-0.137-0.881-0.14c-0.203,0.002-0.448,0.021-0.742,0.139l-0.003,0.001
			L181.054,353.692z"/>
		<path fill="#FCE146" d="M355.368,302.465c-0.657-1.345,6.193-12.821,9.092-25.861c2.789-12.468,1.386-23.687,3.018-25.093
			c1.623-1.4,111.68,46.189,110.671,52.55C477.196,310.081,356.79,305.381,355.368,302.465z"/>
		<path fill="#010101" d="M355.368,302.465l1.348-0.659l-0.848,0.415h0.956c-0.004-0.037,0.007-0.166-0.108-0.415l-0.848,0.415
			h0.956h-0.179l0.178,0.014l0.001-0.014h-0.179l0.178,0.014c-0.004-0.033,0.078-0.41,0.256-0.899
			c0.309-0.876,0.872-2.192,1.572-3.802c2.104-4.844,5.443-12.379,7.272-20.604v0.002c1.426-6.378,1.774-12.396,1.978-16.955
			c0.101-2.276,0.167-4.194,0.302-5.558c0.065-0.679,0.151-1.221,0.24-1.553c0.044-0.166,0.088-0.276,0.107-0.315l0.008-0.015
			l-0.404-0.238l0.303,0.351l0.102-0.112l-0.404-0.238l0.303,0.351l0.001-0.002l-0.904-1.046l0.297,1.354
			c0.124-0.031,0.336-0.08,0.607-0.308l-0.904-1.046l0.297,1.354l-0.235-1.072v1.1c0.04-0.001,0.106,0,0.235-0.027l-0.235-1.072v1.1
			v-0.387l-0.044,0.385l0.044,0.002v-0.387l-0.044,0.385c0.035,0.002,0.286,0.052,0.622,0.148c1.341,0.376,4.155,1.4,7.926,2.886
			c13.236,5.209,38.604,16.157,60.62,26.478c11.009,5.16,21.186,10.168,28.575,14.212c3.692,2.02,6.691,3.804,8.712,5.212
			c1.009,0.701,1.772,1.315,2.224,1.766c0.225,0.222,0.368,0.404,0.42,0.49l0.024,0.04l0.001,0.003l0.534-0.242h-0.574
			c0.001,0.165,0.04,0.24,0.04,0.242l0.534-0.242h-0.574h0.915l-0.904-0.141l-0.011,0.141h0.915l-0.904-0.141l0.001-0.004
			l0.953,0.15l-0.824-0.507c-0.05,0.08-0.106,0.207-0.129,0.356l0.953,0.15l-0.824-0.507l0.533,0.328l-0.426-0.463l-0.107,0.135
			l0.533,0.328l-0.426-0.463l0.081,0.089l-0.072-0.097l-0.009,0.008l0.081,0.089l-0.072-0.097c-0.021,0.027-0.382,0.218-0.946,0.373
			c-0.996,0.289-2.62,0.567-4.689,0.795c-6.229,0.691-16.532,0.984-28.435,0.983c-17.938,0-39.562-0.656-56.796-1.548
			c-8.615-0.446-16.138-0.951-21.537-1.459c-2.698-0.254-4.869-0.51-6.351-0.752c-0.737-0.12-1.308-0.24-1.64-0.336
			c-0.163-0.046-0.265-0.088-0.265-0.089l-0.286,0.589l0.399-0.515l-0.113-0.074l-0.286,0.589l0.399-0.515l-0.761,0.979l1.11-0.541
			c-0.137-0.269-0.275-0.377-0.35-0.438l-0.761,0.979l1.11-0.541l-0.001-0.002L355.368,302.465l-1.349,0.657
			c0.165,0.327,0.357,0.495,0.508,0.616c0.303,0.228,0.528,0.311,0.773,0.404c0.466,0.166,0.999,0.288,1.682,0.417
			c2.53,0.471,7.071,0.933,13.062,1.386c17.943,1.351,48.644,2.533,72.797,2.533c9.862,0,18.626-0.196,25.018-0.664
			c3.199-0.235,5.797-0.534,7.705-0.931c0.958-0.203,1.738-0.42,2.405-0.725c0.335-0.156,0.647-0.331,0.951-0.604
			c0.15-0.137,0.3-0.302,0.43-0.512c0.129-0.208,0.235-0.466,0.279-0.748l0.001-0.005c0.017-0.108,0.024-0.216,0.024-0.319
			c-0.001-0.355-0.086-0.658-0.192-0.915c-0.217-0.506-0.517-0.883-0.873-1.271c-0.694-0.74-1.654-1.499-2.901-2.368
			c-2.333-1.619-5.66-3.572-9.743-5.787c-14.278-7.737-37.784-18.604-58.211-27.56c-10.212-4.477-19.647-8.472-26.77-11.352
			c-3.562-1.44-6.544-2.603-8.768-3.411c-1.113-0.404-2.035-0.72-2.763-0.942c-0.365-0.111-0.681-0.199-0.962-0.265
			c-0.29-0.063-0.515-0.114-0.857-0.12c-0.107,0.001-0.231,0.005-0.406,0.042c-0.171,0.042-0.417,0.106-0.712,0.353l0.001-0.001
			c-0.309,0.269-0.496,0.565-0.639,0.85c-0.259,0.536-0.382,1.076-0.489,1.699c-0.179,1.082-0.261,2.414-0.338,4.009
			c-0.226,4.765-0.358,11.847-2.036,19.344v0.002c-1.351,6.079-3.6,11.869-5.523,16.413c-0.962,2.274-1.842,4.235-2.494,5.793
			c-0.326,0.78-0.597,1.459-0.797,2.05c-0.1,0.296-0.183,0.57-0.246,0.839c-0.062,0.271-0.109,0.529-0.111,0.848
			c0.004,0.24,0.021,0.532,0.196,0.903l-0.008-0.017l0.007,0.015L355.368,302.465z"/>
		<path fill="#FFFFFF" d="M129.929,192.134c0.581,1.374-6.867,12.471-10.461,25.336c-3.441,12.306-2.019,22.315-3.722,23.642
			c-1.69,1.314-109.626-50.759-108.346-57.103C8.497,178.571,128.656,189.152,129.929,192.134z"/>
		<path fill="#FCE146" d="M124.812,201.672c0.531,0.968-4.462,9.291-6.403,18.73c-1.858,9.031-0.525,19.684-1.739,20.71
			c-1.67,0.021-86.359-35.749-85.779-40.383C31.385,196.752,123.658,199.563,124.812,201.672z"/>
		<path fill="#010101" d="M130.016,190.466l-1.363,0.627l0.885-0.408h-0.983c0.002,0.047-0.003,0.176,0.099,0.408l0.885-0.408
			h-0.983h0.311l-0.31-0.027l-0.001,0.027h0.311l-0.31-0.027c0.007,0.006-0.076,0.374-0.262,0.852
			c-0.322,0.856-0.915,2.154-1.653,3.743c-2.22,4.787-5.761,12.265-7.801,20.478l0-0.001c-1.578,6.343-2.071,12.35-2.386,16.904
			c-0.156,2.274-0.27,4.19-0.438,5.551c-0.082,0.677-0.182,1.217-0.279,1.548c-0.047,0.165-0.094,0.275-0.115,0.313l-0.009,0.015
			l0.395,0.246l-0.292-0.354l-0.104,0.108l0.395,0.246l-0.292-0.354l-0.001,0.001l0.885,1.071l-0.299-1.359
			c-0.126,0.031-0.33,0.083-0.585,0.288l0.885,1.071l-0.299-1.359l0.247,1.122v-1.149c-0.046,0-0.117,0-0.247,0.028l0.247,1.122
			v-1.149v0.532l0.067-0.529l-0.067-0.003v0.533l0.067-0.529c-0.015,0.001-0.258-0.05-0.583-0.151
			c-1.302-0.395-4.071-1.477-7.787-3.045c-13.046-5.497-38.136-17.046-59.92-27.902c-10.892-5.428-20.966-10.687-28.281-14.918
			c-3.655-2.114-6.625-3.976-8.626-5.44c-0.999-0.729-1.757-1.365-2.206-1.832c-0.224-0.23-0.368-0.42-0.423-0.513l-0.026-0.047
			l-0.002-0.005l-0.27,0.119l0.285-0.069l-0.015-0.049l-0.27,0.119l0.285-0.069l-0.708,0.172h0.727l-0.019-0.172l-0.708,0.172h0.727
			l0,0h-0.93l0.909,0.194l0.021-0.194h-0.93l0.909,0.194l0.001-0.004l0,0.002l-0.889-0.188l0.665,0.636
			c0.055-0.056,0.174-0.21,0.224-0.448l-0.889-0.188l0.665,0.636l-0.268-0.257l0.223,0.298l0.045-0.042l-0.268-0.257l0.223,0.298
			l0.028-0.018c0.083-0.051,0.335-0.16,0.7-0.261c0.642-0.183,1.627-0.364,2.866-0.513c3.73-0.454,9.749-0.66,17.076-0.658
			c17.447,0,42.396,1.139,63.077,2.548c10.34,0.705,19.619,1.477,26.352,2.206c3.364,0.363,6.096,0.718,7.978,1.04
			c0.938,0.16,1.668,0.315,2.116,0.443c0.221,0.062,0.374,0.121,0.403,0.136l0.003,0.002l0.306-0.59l-0.419,0.512l0.113,0.078
			l0.306-0.59l-0.419,0.512l0.786-0.961l-1.123,0.516c0.128,0.269,0.264,0.381,0.337,0.445l0.786-0.961l-1.123,0.516
			L130.016,190.466l1.363-0.626c-0.18-0.375-0.392-0.547-0.553-0.675c-0.324-0.235-0.569-0.324-0.852-0.429
			c-0.535-0.187-1.188-0.339-2.03-0.503c-3.131-0.601-8.837-1.259-16.216-1.931c-22.112-2.008-58.995-4.061-82.554-4.062
			c-6.398,0-11.81,0.15-15.725,0.501c-1.962,0.178-3.542,0.399-4.752,0.708c-0.609,0.158-1.125,0.33-1.607,0.593
			c-0.24,0.135-0.478,0.294-0.708,0.532c-0.226,0.234-0.453,0.574-0.543,1.005l0-0.002c-0.032,0.147-0.045,0.293-0.045,0.432
			c0.001,0.352,0.083,0.65,0.186,0.907c0.209,0.503,0.502,0.887,0.854,1.285c0.683,0.757,1.633,1.542,2.867,2.444
			c2.308,1.681,5.601,3.721,9.643,6.038c14.133,8.098,37.396,19.539,57.593,28.977c10.097,4.718,19.421,8.932,26.448,11.971
			c3.515,1.52,6.453,2.746,8.64,3.6c1.095,0.427,2,0.76,2.713,0.996c0.358,0.118,0.667,0.211,0.944,0.281
			c0.287,0.067,0.504,0.125,0.866,0.131c0.105-0.001,0.228-0.005,0.398-0.042c0.167-0.04,0.403-0.105,0.68-0.329l-0.001,0.001
			c0.315-0.262,0.509-0.553,0.657-0.834c0.271-0.53,0.408-1.067,0.53-1.687c0.205-1.078,0.32-2.408,0.437-4.001
			c0.342-4.759,0.647-11.836,2.503-19.292l-0.004,0.016l0.004-0.017c1.505-6.071,3.908-11.826,5.947-16.329
			c1.02-2.253,1.948-4.192,2.635-5.729c0.344-0.771,0.628-1.438,0.839-2.021c0.105-0.292,0.193-0.563,0.261-0.831
			c0.066-0.27,0.119-0.529,0.121-0.858c-0.003-0.227-0.022-0.503-0.176-0.847L130.016,190.466z"/>
		<path fill="#FFFFFF" d="M296.99,133.98c-1.365,0.603-12.572-6.674-25.495-10.074c-12.352-3.255-23.617-2.287-24.968-3.968
			c-1.343-1.674,50.36-109.777,56.728-108.595C308.709,12.36,299.957,132.664,296.99,133.98z"/>
		<path fill="#FCE146" d="M297.447,134.007c-0.932,0.545-8.311-5.674-16.947-7.757c-8.26-2.005-14.811-2.547-15.683-3.822
			c-0.865-1.266,34.422-89.67,38.683-89.033C305.007,33.392,299.475,132.82,297.447,134.007z"/>
		<path fill="#010101" d="M297.447,134.007l-0.619-1.366l0.403,0.891v-0.987c-0.049,0.002-0.177-0.002-0.403,0.096l0.403,0.891
			v-0.987v0.332l0.029-0.331l-0.029-0.001v0.332l0.029-0.331c0,0.001-0.096-0.014-0.245-0.058c-0.586-0.164-1.806-0.693-3.352-1.417
			c-4.686-2.181-12.633-6.135-21.423-8.365l-0.005-0.001l0.007,0.002c-6.334-1.612-12.339-2.137-16.893-2.475
			c-2.273-0.168-4.189-0.291-5.549-0.466c-0.677-0.086-1.216-0.188-1.547-0.288c-0.165-0.048-0.275-0.096-0.313-0.117l-0.016-0.008
			l-0.248,0.393l0.355-0.29l-0.107-0.104l-0.248,0.393l0.355-0.29l-0.005-0.006l0.003,0.004l-1.076,0.88l1.36-0.3
			c-0.031-0.126-0.083-0.329-0.284-0.581l-1.076,0.88l1.36-0.3l-1.13,0.249h1.158c0-0.046-0.001-0.119-0.028-0.249l-1.13,0.249
			h1.158h-0.556l0.553,0.071l0.003-0.071h-0.556l0.553,0.071c-0.002-0.012,0.05-0.253,0.152-0.575
			c0.398-1.295,1.491-4.055,3.073-7.76c5.55-13.008,17.208-38.036,28.168-59.769c5.479-10.866,10.79-20.916,15.062-28.214
			c2.134-3.646,4.014-6.609,5.493-8.606c0.736-0.996,1.378-1.752,1.851-2.201c0.232-0.224,0.425-0.368,0.521-0.424l0.049-0.027
			l0.006-0.002l-0.107-0.249l0.062,0.262l0.045-0.013l-0.107-0.249l0.062,0.262l-0.165-0.69v0.708l0.165-0.018l-0.165-0.69v0.708v0
			v-0.922l-0.222,0.894l0.222,0.028v-0.922l-0.222,0.894l0.003,0l0.001,0l0.217-0.887l-0.639,0.665
			c0.055,0.055,0.198,0.167,0.422,0.222l0.217-0.887l-0.639,0.665l0.281-0.293l-0.326,0.245l0.045,0.048l0.281-0.293l-0.326,0.245
			l0.001,0.001c0.021,0.025,0.12,0.219,0.212,0.525c0.17,0.538,0.344,1.413,0.487,2.526c0.439,3.357,0.641,8.889,0.639,15.698
			c0.001,17.183-1.248,42.608-2.773,63.828c-0.762,10.61-1.594,20.175-2.37,27.127c-0.388,3.474-0.763,6.299-1.102,8.247
			c-0.168,0.971-0.331,1.728-0.464,2.194c-0.064,0.23-0.127,0.391-0.145,0.426l-0.003,0.005l0.57,0.295l-0.494-0.404l-0.076,0.109
			l0.57,0.295l-0.494-0.404l0.958,0.784l-0.508-1.123c-0.275,0.129-0.388,0.267-0.45,0.339l0.958,0.784l-0.508-1.123
			L297.447,134.007l0.618,1.367c0.383-0.182,0.557-0.396,0.686-0.559c0.237-0.328,0.327-0.576,0.436-0.864
			c0.191-0.547,0.35-1.219,0.521-2.089c0.628-3.231,1.329-9.131,2.049-16.736c2.152-22.792,4.402-60.643,4.403-83.863
			c0-5.858-0.142-10.781-0.473-14.349c-0.167-1.788-0.376-3.229-0.668-4.347c-0.15-0.562-0.313-1.043-0.566-1.499
			c-0.13-0.227-0.283-0.453-0.509-0.671c-0.223-0.215-0.539-0.431-0.943-0.53l0.004,0.001c-0.169-0.042-0.339-0.061-0.499-0.06
			c-0.35,0.001-0.647,0.081-0.904,0.183c-0.505,0.207-0.892,0.498-1.293,0.849c-0.765,0.681-1.558,1.628-2.469,2.859
			c-1.698,2.303-3.759,5.589-6.099,9.622c-8.178,14.101-19.727,37.31-29.255,57.457c-4.763,10.072-9.017,19.372-12.085,26.38
			c-1.535,3.504-2.772,6.434-3.634,8.614c-0.431,1.091-0.768,1.993-1.005,2.704c-0.119,0.356-0.213,0.664-0.284,0.94
			c-0.068,0.287-0.126,0.502-0.133,0.868c0.001,0.105,0.005,0.228,0.042,0.397c0.04,0.167,0.105,0.4,0.324,0.674l-0.003-0.003
			l0.001,0.001c0.26,0.316,0.551,0.512,0.831,0.661c0.528,0.274,1.065,0.414,1.685,0.539c1.077,0.21,2.407,0.333,4,0.457
			c4.758,0.366,11.835,0.709,19.28,2.604l0.011,0.002l-0.009-0.002c6.065,1.537,11.811,3.97,16.304,6.032
			c2.249,1.032,4.183,1.969,5.717,2.663c0.768,0.348,1.435,0.634,2.017,0.848c0.291,0.106,0.562,0.195,0.829,0.264
			c0.271,0.066,0.53,0.12,0.86,0.123c0.225-0.003,0.497-0.022,0.835-0.171L297.447,134.007z"/>
	</g>
</g>
</svg>
