<?xml version="1.0" encoding="utf-8"?>
<!-- Generator: Adobe Illustrator 15.1.0, SVG Export Plug-In . SVG Version: 6.00 Build 0)  -->
<!DOCTYPE svg PUBLIC "-//W3C//DTD SVG 1.1//EN" "http://www.w3.org/Graphics/SVG/1.1/DTD/svg11.dtd">
<svg version="1.1" id="Layer_1" xmlns="http://www.w3.org/2000/svg" xmlns:xlink="http://www.w3.org/1999/xlink" x="0px" y="0px"
	 width="250px" height="250px" viewBox="0 0 250 250" enable-background="new 0 0 250 250" xml:space="preserve">
<circle fill="#FFFFFF" cx="123.832" cy="123.438" r="43.599"/>
<ellipse fill="#FDE145" cx="128.568" cy="129.33" rx="36.938" ry="36.259"/>
<circle fill="none" stroke="#000000" stroke-width="2" stroke-miterlimit="10" cx="123.832" cy="123.79" r="43.599"/>
<g>
	<path fill="#FFFFFF" d="M105.652,75.873c-0.203,0.577-5.515,1.88-10.149,4.781c-4.435,2.774-7.303,6.406-8.184,6.337
		c-0.874-0.07-18.632-45.794-16.497-47.361C72.655,38.287,106.092,74.62,105.652,75.873z"/>
	<path fill="#FDE145" d="M105.685,75.89c-0.164,0.416-4.118,1.467-7.605,3.646c-3.339,2.085-5.539,4.745-6.188,4.716
		c-0.645-0.029-12.728-32.326-11.116-33.496C82.16,49.755,106.036,74.984,105.685,75.89z"/>
	<path fill="none" stroke="#000000" stroke-width="1.5" stroke-miterlimit="10" d="M105.652,75.873
		c-0.203,0.577-5.515,1.88-10.149,4.781c-4.435,2.774-7.303,6.406-8.184,6.337c-0.874-0.07-18.632-45.794-16.497-47.361
		C72.655,38.287,106.092,74.62,105.652,75.873z"/>
</g>
<path fill="#FDE145" stroke="#000000" stroke-width="1.5" stroke-miterlimit="10" d="M140.652,171.961
	c0.225-0.57,5.578-1.682,10.312-4.416c4.53-2.613,7.526-6.143,8.405-6.041c0.868,0.1,17.075,46.598,14.794,47.918
	C172.148,210.588,140.168,173.195,140.652,171.961z"/>
<path fill="#FDE145" stroke="#000000" stroke-width="1.5" stroke-miterlimit="10" d="M173.2,106.879
	c-0.587-0.181-2.099-5.437-5.181-9.953c-2.947-4.32-6.691-7.042-6.658-7.924c0.035-0.876,45.183-20.289,46.668-18.364
	C209.361,72.361,174.469,107.268,173.2,106.879z"/>
<path fill="#FDE145" stroke="#000000" stroke-width="1.5" stroke-miterlimit="10" d="M74.312,139.391
	c0.581,0.191,1.986,5.478,4.978,10.053c2.86,4.38,6.549,7.18,6.496,8.06c-0.052,0.873-45.494,19.545-47.028,17.42
	C37.394,173.032,73.05,138.975,74.312,139.391z"/>
<path fill="#FDE145" stroke="#000000" stroke-width="1.5" stroke-miterlimit="10" d="M98.475,168.07
	c0.568-0.229,5.055,2.896,10.297,4.457c5.012,1.494,9.633,1.246,10.165,1.953c0.525,0.699-22.053,44.283-24.636,43.682
	C92.021,217.632,97.244,168.57,98.475,168.07z"/>
<path fill="#FDE145" stroke="#000000" stroke-width="1.5" stroke-miterlimit="10" d="M169.828,147.102
	c-0.268-0.551,2.535-5.248,3.722-10.586c1.142-5.104,0.567-9.697,1.235-10.274c0.664-0.573,45.715,18.909,45.302,21.511
	C219.697,150.217,170.41,148.294,169.828,147.102z"/>
<g>
	<path fill="#FFFFFF" d="M77.547,101.938c0.238,0.562-2.811,5.105-4.282,10.371c-1.409,5.037-1.083,9.653-1.78,10.196
		c-0.692,0.538-44.618-21.296-44.094-23.893C27.84,96.386,77.026,100.717,77.547,101.938z"/>
	<path fill="#FDE145" d="M75.453,105.842c0.217,0.396-1.827,3.802-2.621,7.667c-0.761,3.697-0.225,7.021-0.722,7.441
		c-0.496,0.416-35.34-13.597-35.103-15.494C37.209,103.828,74.98,104.979,75.453,105.842z"/>
	<path fill="none" stroke="#000000" stroke-width="1.5" stroke-miterlimit="10" d="M77.583,101.255
		c0.255,0.555-2.662,5.181-3.979,10.49c-1.263,5.075-0.803,9.68-1.484,10.242c-0.675,0.557-45.312-20.034-44.767-22.604
		C27.855,97.012,77.028,100.048,77.583,101.255z"/>
</g>
<g>
	<path fill="#FFFFFF" d="M145.932,78.133c-0.558,0.247-5.146-2.732-10.436-4.124c-5.057-1.332-9.668-0.936-10.221-1.624
		c-0.548-0.685,20.616-44.936,23.222-44.452C150.729,28.349,147.146,77.594,145.932,78.133z"/>
	<path fill="#FDE145" d="M146.566,76.994c-0.381,0.223-3.412-1.929-6.947-2.782c-3.381-0.821-6.501-0.286-6.857-0.808
		c-0.354-0.518,14.91-36.704,16.654-36.443C150.914,37.185,147.396,76.508,146.566,76.994z"/>
	<path fill="none" stroke="#000000" stroke-width="1.5" stroke-miterlimit="10" d="M146.12,78.144
		c-0.558,0.253-5.168-2.687-10.47-4.031c-5.068-1.29-9.676-0.853-10.234-1.537c-0.554-0.678,20.264-45.283,22.831-44.651
		C150.586,28.498,147.33,77.596,146.12,78.144z"/>
</g>
</svg>
